STARTFONT 2.1
FONT -Misc-Fixed-Medium-R-Normal--20-200-75-75-C-100-ISO10646-1
SIZE "20 75 75"
FONTBOUNDINGBOX 11 23 -1 -4
COMMENT "Generated by fontforge, http://fontforge.sourceforge.net"
COMMENT "$Id: 10x20.bdf,v 1.91 2009-04-06 19:10:19+01 mgk25 Rel $"
COMMENT "Send bug reports to Markus Kuhn <http://www.cl.cam.ac.uk/~mgk25/>"
STARTPROPERTIES 25
FONTBOUNDINGBOX "11 14 0 -4"
SIZE "20 75 75"
FONTBOUNDINGBOX "10 14 0 0"
FONTNAME_REGISTRY ""
FOUNDRY "Misc"
FAMILY_NAME "Fixed"
WEIGHT_NAME "Medium"
SLANT "R"
SETWIDTH_NAME "Normal"
ADD_STYLE_NAME ""
PIXEL_SIZE 20
POINT_SIZE 200
RESOLUTION_X 75
RESOLUTION_Y 75
SPACING "C"
AVERAGE_WIDTH 100
CHARSET_REGISTRY "ISO10646"
CHARSET_ENCODING "1"
DEFAULT_CHAR 0
FONT_DESCENT 4
FONT_ASCENT 16
X_HEIGHT 8
CAP_HEIGHT 13
COPYRIGHT "Public domain font.  Share and enjoy."
_GBDFED_INFO "Edited with gbdfed 1.3."
ENDPROPERTIES
CHARS 4763
STARTCHAR char0
ENCODING 0
SWIDTH 480 0
DWIDTH 10 0
BBX 8 13 1 0
BITMAP
E7
81
81
00
00
81
81
81
00
00
81
81
E7
ENDCHAR
STARTCHAR space
ENCODING 32
SWIDTH 480 0
DWIDTH 10 0
BBX 1 1 9 -4
BITMAP
00
ENDCHAR
STARTCHAR exclam
ENCODING 33
SWIDTH 480 0
DWIDTH 10 0
BBX 2 13 4 0
BITMAP
C0
C0
C0
C0
C0
C0
C0
C0
C0
C0
00
C0
C0
ENDCHAR
STARTCHAR quotedbl
ENCODING 34
SWIDTH 480 0
DWIDTH 10 0
BBX 6 4 2 10
BITMAP
CC
CC
CC
CC
ENDCHAR
STARTCHAR numbersign
ENCODING 35
SWIDTH 480 0
DWIDTH 10 0
BBX 10 14 0 0
BITMAP
3300
3300
3300
3300
FFC0
FFC0
3300
3300
FFC0
FFC0
3300
3300
3300
3300
ENDCHAR
STARTCHAR dollar
ENCODING 36
SWIDTH 480 0
DWIDTH 10 0
BBX 10 18 0 -2
BITMAP
0C00
0C00
3FC0
7FC0
EC00
CC00
CC00
EC00
7F00
3F80
0DC0
0CC0
0CC0
0DC0
FF80
FF00
0C00
0C00
ENDCHAR
STARTCHAR percent
ENCODING 37
SWIDTH 480 0
DWIDTH 10 0
BBX 8 14 1 0
BITMAP
E3
E3
E7
06
0E
0C
1C
18
38
30
70
67
E7
C7
ENDCHAR
STARTCHAR ampersand
ENCODING 38
SWIDTH 480 0
DWIDTH 10 0
BBX 10 14 0 0
BITMAP
3C00
7E00
E700
C700
EE00
7C00
3800
3CC0
7EC0
E7C0
C380
E7C0
7EC0
3CC0
ENDCHAR
STARTCHAR quotesingle
ENCODING 39
SWIDTH 480 0
DWIDTH 10 0
BBX 2 4 4 10
BITMAP
C0
C0
C0
C0
ENDCHAR
STARTCHAR parenleft
ENCODING 40
SWIDTH 480 0
DWIDTH 10 0
BBX 4 14 3 0
BITMAP
30
70
E0
C0
C0
C0
C0
C0
C0
C0
C0
E0
70
30
ENDCHAR
STARTCHAR parenright
ENCODING 41
SWIDTH 480 0
DWIDTH 10 0
BBX 4 14 2 0
BITMAP
C0
E0
70
30
30
30
30
30
30
30
30
70
E0
C0
ENDCHAR
STARTCHAR asterisk
ENCODING 42
SWIDTH 480 0
DWIDTH 10 0
BBX 9 10 0 0
BITMAP
C180
E380
7700
3E00
FF80
FF80
3E00
7700
E380
C180
ENDCHAR
STARTCHAR plus
ENCODING 43
SWIDTH 480 0
DWIDTH 10 0
BBX 10 10 0 0
BITMAP
0C00
0C00
0C00
0C00
FFC0
FFC0
0C00
0C00
0C00
0C00
ENDCHAR
STARTCHAR comma
ENCODING 44
SWIDTH 480 0
DWIDTH 10 0
BBX 5 5 2 -2
BITMAP
38
38
38
70
E0
ENDCHAR
STARTCHAR hyphen
ENCODING 45
SWIDTH 480 0
DWIDTH 10 0
BBX 6 1 2 6
BITMAP
FC
ENDCHAR
STARTCHAR period
ENCODING 46
SWIDTH 480 0
DWIDTH 10 0
BBX 3 3 4 0
BITMAP
E0
E0
E0
ENDCHAR
STARTCHAR slash
ENCODING 47
SWIDTH 480 0
DWIDTH 10 0
BBX 8 14 1 0
BITMAP
03
03
07
06
0E
0C
1C
18
38
30
70
60
E0
C0
ENDCHAR
STARTCHAR zero
ENCODING 48
SWIDTH 480 0
DWIDTH 10 0
BBX 10 14 0 0
BITMAP
3F00
3F00
6180
6180
C0C0
C0C0
C0C0
C0C0
C0C0
C0C0
6180
6180
3F00
3F00
ENDCHAR
STARTCHAR one
ENCODING 49
SWIDTH 480 0
DWIDTH 10 0
BBX 10 14 0 0
BITMAP
0C00
1C00
3C00
7C00
EC00
CC00
0C00
0C00
0C00
0C00
0C00
0C00
FFC0
FFC0
ENDCHAR
STARTCHAR two
ENCODING 50
SWIDTH 480 0
DWIDTH 10 0
BBX 10 14 0 0
BITMAP
3F00
7F80
E1C0
C0C0
00C0
01C0
0380
0700
3E00
7C00
E000
C000
FFC0
FFC0
ENDCHAR
STARTCHAR three
ENCODING 51
SWIDTH 480 0
DWIDTH 10 0
BBX 10 14 0 0
BITMAP
FFC0
FFC0
0380
0700
0E00
1C00
3F00
7F80
01C0
00C0
C0C0
E1C0
7F80
3F00
ENDCHAR
STARTCHAR four
ENCODING 52
SWIDTH 480 0
DWIDTH 10 0
BBX 10 14 0 0
BITMAP
0300
0700
0F00
1F00
3B00
7300
E300
C300
FFC0
FFC0
0300
0300
0FC0
0FC0
ENDCHAR
STARTCHAR five
ENCODING 53
SWIDTH 480 0
DWIDTH 10 0
BBX 10 14 0 0
BITMAP
FFC0
FFC0
C000
C000
C000
FF00
FF80
01C0
00C0
00C0
C0C0
E1C0
7F80
3F00
ENDCHAR
STARTCHAR six
ENCODING 54
SWIDTH 480 0
DWIDTH 10 0
BBX 10 15 0 0
BITMAP
3F00
7F80
E1C0
C0C0
C000
FF00
FF80
E1C0
C0C0
C0C0
C0C0
C0C0
E1C0
7F80
3F00
ENDCHAR
STARTCHAR seven
ENCODING 55
SWIDTH 480 0
DWIDTH 10 0
BBX 10 14 0 0
BITMAP
FFC0
FFC0
01C0
0380
0700
0E00
1C00
3800
3000
3000
3000
3000
3000
3000
ENDCHAR
STARTCHAR eight
ENCODING 56
SWIDTH 480 0
DWIDTH 10 0
BBX 10 14 0 0
BITMAP
3F00
7F80
E1C0
C0C0
C0C0
E1C0
7F80
7F80
E1C0
C0C0
C0C0
E1C0
7F80
3F00
ENDCHAR
STARTCHAR nine
ENCODING 57
SWIDTH 480 0
DWIDTH 10 0
BBX 10 14 0 0
BITMAP
3F00
7F80
E1C0
C0C0
C0C0
C0C0
E1C0
7FC0
3FC0
00C0
C0C0
E1C0
7F80
3F00
ENDCHAR
STARTCHAR colon
ENCODING 58
SWIDTH 480 0
DWIDTH 10 0
BBX 2 6 4 2
BITMAP
C0
C0
00
00
C0
C0
ENDCHAR
STARTCHAR semicolon
ENCODING 59
SWIDTH 480 0
DWIDTH 10 0
BBX 5 11 2 -2
BITMAP
38
38
38
00
00
00
38
38
38
70
E0
ENDCHAR
STARTCHAR less
ENCODING 60
SWIDTH 480 0
DWIDTH 10 0
BBX 6 10 2 0
BITMAP
0C
18
30
60
C0
C0
60
30
18
0C
ENDCHAR
STARTCHAR equal
ENCODING 61
SWIDTH 480 0
DWIDTH 10 0
BBX 7 6 1 3
BITMAP
FE
FE
00
00
FE
FE
ENDCHAR
STARTCHAR greater
ENCODING 62
SWIDTH 480 0
DWIDTH 10 0
BBX 6 10 2 0
BITMAP
C0
60
30
18
0C
0C
18
30
60
C0
ENDCHAR
STARTCHAR question
ENCODING 63
SWIDTH 480 0
DWIDTH 10 0
BBX 9 14 1 0
BITMAP
3E00
7F00
E380
C180
0380
0700
0E00
1C00
1800
1800
0000
0000
1800
1800
ENDCHAR
STARTCHAR at
ENCODING 64
SWIDTH 480 0
DWIDTH 10 0
BBX 10 14 0 0
BITMAP
3F00
7F80
E1C0
C0C0
C6C0
CFC0
DDC0
D8C0
D8C0
D8C0
D8C0
DDC0
6FC0
26C0
ENDCHAR
STARTCHAR A
ENCODING 65
SWIDTH 150 0
DWIDTH 3 0
BBX 10 14 0 0
BITMAP
3F00
7F80
E1C0
C0C0
C0C0
C0C0
FFC0
FFC0
C0C0
C0C0
C0C0
C0C0
C0C0
C0C0
ENDCHAR
STARTCHAR B
ENCODING 66
SWIDTH 150 0
DWIDTH 3 0
BBX 10 14 0 0
BITMAP
FF00
FF80
C1C0
C0C0
C0C0
C1C0
FF80
FF80
C1C0
C0C0
C0C0
C1C0
FF80
FF80
ENDCHAR
STARTCHAR C
ENCODING 67
SWIDTH 150 0
DWIDTH 3 0
BBX 10 14 0 0
BITMAP
3F00
7F80
C1C0
C0C0
C000
C000
C000
C000
C000
C000
C0C0
E1C0
7F80
3F00
ENDCHAR
STARTCHAR D
ENCODING 68
SWIDTH 150 0
DWIDTH 3 0
BBX 10 14 0 0
BITMAP
FF00
FF80
C1C0
C0C0
C0C0
C0C0
C0C0
C0C0
C0C0
C0C0
C0C0
C1C0
FF80
FF00
ENDCHAR
STARTCHAR E
ENCODING 69
SWIDTH 150 0
DWIDTH 3 0
BBX 10 14 0 0
BITMAP
FFC0
FFC0
C000
C000
C000
C000
FF00
FF00
C000
C000
C000
C000
FFC0
FFC0
ENDCHAR
STARTCHAR F
ENCODING 70
SWIDTH 150 0
DWIDTH 3 0
BBX 10 14 0 0
BITMAP
FFC0
FFC0
C000
C000
C000
C000
FF00
FF00
C000
C000
C000
C000
C000
C000
ENDCHAR
STARTCHAR G
ENCODING 71
SWIDTH 150 0
DWIDTH 3 0
BBX 10 14 0 0
BITMAP
3E00
7F00
E1C0
C0C0
C000
C000
C3C0
C3C0
C0C0
C0C0
C0C0
E0C0
7FC0
3FC0
ENDCHAR
STARTCHAR H
ENCODING 72
SWIDTH 150 0
DWIDTH 3 0
BBX 10 14 0 0
BITMAP
C0C0
C0C0
C0C0
C0C0
C0C0
C0C0
FFC0
FFC0
C0C0
C0C0
C0C0
C0C0
C0C0
C0C0
ENDCHAR
STARTCHAR I
ENCODING 73
SWIDTH 150 0
DWIDTH 3 0
BBX 6 14 2 0
BITMAP
FC
FC
30
30
30
30
30
30
30
30
30
30
FC
FC
ENDCHAR
STARTCHAR J
ENCODING 74
SWIDTH 150 0
DWIDTH 3 0
BBX 10 14 0 0
BITMAP
00C0
00C0
00C0
00C0
00C0
00C0
00C0
00C0
00C0
00C0
C0C0
E1C0
7F80
3F00
ENDCHAR
STARTCHAR K
ENCODING 75
SWIDTH 150 0
DWIDTH 3 0
BBX 10 14 0 0
BITMAP
C0C0
C1C0
C380
C700
CE00
DC00
F800
F800
DC00
CE00
C700
C380
C1C0
C0C0
ENDCHAR
STARTCHAR L
ENCODING 76
SWIDTH 150 0
DWIDTH 3 0
BBX 10 14 0 0
BITMAP
C000
C000
C000
C000
C000
C000
C000
C000
C000
C000
C000
C000
FFC0
FFC0
ENDCHAR
STARTCHAR M
ENCODING 77
SWIDTH 150 0
DWIDTH 3 0
BBX 10 14 0 0
BITMAP
C0C0
E1C0
F3C0
FFC0
DEC0
CCC0
CCC0
CCC0
CCC0
C0C0
C0C0
C0C0
C0C0
C0C0
ENDCHAR
STARTCHAR N
ENCODING 78
SWIDTH 150 0
DWIDTH 3 0
BBX 10 14 0 0
BITMAP
C0C0
C0C0
E0C0
F0C0
F8C0
DCC0
CEC0
C7C0
C3C0
C1C0
C0C0
C0C0
C0C0
C0C0
ENDCHAR
STARTCHAR O
ENCODING 79
SWIDTH 150 0
DWIDTH 3 0
BBX 10 14 0 0
BITMAP
3F00
7F80
E1C0
C0C0
C0C0
C0C0
C0C0
C0C0
C0C0
C0C0
C0C0
E1C0
7F80
3F00
ENDCHAR
STARTCHAR P
ENCODING 80
SWIDTH 150 0
DWIDTH 3 0
BBX 10 14 0 0
BITMAP
FF00
FF80
C1C0
C0C0
C0C0
C1C0
FF80
FF00
C000
C000
C000
C000
C000
C000
ENDCHAR
STARTCHAR Q
ENCODING 81
SWIDTH 150 0
DWIDTH 3 0
BBX 10 14 0 0
BITMAP
3F00
7F80
E1C0
C0C0
C0C0
C0C0
C0C0
C0C0
C0C0
CCC0
CEC0
E7C0
7F80
3F00
ENDCHAR
STARTCHAR R
ENCODING 82
SWIDTH 150 0
DWIDTH 3 0
BBX 10 14 0 0
BITMAP
FF00
FF80
C1C0
C0C0
C0C0
C1C0
FF80
FF00
DC00
CE00
C700
C380
C1C0
C0C0
ENDCHAR
STARTCHAR S
ENCODING 83
SWIDTH 150 0
DWIDTH 3 0
BBX 10 14 0 0
BITMAP
3FC0
7FC0
E000
C000
C000
E000
7F00
3F80
01C0
00C0
00C0
01C0
FF80
FF00
ENDCHAR
STARTCHAR T
ENCODING 84
SWIDTH 150 0
DWIDTH 3 0
BBX 10 14 0 0
BITMAP
FFC0
FFC0
0C00
0C00
0C00
0C00
0C00
0C00
0C00
0C00
0C00
0C00
0C00
0C00
ENDCHAR
STARTCHAR U
ENCODING 85
SWIDTH 150 0
DWIDTH 3 0
BBX 10 14 0 0
BITMAP
C0C0
C0C0
C0C0
C0C0
C0C0
C0C0
C0C0
C0C0
C0C0
C0C0
C0C0
E1C0
7F80
3F00
ENDCHAR
STARTCHAR V
ENCODING 86
SWIDTH 150 0
DWIDTH 3 0
BBX 10 14 0 0
BITMAP
C0C0
C0C0
C0C0
C0C0
C0C0
C0C0
C0C0
C0C0
C0C0
E1C0
7380
3F00
1E00
0C00
ENDCHAR
STARTCHAR W
ENCODING 87
SWIDTH 150 0
DWIDTH 3 0
BBX 10 14 0 0
BITMAP
C0C0
C0C0
C0C0
C0C0
C0C0
CCC0
CCC0
CCC0
CCC0
DEC0
FFC0
F3C0
E1C0
C0C0
ENDCHAR
STARTCHAR X
ENCODING 88
SWIDTH 150 0
DWIDTH 3 0
BBX 10 14 0 0
BITMAP
C0C0
C0C0
E1C0
7380
3F00
1E00
0C00
1E00
3F00
7380
E1C0
C0C0
C0C0
C0C0
ENDCHAR
STARTCHAR Y
ENCODING 89
SWIDTH 150 0
DWIDTH 3 0
BBX 10 14 0 0
BITMAP
C0C0
C0C0
C0C0
C0C0
C0C0
E1C0
7380
3F00
1E00
0C00
0C00
0C00
0C00
0C00
ENDCHAR
STARTCHAR Z
ENCODING 90
SWIDTH 150 0
DWIDTH 3 0
BBX 10 14 0 0
BITMAP
FFC0
FFC0
01C0
01C0
0380
0700
0E00
1C00
3800
7000
E000
E000
FFC0
FFC0
ENDCHAR
STARTCHAR bracketleft
ENCODING 91
SWIDTH 480 0
DWIDTH 10 0
BBX 6 13 2 0
BITMAP
FC
C0
C0
C0
C0
C0
C0
C0
C0
C0
C0
C0
FC
ENDCHAR
STARTCHAR backslash
ENCODING 92
SWIDTH 480 0
DWIDTH 10 0
BBX 8 14 1 0
BITMAP
C0
C0
E0
60
70
30
38
18
1C
0C
0E
06
07
03
ENDCHAR
STARTCHAR bracketright
ENCODING 93
SWIDTH 480 0
DWIDTH 10 0
BBX 4 14 3 0
BITMAP
F0
F0
30
30
30
30
30
30
30
30
30
30
F0
F0
ENDCHAR
STARTCHAR underscore
ENCODING 95
SWIDTH 480 0
DWIDTH 10 0
BBX 10 2 0 -2
BITMAP
FFC0
FFC0
ENDCHAR
STARTCHAR a
ENCODING 97
SWIDTH 150 0
DWIDTH 3 0
BBX 10 10 0 0
BITMAP
3CC0
7FC0
E1C0
C0C0
C0C0
C0C0
C0C0
E1C0
7FC0
3EC0
ENDCHAR
STARTCHAR b
ENCODING 98
SWIDTH 150 0
DWIDTH 3 0
BBX 10 14 0 0
BITMAP
C000
C000
C000
C000
DF00
FF80
E1C0
C0C0
C0C0
C0C0
C0C0
E1C0
FF80
DF00
ENDCHAR
STARTCHAR c
ENCODING 99
SWIDTH 150 0
DWIDTH 3 0
BBX 10 10 0 0
BITMAP
3F00
7F80
E1C0
C0C0
C000
C000
C0C0
E1C0
7F80
3F00
ENDCHAR
STARTCHAR d
ENCODING 100
SWIDTH 150 0
DWIDTH 3 0
BBX 10 14 0 0
BITMAP
00C0
00C0
00C0
00C0
3EC0
7FC0
E1C0
C0C0
C0C0
C0C0
C0C0
E1C0
7FC0
3EC0
ENDCHAR
STARTCHAR e
ENCODING 101
SWIDTH 150 0
DWIDTH 3 0
BBX 10 10 0 0
BITMAP
3F00
7F80
E1C0
C0C0
FFC0
FF80
C000
E000
7F80
3F00
ENDCHAR
STARTCHAR f
ENCODING 102
SWIDTH 150 0
DWIDTH 3 0
BBX 8 15 1 0
BITMAP
0F
1F
38
30
30
FF
FF
30
30
30
30
30
30
30
30
ENDCHAR
STARTCHAR g
ENCODING 103
SWIDTH 150 0
DWIDTH 3 0
BBX 10 14 0 -4
BITMAP
3EC0
7FC0
E1C0
C0C0
C0C0
C0C0
C0C0
E1C0
7FC0
3EC0
00C0
E1C0
7F80
3F00
ENDCHAR
STARTCHAR h
ENCODING 104
SWIDTH 150 0
DWIDTH 3 0
BBX 10 14 0 0
BITMAP
C000
C000
C000
C000
DF00
FF80
E1C0
C0C0
C0C0
C0C0
C0C0
C0C0
C0C0
C0C0
ENDCHAR
STARTCHAR i
ENCODING 105
SWIDTH 150 0
DWIDTH 3 0
BBX 6 14 2 0
BITMAP
30
30
00
00
F0
F0
30
30
30
30
30
30
FC
FC
ENDCHAR
STARTCHAR j
ENCODING 106
SWIDTH 150 0
DWIDTH 3 0
BBX 5 17 1 -3
BITMAP
18
18
00
00
18
18
18
18
18
18
18
18
18
18
38
F0
F0
ENDCHAR
STARTCHAR k
ENCODING 107
SWIDTH 150 0
DWIDTH 3 0
BBX 10 14 0 0
BITMAP
C000
C000
C000
C000
C180
C380
C700
CE00
DC00
FE00
F700
E380
C1C0
C0C0
ENDCHAR
STARTCHAR l
ENCODING 108
SWIDTH 300 0
DWIDTH 6 0
BBX 6 14 0 0
BITMAP
C0
C0
C0
C0
C0
C0
C0
C0
C0
C0
C0
E0
7C
3C
ENDCHAR
STARTCHAR m
ENCODING 109
SWIDTH 150 0
DWIDTH 3 0
BBX 10 10 0 0
BITMAP
C0C0
E1C0
F3C0
FFC0
DEC0
CCC0
CCC0
C0C0
C0C0
C0C0
ENDCHAR
STARTCHAR n
ENCODING 110
SWIDTH 150 0
DWIDTH 3 0
BBX 10 10 0 0
BITMAP
DF00
FF80
E0C0
C0C0
C0C0
C0C0
C0C0
C0C0
C0C0
C0C0
ENDCHAR
STARTCHAR o
ENCODING 111
SWIDTH 150 0
DWIDTH 3 0
BBX 10 10 0 0
BITMAP
3F00
7F80
E1C0
C0C0
C0C0
C0C0
C0C0
E1C0
7F80
3F00
ENDCHAR
STARTCHAR p
ENCODING 112
SWIDTH 150 0
DWIDTH 3 0
BBX 10 14 0 -4
BITMAP
DF00
FF80
E1C0
C0C0
C0C0
C0C0
C0C0
E1C0
FF80
DF00
C000
C000
C000
C000
ENDCHAR
STARTCHAR q
ENCODING 113
SWIDTH 150 0
DWIDTH 3 0
BBX 10 14 0 -4
BITMAP
3EC0
7FC0
E1C0
C0C0
C0C0
C0C0
C0C0
E1C0
7FC0
3EC0
00C0
00C0
00C0
00C0
ENDCHAR
STARTCHAR r
ENCODING 114
SWIDTH 150 0
DWIDTH 3 0
BBX 10 10 0 0
BITMAP
DF00
FF80
E1C0
C0C0
C000
C000
C000
C000
C000
C000
ENDCHAR
STARTCHAR s
ENCODING 115
SWIDTH 150 0
DWIDTH 3 0
BBX 10 10 0 0
BITMAP
3F80
7FC0
E000
C000
7F00
3F80
00C0
01C0
FF80
7F00
ENDCHAR
STARTCHAR t
ENCODING 116
SWIDTH 150 0
DWIDTH 3 0
BBX 10 14 0 0
BITMAP
3000
3000
3000
3000
FF00
FF00
3000
3000
3000
3000
30C0
39C0
1F80
0F00
ENDCHAR
STARTCHAR u
ENCODING 117
SWIDTH 150 0
DWIDTH 3 0
BBX 10 10 0 0
BITMAP
C0C0
C0C0
C0C0
C0C0
C0C0
C0C0
C0C0
E1C0
7FC0
3EC0
ENDCHAR
STARTCHAR v
ENCODING 118
SWIDTH 150 0
DWIDTH 3 0
BBX 10 10 0 0
BITMAP
C0C0
C0C0
C0C0
C0C0
C0C0
E1C0
7380
3F00
1E00
0C00
ENDCHAR
STARTCHAR w
ENCODING 119
SWIDTH 150 0
DWIDTH 3 0
BBX 10 10 0 0
BITMAP
C0C0
C0C0
CCC0
CCC0
CCC0
DEC0
FFC0
F3C0
E1C0
C0C0
ENDCHAR
STARTCHAR x
ENCODING 120
SWIDTH 150 0
DWIDTH 3 0
BBX 10 10 0 0
BITMAP
C0C0
E1C0
7380
3F00
1E00
1E00
3F00
7380
E1C0
C0C0
ENDCHAR
STARTCHAR y
ENCODING 121
SWIDTH 150 0
DWIDTH 3 0
BBX 10 14 0 -4
BITMAP
C0C0
C0C0
C0C0
C0C0
C0C0
E1C0
7380
3F00
1E00
1C00
3800
7000
E000
C000
ENDCHAR
STARTCHAR z
ENCODING 122
SWIDTH 150 0
DWIDTH 3 0
BBX 10 10 0 0
BITMAP
FFC0
FFC0
0380
0700
0E00
1C00
3800
7000
FFC0
FFC0
ENDCHAR
STARTCHAR braceleft
ENCODING 123
SWIDTH 480 0
DWIDTH 10 0
BBX 8 13 1 0
BITMAP
0F
18
18
18
18
18
F0
18
18
18
18
18
0F
ENDCHAR
STARTCHAR bar
ENCODING 124
SWIDTH 480 0
DWIDTH 10 0
BBX 2 13 4 0
BITMAP
C0
C0
C0
C0
C0
C0
C0
C0
C0
C0
C0
C0
C0
ENDCHAR
STARTCHAR braceright
ENCODING 125
SWIDTH 480 0
DWIDTH 10 0
BBX 8 13 1 0
BITMAP
F0
18
18
18
18
18
0F
18
18
18
18
18
F0
ENDCHAR
STARTCHAR asciitilde
ENCODING 126
SWIDTH 480 0
DWIDTH 10 0
BBX 8 3 1 10
BITMAP
73
DB
CE
ENDCHAR
STARTCHAR exclamdown
ENCODING 161
SWIDTH 480 0
DWIDTH 10 0
BBX 2 13 4 0
BITMAP
C0
C0
00
C0
C0
C0
C0
C0
C0
C0
C0
C0
C0
ENDCHAR
STARTCHAR cent
ENCODING 162
SWIDTH 480 0
DWIDTH 10 0
BBX 7 12 1 0
BITMAP
18
18
3C
66
C2
C0
C0
C2
66
3C
18
18
ENDCHAR
STARTCHAR sterling
ENCODING 163
SWIDTH 480 0
DWIDTH 10 0
BBX 10 14 0 0
BITMAP
3F00
7F80
E1C0
C0C0
E000
7000
FF00
FF00
3800
7000
E000
C000
FFC0
FFC0
ENDCHAR
STARTCHAR currency
ENCODING 164
SWIDTH 480 0
DWIDTH 10 0
BBX 9 9 0 1
BITMAP
8080
DD80
7F00
6300
6300
6300
7F00
DD80
8080
ENDCHAR
STARTCHAR yen
ENCODING 165
SWIDTH 480 0
DWIDTH 10 0
BBX 10 14 0 0
BITMAP
C0C0
C0C0
E1C0
7380
3F00
1E00
7F80
7F80
0C00
7F80
7F80
0C00
0C00
0C00
ENDCHAR
STARTCHAR brokenbar
ENCODING 166
SWIDTH 480 0
DWIDTH 10 0
BBX 2 13 4 0
BITMAP
C0
C0
C0
C0
C0
00
00
00
C0
C0
C0
C0
C0
ENDCHAR
STARTCHAR section
ENCODING 167
SWIDTH 480 0
DWIDTH 10 0
BBX 8 13 1 0
BITMAP
3C
66
C6
60
78
CC
66
33
1E
06
63
66
3C
ENDCHAR
STARTCHAR dieresis
ENCODING 168
SWIDTH 480 0
DWIDTH 10 0
BBX 6 2 2 11
BITMAP
CC
CC
ENDCHAR
STARTCHAR copyright
ENCODING 169
SWIDTH 480 0
DWIDTH 10 0
BBX 8 6 1 6
BITMAP
7E
00
00
00
00
FF
ENDCHAR
STARTCHAR ordfeminine
ENCODING 170
SWIDTH 480 0
DWIDTH 10 0
BBX 8 9 1 4
BITMAP
3E
43
03
7F
C3
C3
7D
00
FF
ENDCHAR
STARTCHAR guillemotleft
ENCODING 171
SWIDTH 480 0
DWIDTH 10 0
BBX 9 11 0 0
BITMAP
0480
0D80
1B00
3600
6C00
D800
6C00
3600
1B00
0D80
0480
ENDCHAR
STARTCHAR logicalnot
ENCODING 172
SWIDTH 480 0
DWIDTH 10 0
BBX 8 4 1 4
BITMAP
FF
FF
03
03
ENDCHAR
STARTCHAR registered
ENCODING 174
SWIDTH 480 0
DWIDTH 10 0
BBX 10 10 0 2
BITMAP
3F00
7F80
E1C0
DCC0
D6C0
DCC0
D6C0
E1C0
7F80
3F00
ENDCHAR
STARTCHAR macron
ENCODING 175
SWIDTH 480 0
DWIDTH 10 0
BBX 8 1 1 13
BITMAP
FF
ENDCHAR
STARTCHAR degree
ENCODING 176
SWIDTH 480 0
DWIDTH 10 0
BBX 6 6 2 7
BITMAP
30
78
CC
CC
78
30
ENDCHAR
STARTCHAR plusminus
ENCODING 177
SWIDTH 480 0
DWIDTH 10 0
BBX 8 7 1 2
BITMAP
18
18
FF
18
18
00
FF
ENDCHAR
STARTCHAR twosuperior
ENCODING 178
SWIDTH 480 0
DWIDTH 10 0
BBX 5 7 2 6
BITMAP
70
D8
18
30
60
C0
F8
ENDCHAR
STARTCHAR threesuperior
ENCODING 179
SWIDTH 480 0
DWIDTH 10 0
BBX 5 7 2 6
BITMAP
70
D8
18
30
18
D8
70
ENDCHAR
STARTCHAR acute
ENCODING 180
SWIDTH 480 0
DWIDTH 10 0
BBX 4 3 3 10
BITMAP
30
60
C0
ENDCHAR
STARTCHAR paragraph
ENCODING 182
SWIDTH 480 0
DWIDTH 10 0
BBX 8 13 1 0
BITMAP
7F
FF
FB
FB
FB
7B
1B
1B
1B
1B
1B
1B
1B
ENDCHAR
STARTCHAR periodcentered
ENCODING 183
SWIDTH 480 0
DWIDTH 10 0
BBX 4 4 3 5
BITMAP
60
F0
F0
60
ENDCHAR
STARTCHAR cedilla
ENCODING 184
SWIDTH 480 0
DWIDTH 10 0
BBX 5 4 2 -4
BITMAP
30
18
D8
70
ENDCHAR
STARTCHAR onesuperior
ENCODING 185
SWIDTH 480 0
DWIDTH 10 0
BBX 4 7 2 6
BITMAP
60
E0
60
60
60
60
F0
ENDCHAR
STARTCHAR ordmasculine
ENCODING 186
SWIDTH 480 0
DWIDTH 10 0
BBX 7 9 1 4
BITMAP
38
6C
C6
C6
C6
6C
38
00
FE
ENDCHAR
STARTCHAR guillemotright
ENCODING 187
SWIDTH 480 0
DWIDTH 10 0
BBX 9 11 1 0
BITMAP
9000
D800
6C00
3600
1B00
0D80
1B00
3600
6C00
D800
9000
ENDCHAR
STARTCHAR onequarter
ENCODING 188
SWIDTH 480 0
DWIDTH 10 0
BBX 8 12 1 1
BITMAP
40
C0
41
42
E4
08
12
26
4A
9E
02
02
ENDCHAR
STARTCHAR onehalf
ENCODING 189
SWIDTH 480 0
DWIDTH 10 0
BBX 8 12 1 1
BITMAP
40
C0
41
42
E4
08
16
29
41
82
04
0F
ENDCHAR
STARTCHAR threequarters
ENCODING 190
SWIDTH 480 0
DWIDTH 10 0
BBX 8 12 1 1
BITMAP
E0
10
61
12
E4
08
12
26
4A
9F
02
02
ENDCHAR
STARTCHAR questiondown
ENCODING 191
SWIDTH 480 0
DWIDTH 10 0
BBX 8 13 1 0
BITMAP
18
18
00
18
18
18
30
60
C3
C3
C3
66
3C
ENDCHAR
STARTCHAR Agrave
ENCODING 192
SWIDTH 480 0
DWIDTH 10 0
BBX 10 18 0 0
BITMAP
1000
0800
0400
0000
3F00
7F80
E1C0
C0C0
C0C0
C0C0
FFC0
FFC0
C0C0
C0C0
C0C0
C0C0
C0C0
C0C0
ENDCHAR
STARTCHAR Aacute
ENCODING 193
SWIDTH 480 0
DWIDTH 10 0
BBX 10 18 0 0
BITMAP
0100
0200
0400
0000
3F00
7F80
E1C0
C0C0
C0C0
C0C0
FFC0
FFC0
C0C0
C0C0
C0C0
C0C0
C0C0
C0C0
ENDCHAR
STARTCHAR Acircumflex
ENCODING 194
SWIDTH 480 0
DWIDTH 10 0
BBX 10 18 0 0
BITMAP
0C00
1200
2100
0000
3F00
7F80
E1C0
C0C0
C0C0
C0C0
FFC0
FFC0
C0C0
C0C0
C0C0
C0C0
C0C0
C0C0
ENDCHAR
STARTCHAR Atilde
ENCODING 195
SWIDTH 480 0
DWIDTH 10 0
BBX 10 18 0 0
BITMAP
1000
2A00
0400
0000
3F00
7F80
E1C0
C0C0
C0C0
C0C0
FFC0
FFC0
C0C0
C0C0
C0C0
C0C0
C0C0
C0C0
ENDCHAR
STARTCHAR Adieresis
ENCODING 196
SWIDTH 480 0
DWIDTH 10 0
BBX 10 17 0 0
BITMAP
6180
6180
0000
3F00
7F80
E1C0
C0C0
C0C0
C0C0
FFC0
FFC0
C0C0
C0C0
C0C0
C0C0
C0C0
C0C0
ENDCHAR
STARTCHAR Aring
ENCODING 197
SWIDTH 480 0
DWIDTH 10 0
BBX 10 19 0 0
BITMAP
0C00
1200
1200
0C00
0000
3F00
7F80
E1C0
C0C0
C0C0
C0C0
FFC0
FFC0
C0C0
C0C0
C0C0
C0C0
C0C0
C0C0
ENDCHAR
STARTCHAR AE
ENCODING 198
SWIDTH 480 0
DWIDTH 10 0
BBX 10 14 0 0
BITMAP
3FC0
7FC0
E600
C600
C600
C600
FFC0
FFC0
C600
C600
C600
C600
C7C0
C7C0
ENDCHAR
STARTCHAR Ccedilla
ENCODING 199
SWIDTH 480 0
DWIDTH 10 0
BBX 8 17 1 -4
BITMAP
3C
66
C3
C0
C0
C0
C0
C0
C0
C0
C3
66
3C
18
0C
6C
38
ENDCHAR
STARTCHAR Egrave
ENCODING 200
SWIDTH 480 0
DWIDTH 10 0
BBX 10 18 0 0
BITMAP
1800
0C00
0600
0000
FFC0
FFC0
C000
C000
C000
C000
FF00
FF00
C000
C000
C000
C000
FFC0
FFC0
ENDCHAR
STARTCHAR Eacute
ENCODING 201
SWIDTH 480 0
DWIDTH 10 0
BBX 10 18 0 0
BITMAP
0600
0C00
1800
0000
FFC0
FFC0
C000
C000
C000
C000
FF00
FF00
C000
C000
C000
C000
FFC0
FFC0
ENDCHAR
STARTCHAR Ecircumflex
ENCODING 202
SWIDTH 480 0
DWIDTH 10 0
BBX 10 18 0 0
BITMAP
0C00
1E00
3300
0000
FFC0
FFC0
C000
C000
C000
C000
FF00
FF00
C000
C000
C000
C000
FFC0
FFC0
ENDCHAR
STARTCHAR Edieresis
ENCODING 203
SWIDTH 480 0
DWIDTH 10 0
BBX 10 17 0 0
BITMAP
3300
3300
0000
FFC0
FFC0
C000
C000
C000
C000
FF00
FF00
C000
C000
C000
C000
FFC0
FFC0
ENDCHAR
STARTCHAR Igrave
ENCODING 204
SWIDTH 480 0
DWIDTH 10 0
BBX 6 18 2 0
BITMAP
60
30
18
00
FC
FC
30
30
30
30
30
30
30
30
30
30
FC
FC
ENDCHAR
STARTCHAR Iacute
ENCODING 205
SWIDTH 480 0
DWIDTH 10 0
BBX 6 18 2 0
BITMAP
18
30
60
00
FC
FC
30
30
30
30
30
30
30
30
30
30
FC
FC
ENDCHAR
STARTCHAR Icircumflex
ENCODING 206
SWIDTH 480 0
DWIDTH 10 0
BBX 6 18 2 0
BITMAP
30
78
CC
00
FC
FC
30
30
30
30
30
30
30
30
30
30
FC
FC
ENDCHAR
STARTCHAR Idieresis
ENCODING 207
SWIDTH 480 0
DWIDTH 10 0
BBX 6 17 2 0
BITMAP
CC
CC
00
FC
FC
30
30
30
30
30
30
30
30
30
30
FC
FC
ENDCHAR
STARTCHAR Eth
ENCODING 208
SWIDTH 480 0
DWIDTH 10 0
BBX 11 14 -1 0
BITMAP
7F80
7FC0
60E0
6060
6060
6060
F860
F860
6060
6060
6060
60E0
7FC0
7F80
ENDCHAR
STARTCHAR Ntilde
ENCODING 209
SWIDTH 480 0
DWIDTH 10 0
BBX 10 17 0 0
BITMAP
1900
3F00
2600
C0C0
C0C0
E0C0
F0C0
F8C0
DCC0
CEC0
C7C0
C3C0
C1C0
C0C0
C0C0
C0C0
C0C0
ENDCHAR
STARTCHAR Ograve
ENCODING 210
SWIDTH 480 0
DWIDTH 10 0
BBX 10 18 0 0
BITMAP
1800
0C00
0600
0000
3F00
7F80
E1C0
C0C0
C0C0
C0C0
C0C0
C0C0
C0C0
C0C0
C0C0
E1C0
7F80
3F00
ENDCHAR
STARTCHAR Oacute
ENCODING 211
SWIDTH 480 0
DWIDTH 10 0
BBX 10 18 0 0
BITMAP
0600
0C00
1800
0000
3F00
7F80
E1C0
C0C0
C0C0
C0C0
C0C0
C0C0
C0C0
C0C0
C0C0
E1C0
7F80
3F00
ENDCHAR
STARTCHAR Ocircumflex
ENCODING 212
SWIDTH 480 0
DWIDTH 10 0
BBX 10 18 0 0
BITMAP
0C00
1E00
3300
0000
3F00
7F80
E1C0
C0C0
C0C0
C0C0
C0C0
C0C0
C0C0
C0C0
C0C0
E1C0
7F80
3F00
ENDCHAR
STARTCHAR Otilde
ENCODING 213
SWIDTH 480 0
DWIDTH 10 0
BBX 10 18 0 0
BITMAP
1900
3F00
2600
0000
3F00
7F80
E1C0
C0C0
C0C0
C0C0
C0C0
C0C0
C0C0
C0C0
C0C0
E1C0
7F80
3F00
ENDCHAR
STARTCHAR Odieresis
ENCODING 214
SWIDTH 480 0
DWIDTH 10 0
BBX 10 17 0 0
BITMAP
3300
3300
0000
3F00
7F80
E1C0
C0C0
C0C0
C0C0
C0C0
C0C0
C0C0
C0C0
C0C0
E1C0
7F80
3F00
ENDCHAR
STARTCHAR multiply
ENCODING 215
SWIDTH 480 0
DWIDTH 10 0
BBX 7 8 1 0
BITMAP
82
C6
6C
38
38
6C
C6
82
ENDCHAR
STARTCHAR Oslash
ENCODING 216
SWIDTH 480 0
DWIDTH 10 0
BBX 10 18 0 -2
BITMAP
0040
0080
3F80
7F80
E1C0
C2C0
C2C0
C4C0
C4C0
C8C0
C8C0
D0C0
D0C0
E1C0
3F80
7F00
4000
8000
ENDCHAR
STARTCHAR Ugrave
ENCODING 217
SWIDTH 480 0
DWIDTH 10 0
BBX 10 17 0 0
BITMAP
1800
0C00
0600
C0C0
C0C0
C0C0
C0C0
C0C0
C0C0
C0C0
C0C0
C0C0
C0C0
C0C0
E1C0
7F80
3F00
ENDCHAR
STARTCHAR Uacute
ENCODING 218
SWIDTH 480 0
DWIDTH 10 0
BBX 10 17 0 0
BITMAP
0600
0C00
1800
C0C0
C0C0
C0C0
C0C0
C0C0
C0C0
C0C0
C0C0
C0C0
C0C0
C0C0
E1C0
7F80
3F00
ENDCHAR
STARTCHAR Ucircumflex
ENCODING 219
SWIDTH 480 0
DWIDTH 10 0
BBX 10 17 0 0
BITMAP
0C00
1E00
3300
C0C0
C0C0
C0C0
C0C0
C0C0
C0C0
C0C0
C0C0
C0C0
C0C0
C0C0
E1C0
7F80
3F00
ENDCHAR
STARTCHAR Udieresis
ENCODING 220
SWIDTH 480 0
DWIDTH 10 0
BBX 10 17 0 0
BITMAP
3300
3300
0000
C0C0
C0C0
C0C0
C0C0
C0C0
C0C0
C0C0
C0C0
C0C0
C0C0
C0C0
E1C0
7F80
3F00
ENDCHAR
STARTCHAR Yacute
ENCODING 221
SWIDTH 480 0
DWIDTH 10 0
BBX 10 17 0 0
BITMAP
0600
0C00
1800
C0C0
C0C0
C0C0
C0C0
C0C0
E1C0
7380
3F00
1E00
0C00
0C00
0C00
0C00
0C00
ENDCHAR
STARTCHAR Thorn
ENCODING 222
SWIDTH 480 0
DWIDTH 10 0
BBX 7 13 2 0
BITMAP
C0
C0
C0
FC
C6
C6
C6
C6
C6
FC
C0
C0
C0
ENDCHAR
STARTCHAR germandbls
ENCODING 223
SWIDTH 480 0
DWIDTH 10 0
BBX 9 14 1 0
BITMAP
3E00
7F00
C380
C180
C380
CF00
CF00
C380
C180
C180
C180
C180
CF00
CE00
ENDCHAR
STARTCHAR agrave
ENCODING 224
SWIDTH 480 0
DWIDTH 10 0
BBX 10 14 0 0
BITMAP
1800
0C00
0600
0000
3EC0
7FC0
E1C0
C0C0
C0C0
C0C0
C0C0
E1C0
7FC0
3EC0
ENDCHAR
STARTCHAR aacute
ENCODING 225
SWIDTH 480 0
DWIDTH 10 0
BBX 10 14 0 0
BITMAP
0300
0600
0C00
0000
3EC0
7FC0
E1C0
C0C0
C0C0
C0C0
C0C0
E1C0
7FC0
3EC0
ENDCHAR
STARTCHAR acircumflex
ENCODING 226
SWIDTH 480 0
DWIDTH 10 0
BBX 10 14 0 0
BITMAP
0E00
1B00
3180
0000
3EC0
7FC0
E1C0
C0C0
C0C0
C0C0
C0C0
E1C0
7FC0
3EC0
ENDCHAR
STARTCHAR atilde
ENCODING 227
SWIDTH 480 0
DWIDTH 10 0
BBX 10 14 0 0
BITMAP
1900
3F00
2600
0000
3EC0
7FC0
E1C0
C0C0
C0C0
C0C0
C0C0
E1C0
7FC0
3EC0
ENDCHAR
STARTCHAR adieresis
ENCODING 228
SWIDTH 480 0
DWIDTH 10 0
BBX 10 14 0 0
BITMAP
6180
6180
0000
0000
3EC0
7FC0
E1C0
C0C0
C0C0
C0C0
C0C0
E1C0
7FC0
3EC0
ENDCHAR
STARTCHAR aring
ENCODING 229
SWIDTH 480 0
DWIDTH 10 0
BBX 10 15 0 0
BITMAP
0C00
1200
1200
0C00
0000
3EC0
7FC0
E1C0
C0C0
C0C0
C0C0
C0C0
E1C0
7FC0
3EC0
ENDCHAR
STARTCHAR ae
ENCODING 230
SWIDTH 480 0
DWIDTH 10 0
BBX 8 8 1 0
BITMAP
76
9B
1B
1E
78
D8
D9
6E
ENDCHAR
STARTCHAR ccedilla
ENCODING 231
SWIDTH 480 0
DWIDTH 10 0
BBX 10 14 0 -4
BITMAP
3F00
7F80
E1C0
C0C0
C000
C000
C0C0
E1C0
7F80
3F00
0C00
0600
3600
1C00
ENDCHAR
STARTCHAR egrave
ENCODING 232
SWIDTH 480 0
DWIDTH 10 0
BBX 10 14 0 0
BITMAP
1800
0C00
0600
0000
3F00
7F80
E1C0
C0C0
FFC0
FF80
C000
E000
7F80
3F00
ENDCHAR
STARTCHAR eacute
ENCODING 233
SWIDTH 480 0
DWIDTH 10 0
BBX 10 13 0 0
BITMAP
0600
0C00
0000
3F00
7F80
E1C0
C0C0
FFC0
FF80
C000
E000
7F80
3F00
ENDCHAR
STARTCHAR ecircumflex
ENCODING 234
SWIDTH 480 0
DWIDTH 10 0
BBX 10 14 0 0
BITMAP
0E00
1B00
3180
0000
3F00
7F80
E1C0
C0C0
FFC0
FF80
C000
E000
7F80
3F00
ENDCHAR
STARTCHAR edieresis
ENCODING 235
SWIDTH 480 0
DWIDTH 10 0
BBX 10 14 0 0
BITMAP
6180
6180
0000
0000
3F00
7F80
E1C0
C0C0
FFC0
FF80
C000
E000
7F80
3F00
ENDCHAR
STARTCHAR igrave
ENCODING 236
SWIDTH 480 0
DWIDTH 10 0
BBX 6 14 2 0
BITMAP
C0
60
30
00
F0
F0
30
30
30
30
30
30
FC
FC
ENDCHAR
STARTCHAR iacute
ENCODING 237
SWIDTH 480 0
DWIDTH 10 0
BBX 8 14 1 0
BITMAP
06
0C
18
00
78
78
18
18
18
18
18
18
7E
FF
ENDCHAR
STARTCHAR icircumflex
ENCODING 238
SWIDTH 480 0
DWIDTH 10 0
BBX 8 14 1 0
BITMAP
38
6C
C6
00
78
78
18
18
18
18
18
18
7E
FF
ENDCHAR
STARTCHAR idieresis
ENCODING 239
SWIDTH 480 0
DWIDTH 10 0
BBX 7 13 1 0
BITMAP
C6
C6
00
78
78
18
18
18
18
18
18
7E
7E
ENDCHAR
STARTCHAR eth
ENCODING 240
SWIDTH 480 0
DWIDTH 10 0
BBX 8 13 1 0
BITMAP
88
D8
70
70
D8
8C
3E
67
C3
C3
C3
66
3C
ENDCHAR
STARTCHAR ntilde
ENCODING 241
SWIDTH 480 0
DWIDTH 10 0
BBX 10 14 0 0
BITMAP
1900
3F00
2600
0000
DF00
FF80
E1C0
C0C0
C0C0
C0C0
C0C0
C0C0
C0C0
C0C0
ENDCHAR
STARTCHAR ograve
ENCODING 242
SWIDTH 480 0
DWIDTH 10 0
BBX 10 14 0 0
BITMAP
1800
0C00
0600
0000
3F00
7F80
E1C0
C0C0
C0C0
C0C0
C0C0
E1C0
7F80
3F00
ENDCHAR
STARTCHAR oacute
ENCODING 243
SWIDTH 480 0
DWIDTH 10 0
BBX 10 14 0 0
BITMAP
0300
0600
0C00
0000
3F00
7F80
E1C0
C0C0
C0C0
C0C0
C0C0
E1C0
7F80
3F00
ENDCHAR
STARTCHAR ocircumflex
ENCODING 244
SWIDTH 480 0
DWIDTH 10 0
BBX 7 11 1 3
BITMAP
38
00
00
00
00
6C
00
00
00
00
C6
ENDCHAR
STARTCHAR otilde
ENCODING 245
SWIDTH 480 0
DWIDTH 10 0
BBX 10 14 0 0
BITMAP
1900
3F00
2600
0000
3F00
7F80
E1C0
C0C0
C0C0
C0C0
C0C0
E1C0
7F80
3F00
ENDCHAR
STARTCHAR odieresis
ENCODING 246
SWIDTH 480 0
DWIDTH 10 0
BBX 10 13 0 0
BITMAP
3300
3300
0000
3F00
7F80
E1C0
C0C0
C0C0
C0C0
C0C0
E1C0
7F80
3F00
ENDCHAR
STARTCHAR divide
ENCODING 247
SWIDTH 480 0
DWIDTH 10 0
BBX 8 10 1 1
BITMAP
18
18
00
00
FF
FF
00
00
18
18
ENDCHAR
STARTCHAR oslash
ENCODING 248
SWIDTH 480 0
DWIDTH 10 0
BBX 11 12 -1 -1
BITMAP
0020
1FE0
3FC0
71E0
6360
6660
6C60
7860
70E0
7FC0
DF80
8000
ENDCHAR
STARTCHAR ugrave
ENCODING 249
SWIDTH 480 0
DWIDTH 10 0
BBX 10 14 0 0
BITMAP
1800
0C00
0600
0000
C0C0
C0C0
C0C0
C0C0
C0C0
C0C0
C0C0
E1C0
7FC0
3EC0
ENDCHAR
STARTCHAR uacute
ENCODING 250
SWIDTH 480 0
DWIDTH 10 0
BBX 10 14 0 0
BITMAP
0300
0600
0C00
0000
C0C0
C0C0
C0C0
C0C0
C0C0
C0C0
C0C0
E1C0
7FC0
3EC0
ENDCHAR
STARTCHAR ucircumflex
ENCODING 251
SWIDTH 480 0
DWIDTH 10 0
BBX 10 14 0 0
BITMAP
0C00
1E00
3300
0000
C0C0
C0C0
C0C0
C0C0
C0C0
C0C0
C0C0
E1C0
7FC0
3EC0
ENDCHAR
STARTCHAR udieresis
ENCODING 252
SWIDTH 480 0
DWIDTH 10 0
BBX 10 13 0 0
BITMAP
3300
3300
0000
C0C0
C0C0
C0C0
C0C0
C0C0
C0C0
C0C0
E1C0
7FC0
3EC0
ENDCHAR
STARTCHAR yacute
ENCODING 253
SWIDTH 480 0
DWIDTH 10 0
BBX 10 18 0 -4
BITMAP
0600
0C00
1800
0000
C0C0
C0C0
C0C0
C0C0
C0C0
E1C0
7380
3F00
1E00
1C00
3800
7000
E000
C000
ENDCHAR
STARTCHAR thorn
ENCODING 254
SWIDTH 480 0
DWIDTH 10 0
BBX 7 17 2 -4
BITMAP
C0
C0
C0
C0
C0
C0
F8
CC
C6
C6
C6
CC
F8
C0
C0
C0
C0
ENDCHAR
STARTCHAR ydieresis
ENCODING 255
SWIDTH 480 0
DWIDTH 10 0
BBX 10 17 0 -4
BITMAP
3300
3300
0000
C0C0
C0C0
C0C0
C0C0
C0C0
E1C0
7380
3F00
1E00
1C00
3800
7000
E000
C000
ENDCHAR
STARTCHAR Amacron
ENCODING 256
SWIDTH 480 0
DWIDTH 10 0
BBX 8 15 1 0
BITMAP
FF
00
18
3C
66
66
C3
C3
C3
FF
C3
C3
C3
C3
C3
ENDCHAR
STARTCHAR amacron
ENCODING 257
SWIDTH 480 0
DWIDTH 10 0
BBX 8 10 1 0
BITMAP
FF
00
3E
63
03
7F
C3
C3
C3
7D
ENDCHAR
STARTCHAR Abreve
ENCODING 258
SWIDTH 480 0
DWIDTH 10 0
BBX 8 15 1 0
BITMAP
42
66
3C
00
3C
66
66
C3
C3
C3
FF
C3
C3
C3
C3
ENDCHAR
STARTCHAR abreve
ENCODING 259
SWIDTH 480 0
DWIDTH 10 0
BBX 8 12 1 0
BITMAP
42
66
3C
00
3E
63
03
7F
C3
C3
C3
7D
ENDCHAR
STARTCHAR Aogonek
ENCODING 260
SWIDTH 480 0
DWIDTH 10 0
BBX 9 16 1 -3
BITMAP
1800
3C00
6600
6600
C300
C300
C300
FF00
C300
C300
C300
C300
C300
0700
0600
0380
ENDCHAR
STARTCHAR aogonek
ENCODING 261
SWIDTH 480 0
DWIDTH 10 0
BBX 9 12 1 -4
BITMAP
3E00
6300
0300
7F00
C300
C300
C300
7D00
0180
0380
0300
0180
ENDCHAR
STARTCHAR Cacute
ENCODING 262
SWIDTH 480 0
DWIDTH 10 0
BBX 8 15 1 0
BITMAP
06
0C
18
00
3C
66
C3
C0
C0
C0
C0
C0
C3
66
3C
ENDCHAR
STARTCHAR cacute
ENCODING 263
SWIDTH 480 0
DWIDTH 10 0
BBX 8 12 1 0
BITMAP
06
0C
18
00
3E
63
C0
C0
C0
C0
63
3E
ENDCHAR
STARTCHAR Ccircumflex
ENCODING 264
SWIDTH 480 0
DWIDTH 10 0
BBX 8 15 1 0
BITMAP
18
3C
66
00
3C
66
C3
C0
C0
C0
C0
C0
C3
66
3C
ENDCHAR
STARTCHAR ccircumflex
ENCODING 265
SWIDTH 480 0
DWIDTH 10 0
BBX 8 12 1 0
BITMAP
18
3C
66
00
3E
63
C0
C0
C0
C0
63
3E
ENDCHAR
STARTCHAR Cdotaccent
ENCODING 266
SWIDTH 480 0
DWIDTH 10 0
BBX 8 15 1 0
BITMAP
18
18
00
3C
66
C3
C0
C0
C0
C0
C0
C0
C3
66
3C
ENDCHAR
STARTCHAR cdotaccent
ENCODING 267
SWIDTH 480 0
DWIDTH 10 0
BBX 8 11 1 0
BITMAP
18
18
00
3E
63
C0
C0
C0
C0
63
3E
ENDCHAR
STARTCHAR Ccaron
ENCODING 268
SWIDTH 480 0
DWIDTH 10 0
BBX 8 15 1 0
BITMAP
66
3C
18
00
3C
66
C3
C0
C0
C0
C0
C0
C3
66
3C
ENDCHAR
STARTCHAR ccaron
ENCODING 269
SWIDTH 480 0
DWIDTH 10 0
BBX 8 12 1 0
BITMAP
66
3C
18
00
3E
63
C0
C0
C0
C0
63
3E
ENDCHAR
STARTCHAR Dcaron
ENCODING 270
SWIDTH 480 0
DWIDTH 10 0
BBX 8 15 1 0
BITMAP
66
3C
18
00
FC
C6
C3
C3
C3
C3
C3
C3
C3
C6
FC
ENDCHAR
STARTCHAR dcaron
ENCODING 271
SWIDTH 480 0
DWIDTH 10 0
BBX 8 15 1 0
BITMAP
CC
78
33
03
03
03
03
3B
67
C3
C3
C3
C3
67
3B
ENDCHAR
STARTCHAR Dcroat
ENCODING 272
SWIDTH 480 0
DWIDTH 10 0
BBX 9 13 0 0
BITMAP
7E00
6300
6180
6180
6180
6180
F980
6180
6180
6180
6180
6300
7E00
ENDCHAR
STARTCHAR dcroat
ENCODING 273
SWIDTH 480 0
DWIDTH 10 0
BBX 9 13 1 0
BITMAP
0300
0300
0300
0F80
0300
3B00
6700
C300
C300
C300
C300
6700
3B00
ENDCHAR
STARTCHAR Emacron
ENCODING 274
SWIDTH 480 0
DWIDTH 10 0
BBX 8 15 1 0
BITMAP
FF
00
FF
C0
C0
C0
C0
C0
FC
C0
C0
C0
C0
C0
FF
ENDCHAR
STARTCHAR emacron
ENCODING 275
SWIDTH 480 0
DWIDTH 10 0
BBX 10 12 0 0
BITMAP
7F80
0000
3F00
7F80
E1C0
C0C0
FFC0
FF80
C000
E000
7F80
3F00
ENDCHAR
STARTCHAR Ebreve
ENCODING 276
SWIDTH 480 0
DWIDTH 10 0
BBX 8 15 1 0
BITMAP
42
66
3C
00
FF
C0
C0
C0
C0
FC
C0
C0
C0
C0
FF
ENDCHAR
STARTCHAR ebreve
ENCODING 277
SWIDTH 480 0
DWIDTH 10 0
BBX 10 14 0 0
BITMAP
1100
0A00
0400
0000
3F00
7F80
E1C0
C0C0
FFC0
FF80
C000
E000
7F80
3F00
ENDCHAR
STARTCHAR Edotaccent
ENCODING 278
SWIDTH 480 0
DWIDTH 10 0
BBX 8 15 1 0
BITMAP
18
18
00
FF
C0
C0
C0
C0
FC
C0
C0
C0
C0
C0
FF
ENDCHAR
STARTCHAR edotaccent
ENCODING 279
SWIDTH 480 0
DWIDTH 10 0
BBX 10 13 0 0
BITMAP
0C00
0C00
0000
3F00
7F80
E1C0
C0C0
FFC0
FF80
C000
E000
7F80
3F00
ENDCHAR
STARTCHAR Eogonek
ENCODING 280
SWIDTH 480 0
DWIDTH 10 0
BBX 8 17 1 -4
BITMAP
FF
C0
C0
C0
C0
C0
FC
C0
C0
C0
C0
C0
FF
06
0E
0C
07
ENDCHAR
STARTCHAR eogonek
ENCODING 281
SWIDTH 480 0
DWIDTH 10 0
BBX 10 14 0 -4
BITMAP
3F00
7F80
E1C0
C0C0
FFC0
FF80
C000
E000
7F80
3F00
0600
0E00
0C00
0700
ENDCHAR
STARTCHAR Ecaron
ENCODING 282
SWIDTH 480 0
DWIDTH 10 0
BBX 8 15 1 0
BITMAP
66
3C
18
00
FF
C0
C0
C0
C0
FC
C0
C0
C0
C0
FF
ENDCHAR
STARTCHAR ecaron
ENCODING 283
SWIDTH 480 0
DWIDTH 10 0
BBX 8 12 1 0
BITMAP
66
3C
18
00
3C
66
C3
FF
C0
C0
63
3E
ENDCHAR
STARTCHAR Gcircumflex
ENCODING 284
SWIDTH 480 0
DWIDTH 10 0
BBX 8 15 1 0
BITMAP
18
3C
66
00
3C
66
C3
C0
C0
CF
C3
C3
C3
67
3D
ENDCHAR
STARTCHAR gcircumflex
ENCODING 285
SWIDTH 480 0
DWIDTH 10 0
BBX 8 16 1 -4
BITMAP
18
3C
66
00
7D
C7
C6
C6
C6
7C
C0
7E
C3
C3
C3
7E
ENDCHAR
STARTCHAR Gbreve
ENCODING 286
SWIDTH 480 0
DWIDTH 10 0
BBX 8 15 1 0
BITMAP
42
66
3C
00
3C
66
C3
C0
C0
CF
C3
C3
C3
67
3D
ENDCHAR
STARTCHAR gbreve
ENCODING 287
SWIDTH 480 0
DWIDTH 10 0
BBX 8 16 1 -4
BITMAP
42
66
3C
00
7D
C7
C6
C6
C6
7C
C0
7E
C3
C3
C3
7E
ENDCHAR
STARTCHAR Gdotaccent
ENCODING 288
SWIDTH 480 0
DWIDTH 10 0
BBX 8 15 1 0
BITMAP
18
18
00
3C
66
C3
C0
C0
CF
C3
C3
C3
C3
67
3D
ENDCHAR
STARTCHAR gdotaccent
ENCODING 289
SWIDTH 480 0
DWIDTH 10 0
BBX 8 15 1 -4
BITMAP
18
18
00
7D
C7
C6
C6
C6
7C
C0
7E
C3
C3
C3
7E
ENDCHAR
STARTCHAR Gcommaaccent
ENCODING 290
SWIDTH 480 0
DWIDTH 10 0
BBX 8 16 1 -3
BITMAP
3C
66
C3
C0
C0
C0
CF
C3
C3
C3
C3
67
3D
18
0C
38
ENDCHAR
STARTCHAR gcommaaccent
ENCODING 291
SWIDTH 480 0
DWIDTH 10 0
BBX 8 17 1 -4
BITMAP
10
20
30
30
00
7D
C7
C6
C6
C6
7C
C0
7E
C3
C3
C3
7E
ENDCHAR
STARTCHAR Hcircumflex
ENCODING 292
SWIDTH 480 0
DWIDTH 10 0
BBX 8 15 1 0
BITMAP
18
3C
66
00
C3
C3
C3
C3
FF
C3
C3
C3
C3
C3
C3
ENDCHAR
STARTCHAR hcircumflex
ENCODING 293
SWIDTH 480 0
DWIDTH 10 0
BBX 8 16 1 0
BITMAP
18
3C
66
00
C0
C0
C0
C0
DC
E6
C3
C3
C3
C3
C3
C3
ENDCHAR
STARTCHAR Hbar
ENCODING 294
SWIDTH 480 0
DWIDTH 10 0
BBX 10 13 0 0
BITMAP
6180
6180
FFC0
6180
6180
6180
7F80
6180
6180
6180
6180
6180
6180
ENDCHAR
STARTCHAR hbar
ENCODING 295
SWIDTH 480 0
DWIDTH 10 0
BBX 9 13 0 0
BITMAP
6000
6000
6000
F800
6000
6E00
7300
6180
6180
6180
6180
6180
6180
ENDCHAR
STARTCHAR Itilde
ENCODING 296
SWIDTH 480 0
DWIDTH 10 0
BBX 8 15 1 0
BITMAP
32
7E
4C
00
FF
18
18
18
18
18
18
18
18
18
FF
ENDCHAR
STARTCHAR itilde
ENCODING 297
SWIDTH 480 0
DWIDTH 10 0
BBX 8 14 1 0
BITMAP
32
7E
4C
00
00
00
78
18
18
18
18
18
18
FF
ENDCHAR
STARTCHAR Imacron
ENCODING 298
SWIDTH 480 0
DWIDTH 10 0
BBX 8 15 1 0
BITMAP
FF
00
FF
18
18
18
18
18
18
18
18
18
18
18
FF
ENDCHAR
STARTCHAR imacron
ENCODING 299
SWIDTH 480 0
DWIDTH 10 0
BBX 8 10 1 0
BITMAP
FE
00
78
18
18
18
18
18
18
FF
ENDCHAR
STARTCHAR Ibreve
ENCODING 300
SWIDTH 480 0
DWIDTH 10 0
BBX 8 15 1 0
BITMAP
42
66
3C
00
FF
18
18
18
18
18
18
18
18
18
FF
ENDCHAR
STARTCHAR ibreve
ENCODING 301
SWIDTH 480 0
DWIDTH 10 0
BBX 8 12 1 0
BITMAP
42
66
3C
00
78
18
18
18
18
18
18
FF
ENDCHAR
STARTCHAR Iogonek
ENCODING 302
SWIDTH 480 0
DWIDTH 10 0
BBX 8 17 1 -4
BITMAP
FF
18
18
18
18
18
18
18
18
18
18
18
FF
06
0E
0C
07
ENDCHAR
STARTCHAR iogonek
ENCODING 303
SWIDTH 480 0
DWIDTH 10 0
BBX 8 15 1 -4
BITMAP
18
18
00
78
18
18
18
18
18
18
FF
03
07
06
03
ENDCHAR
STARTCHAR Idotaccent
ENCODING 304
SWIDTH 480 0
DWIDTH 10 0
BBX 8 15 1 0
BITMAP
18
18
00
FF
18
18
18
18
18
18
18
18
18
18
FF
ENDCHAR
STARTCHAR dotlessi
ENCODING 305
SWIDTH 480 0
DWIDTH 10 0
BBX 8 8 1 0
BITMAP
78
18
18
18
18
18
18
FF
ENDCHAR
STARTCHAR IJ
ENCODING 306
SWIDTH 480 0
DWIDTH 10 0
BBX 9 16 0 -3
BITMAP
FF80
3180
3180
3180
3180
3180
3180
3180
3180
3180
3180
3180
FD80
0180
3180
1F00
ENDCHAR
STARTCHAR ij
ENCODING 307
SWIDTH 480 0
DWIDTH 10 0
BBX 9 15 0 -4
BITMAP
3180
3180
0000
F780
3180
3180
3180
3180
3180
3180
FD80
0180
3180
3180
1F00
ENDCHAR
STARTCHAR Jcircumflex
ENCODING 308
SWIDTH 480 0
DWIDTH 10 0
BBX 9 15 0 0
BITMAP
0600
0F00
1980
0000
1F00
0300
0300
0300
0300
0300
0300
C300
C300
6600
3C00
ENDCHAR
STARTCHAR jcircumflex
ENCODING 309
SWIDTH 480 0
DWIDTH 10 0
BBX 8 16 1 -4
BITMAP
0C
1E
33
00
1E
06
06
06
06
06
06
06
C6
C6
C6
7C
ENDCHAR
STARTCHAR Kcommaaccent
ENCODING 310
SWIDTH 480 0
DWIDTH 10 0
BBX 8 17 1 -4
BITMAP
C3
C3
C6
C6
CC
CC
F8
CC
CC
C6
C6
C3
C3
E0
30
30
E0
ENDCHAR
STARTCHAR kcommaaccent
ENCODING 311
SWIDTH 480 0
DWIDTH 10 0
BBX 8 17 1 -4
BITMAP
C0
C0
C0
C0
C0
C6
CC
D8
F0
F8
CC
C6
C3
E0
30
30
E0
ENDCHAR
STARTCHAR kgreenlandic
ENCODING 312
SWIDTH 480 0
DWIDTH 10 0
BBX 7 8 1 0
BITMAP
CC
D8
F0
E0
F0
D8
CC
C6
ENDCHAR
STARTCHAR Lacute
ENCODING 313
SWIDTH 480 0
DWIDTH 10 0
BBX 8 15 1 0
BITMAP
30
60
C0
00
C0
C0
C0
C0
C0
C0
C0
C0
C0
C0
FF
ENDCHAR
STARTCHAR lacute
ENCODING 314
SWIDTH 480 0
DWIDTH 10 0
BBX 8 15 1 0
BITMAP
0C
18
30
00
78
18
18
18
18
18
18
18
18
18
FF
ENDCHAR
STARTCHAR Lcommaaccent
ENCODING 315
SWIDTH 480 0
DWIDTH 10 0
BBX 8 17 1 -4
BITMAP
C0
C0
C0
C0
C0
C0
C0
C0
C0
C0
C0
C0
FF
60
30
30
E0
ENDCHAR
STARTCHAR lcommaaccent
ENCODING 316
SWIDTH 480 0
DWIDTH 10 0
BBX 8 17 1 -4
BITMAP
78
18
18
18
18
18
18
18
18
18
18
18
FF
18
0C
0C
38
ENDCHAR
STARTCHAR Lcaron
ENCODING 317
SWIDTH 480 0
DWIDTH 10 0
BBX 9 15 0 0
BITMAP
CC00
7800
3000
0000
6000
6000
6000
6000
6000
6000
6000
6000
6000
6000
7F80
ENDCHAR
STARTCHAR lcaron
ENCODING 318
SWIDTH 480 0
DWIDTH 10 0
BBX 8 15 1 0
BITMAP
66
3C
18
00
78
18
18
18
18
18
18
18
18
18
FF
ENDCHAR
STARTCHAR Ldot
ENCODING 319
SWIDTH 480 0
DWIDTH 10 0
BBX 8 13 1 0
BITMAP
C0
C0
C0
C0
C0
CC
CC
C0
C0
C0
C0
C0
FF
ENDCHAR
STARTCHAR ldot
ENCODING 320
SWIDTH 480 0
DWIDTH 10 0
BBX 9 13 0 0
BITMAP
7800
1800
1800
1800
1800
1800
1980
1980
1800
1800
1800
1800
FF00
ENDCHAR
STARTCHAR Lslash
ENCODING 321
SWIDTH 480 0
DWIDTH 10 0
BBX 9 13 0 0
BITMAP
6000
6000
6000
6000
6000
6C00
7000
E000
6000
6000
6000
6000
7F80
ENDCHAR
STARTCHAR lslash
ENCODING 322
SWIDTH 480 0
DWIDTH 10 0
BBX 8 13 1 0
BITMAP
78
18
18
18
18
18
1E
78
18
18
18
18
FF
ENDCHAR
STARTCHAR Nacute
ENCODING 323
SWIDTH 480 0
DWIDTH 10 0
BBX 8 15 1 0
BITMAP
06
0C
18
C3
E3
E3
F3
F3
DB
DB
CF
CF
C7
C7
C3
ENDCHAR
STARTCHAR nacute
ENCODING 324
SWIDTH 480 0
DWIDTH 10 0
BBX 8 12 1 0
BITMAP
06
0C
18
00
DC
E6
C3
C3
C3
C3
C3
C3
ENDCHAR
STARTCHAR Ncommaaccent
ENCODING 325
SWIDTH 480 0
DWIDTH 10 0
BBX 8 17 1 -4
BITMAP
C3
E3
E3
F3
F3
DB
DB
CF
CF
C7
C7
C3
C3
E0
30
30
E0
ENDCHAR
STARTCHAR ncommaaccent
ENCODING 326
SWIDTH 480 0
DWIDTH 10 0
BBX 8 12 1 -4
BITMAP
DC
E6
C3
C3
C3
C3
C3
C3
E0
30
30
E0
ENDCHAR
STARTCHAR Ncaron
ENCODING 327
SWIDTH 480 0
DWIDTH 10 0
BBX 8 15 1 0
BITMAP
66
3C
18
C3
E3
E3
F3
F3
DB
DB
CF
CF
C7
C7
C3
ENDCHAR
STARTCHAR ncaron
ENCODING 328
SWIDTH 480 0
DWIDTH 10 0
BBX 8 12 1 0
BITMAP
66
3C
18
00
DC
E6
C3
C3
C3
C3
C3
C3
ENDCHAR
STARTCHAR napostrophe
ENCODING 329
SWIDTH 480 0
DWIDTH 10 0
BBX 9 13 0 0
BITMAP
C000
C000
4000
8000
0000
6E00
7300
6180
6180
6180
6180
6180
6180
ENDCHAR
STARTCHAR Eng
ENCODING 330
SWIDTH 480 0
DWIDTH 10 0
BBX 8 17 1 -4
BITMAP
C3
E3
E3
F3
F3
DB
DB
CF
CF
C7
C7
C3
C3
03
03
03
06
ENDCHAR
STARTCHAR eng
ENCODING 331
SWIDTH 480 0
DWIDTH 10 0
BBX 8 12 1 -4
BITMAP
DC
E6
C3
C3
C3
C3
C3
C3
03
03
03
06
ENDCHAR
STARTCHAR Omacron
ENCODING 332
SWIDTH 480 0
DWIDTH 10 0
BBX 8 15 1 0
BITMAP
FF
00
3C
66
C3
C3
C3
C3
C3
C3
C3
C3
C3
66
3C
ENDCHAR
STARTCHAR omacron
ENCODING 333
SWIDTH 480 0
DWIDTH 10 0
BBX 8 10 1 0
BITMAP
FF
00
3C
66
C3
C3
C3
C3
66
3C
ENDCHAR
STARTCHAR Obreve
ENCODING 334
SWIDTH 480 0
DWIDTH 10 0
BBX 8 15 1 0
BITMAP
42
66
3C
00
3C
66
C3
C3
C3
C3
C3
C3
C3
66
3C
ENDCHAR
STARTCHAR obreve
ENCODING 335
SWIDTH 480 0
DWIDTH 10 0
BBX 8 12 1 0
BITMAP
42
66
3C
00
3C
66
C3
C3
C3
C3
66
3C
ENDCHAR
STARTCHAR Ohungarumlaut
ENCODING 336
SWIDTH 480 0
DWIDTH 10 0
BBX 8 15 1 0
BITMAP
33
66
00
3C
66
C3
C3
C3
C3
C3
C3
C3
C3
66
3C
ENDCHAR
STARTCHAR ohungarumlaut
ENCODING 337
SWIDTH 480 0
DWIDTH 10 0
BBX 8 11 1 0
BITMAP
33
66
00
3C
66
C3
C3
C3
C3
66
3C
ENDCHAR
STARTCHAR OE
ENCODING 338
SWIDTH 480 0
DWIDTH 10 0
BBX 8 13 1 0
BITMAP
3F
6C
CC
CC
CC
CC
CF
CC
CC
CC
CC
6C
3F
ENDCHAR
STARTCHAR oe
ENCODING 339
SWIDTH 480 0
DWIDTH 10 0
BBX 8 8 1 0
BITMAP
7E
DB
DB
DF
D8
D8
DB
7E
ENDCHAR
STARTCHAR Racute
ENCODING 340
SWIDTH 480 0
DWIDTH 10 0
BBX 8 15 1 0
BITMAP
0C
18
30
00
FC
C6
C3
C3
C6
FC
CC
C6
C6
C3
C3
ENDCHAR
STARTCHAR racute
ENCODING 341
SWIDTH 480 0
DWIDTH 10 0
BBX 8 12 1 0
BITMAP
06
0C
18
00
DE
73
60
60
60
60
60
60
ENDCHAR
STARTCHAR Rcommaaccent
ENCODING 342
SWIDTH 480 0
DWIDTH 10 0
BBX 8 17 1 -4
BITMAP
FC
C6
C3
C3
C3
C3
C6
FC
CC
C6
C6
C3
C3
E0
30
30
E0
ENDCHAR
STARTCHAR rcommaaccent
ENCODING 343
SWIDTH 480 0
DWIDTH 10 0
BBX 8 12 1 -4
BITMAP
DE
73
60
60
60
60
60
60
70
18
18
70
ENDCHAR
STARTCHAR Rcaron
ENCODING 344
SWIDTH 480 0
DWIDTH 10 0
BBX 8 15 1 0
BITMAP
66
3C
18
00
FC
C6
C3
C3
C6
FC
CC
C6
C6
C3
C3
ENDCHAR
STARTCHAR rcaron
ENCODING 345
SWIDTH 480 0
DWIDTH 10 0
BBX 8 12 1 0
BITMAP
66
3C
18
00
DE
73
60
60
60
60
60
60
ENDCHAR
STARTCHAR Sacute
ENCODING 346
SWIDTH 480 0
DWIDTH 10 0
BBX 8 15 1 0
BITMAP
06
0C
18
00
3C
66
C3
C0
60
3C
06
03
C3
66
3C
ENDCHAR
STARTCHAR sacute
ENCODING 347
SWIDTH 480 0
DWIDTH 10 0
BBX 8 12 1 0
BITMAP
06
0C
18
00
7E
C3
C0
7E
03
03
C3
7E
ENDCHAR
STARTCHAR Scircumflex
ENCODING 348
SWIDTH 480 0
DWIDTH 10 0
BBX 8 15 1 0
BITMAP
18
3C
66
00
3C
66
C3
C0
60
3C
06
03
C3
66
3C
ENDCHAR
STARTCHAR scircumflex
ENCODING 349
SWIDTH 480 0
DWIDTH 10 0
BBX 8 12 1 0
BITMAP
18
3C
66
00
7E
C3
C0
7E
03
03
C3
7E
ENDCHAR
STARTCHAR Scedilla
ENCODING 350
SWIDTH 480 0
DWIDTH 10 0
BBX 8 17 1 -4
BITMAP
3C
66
C3
C0
C0
60
3C
06
03
03
C3
66
3C
18
0C
0C
38
ENDCHAR
STARTCHAR scedilla
ENCODING 351
SWIDTH 480 0
DWIDTH 10 0
BBX 8 12 1 -4
BITMAP
7E
C3
C0
7E
03
03
C3
7E
18
0C
0C
38
ENDCHAR
STARTCHAR Scaron
ENCODING 352
SWIDTH 480 0
DWIDTH 10 0
BBX 8 15 1 0
BITMAP
66
3C
18
00
3C
66
C3
C0
60
3C
06
03
C3
66
3C
ENDCHAR
STARTCHAR scaron
ENCODING 353
SWIDTH 480 0
DWIDTH 10 0
BBX 8 12 1 0
BITMAP
66
3C
18
00
7E
C3
C0
7E
03
03
C3
7E
ENDCHAR
STARTCHAR Tcommaaccent
ENCODING 354
SWIDTH 480 0
DWIDTH 10 0
BBX 8 17 1 -4
BITMAP
FF
18
18
18
18
18
18
18
18
18
18
18
18
00
1C
1C
38
ENDCHAR
STARTCHAR tcommaaccent
ENCODING 355
SWIDTH 480 0
DWIDTH 10 0
BBX 8 15 1 -4
BITMAP
30
30
30
FC
30
30
30
30
30
33
1E
00
1C
1C
38
ENDCHAR
STARTCHAR Tcaron
ENCODING 356
SWIDTH 480 0
DWIDTH 10 0
BBX 8 15 1 0
BITMAP
66
3C
18
00
FF
18
18
18
18
18
18
18
18
18
18
ENDCHAR
STARTCHAR tcaron
ENCODING 357
SWIDTH 480 0
DWIDTH 10 0
BBX 8 15 1 0
BITMAP
CC
78
30
00
30
30
30
FC
30
30
30
30
30
33
1E
ENDCHAR
STARTCHAR Tbar
ENCODING 358
SWIDTH 480 0
DWIDTH 10 0
BBX 8 13 1 0
BITMAP
FF
18
18
18
18
7E
18
18
18
18
18
18
18
ENDCHAR
STARTCHAR tbar
ENCODING 359
SWIDTH 480 0
DWIDTH 10 0
BBX 8 11 1 0
BITMAP
30
30
30
FC
30
78
30
30
30
33
1E
ENDCHAR
STARTCHAR Utilde
ENCODING 360
SWIDTH 480 0
DWIDTH 10 0
BBX 8 15 1 0
BITMAP
32
7E
4C
00
C3
C3
C3
C3
C3
C3
C3
C3
C3
66
3C
ENDCHAR
STARTCHAR utilde
ENCODING 361
SWIDTH 480 0
DWIDTH 10 0
BBX 8 12 1 0
BITMAP
32
7E
4C
00
C3
C3
C3
C3
C3
C3
67
3B
ENDCHAR
STARTCHAR Umacron
ENCODING 362
SWIDTH 480 0
DWIDTH 10 0
BBX 8 15 1 0
BITMAP
FF
00
C3
C3
C3
C3
C3
C3
C3
C3
C3
C3
C3
66
3C
ENDCHAR
STARTCHAR umacron
ENCODING 363
SWIDTH 480 0
DWIDTH 10 0
BBX 8 10 1 0
BITMAP
FF
00
C3
C3
C3
C3
C3
C3
67
3B
ENDCHAR
STARTCHAR Ubreve
ENCODING 364
SWIDTH 480 0
DWIDTH 10 0
BBX 8 15 1 0
BITMAP
42
66
3C
00
C3
C3
C3
C3
C3
C3
C3
C3
C3
66
3C
ENDCHAR
STARTCHAR ubreve
ENCODING 365
SWIDTH 480 0
DWIDTH 10 0
BBX 8 12 1 0
BITMAP
42
66
3C
00
C3
C3
C3
C3
C3
C3
67
3B
ENDCHAR
STARTCHAR Uring
ENCODING 366
SWIDTH 480 0
DWIDTH 10 0
BBX 8 16 1 0
BITMAP
18
24
24
18
00
C3
C3
C3
C3
C3
C3
C3
C3
C3
66
3C
ENDCHAR
STARTCHAR uring
ENCODING 367
SWIDTH 480 0
DWIDTH 10 0
BBX 8 13 1 0
BITMAP
18
24
24
18
00
C3
C3
C3
C3
C3
C3
67
3B
ENDCHAR
STARTCHAR Uhungarumlaut
ENCODING 368
SWIDTH 480 0
DWIDTH 10 0
BBX 8 15 1 0
BITMAP
33
66
00
C3
C3
C3
C3
C3
C3
C3
C3
C3
C3
66
3C
ENDCHAR
STARTCHAR uhungarumlaut
ENCODING 369
SWIDTH 480 0
DWIDTH 10 0
BBX 8 11 1 0
BITMAP
33
66
00
C3
C3
C3
C3
C3
C3
67
3B
ENDCHAR
STARTCHAR Uogonek
ENCODING 370
SWIDTH 480 0
DWIDTH 10 0
BBX 8 17 1 -4
BITMAP
C3
C3
C3
C3
C3
C3
C3
C3
C3
C3
C3
66
3C
0C
1C
18
0E
ENDCHAR
STARTCHAR uogonek
ENCODING 371
SWIDTH 480 0
DWIDTH 10 0
BBX 8 12 1 -4
BITMAP
C3
C3
C3
C3
C3
C3
67
3B
07
0C
0C
07
ENDCHAR
STARTCHAR Wcircumflex
ENCODING 372
SWIDTH 480 0
DWIDTH 10 0
BBX 8 16 1 0
BITMAP
18
3C
66
00
C3
C3
C3
C3
DB
DB
DB
DB
E7
E7
C3
C3
ENDCHAR
STARTCHAR wcircumflex
ENCODING 373
SWIDTH 480 0
DWIDTH 10 0
BBX 8 12 1 0
BITMAP
18
3C
66
00
C3
C3
C3
DB
DB
DB
FF
66
ENDCHAR
STARTCHAR Ycircumflex
ENCODING 374
SWIDTH 480 0
DWIDTH 10 0
BBX 8 16 1 0
BITMAP
18
3C
66
00
C3
66
66
3C
3C
18
18
18
18
18
18
18
ENDCHAR
STARTCHAR ycircumflex
ENCODING 375
SWIDTH 480 0
DWIDTH 10 0
BBX 8 16 1 -4
BITMAP
18
3C
66
00
C3
C3
C3
C3
C3
C3
67
3B
03
C3
66
3C
ENDCHAR
STARTCHAR Ydieresis
ENCODING 376
SWIDTH 480 0
DWIDTH 10 0
BBX 8 15 1 0
BITMAP
66
66
00
C3
C3
66
66
3C
3C
18
18
18
18
18
18
ENDCHAR
STARTCHAR Zacute
ENCODING 377
SWIDTH 480 0
DWIDTH 10 0
BBX 8 16 1 0
BITMAP
06
0C
18
00
FF
03
06
0C
0C
18
30
30
60
C0
C0
FF
ENDCHAR
STARTCHAR zacute
ENCODING 378
SWIDTH 480 0
DWIDTH 10 0
BBX 7 12 2 0
BITMAP
0C
18
30
00
FE
06
0C
18
30
60
C0
FE
ENDCHAR
STARTCHAR Zdotaccent
ENCODING 379
SWIDTH 480 0
DWIDTH 10 0
BBX 8 15 1 0
BITMAP
18
18
00
FF
03
06
0C
0C
18
30
30
60
C0
C0
FF
ENDCHAR
STARTCHAR zdotaccent
ENCODING 380
SWIDTH 480 0
DWIDTH 10 0
BBX 7 11 2 0
BITMAP
18
18
00
FE
06
0C
18
30
60
C0
FE
ENDCHAR
STARTCHAR Zcaron
ENCODING 381
SWIDTH 480 0
DWIDTH 10 0
BBX 8 15 1 0
BITMAP
66
3C
18
00
FF
03
06
0C
0C
18
30
30
60
C0
FF
ENDCHAR
STARTCHAR zcaron
ENCODING 382
SWIDTH 480 0
DWIDTH 10 0
BBX 7 12 2 0
BITMAP
CC
78
30
00
FE
06
0C
18
30
60
C0
FE
ENDCHAR
STARTCHAR longs
ENCODING 383
SWIDTH 480 0
DWIDTH 10 0
BBX 8 13 1 0
BITMAP
1E
33
30
30
30
F0
30
30
30
30
30
30
30
ENDCHAR
STARTCHAR uni0180
ENCODING 384
SWIDTH 480 0
DWIDTH 10 0
BBX 9 13 0 0
BITMAP
6000
6000
F800
6000
6000
6E00
7300
6180
6180
6180
6180
7300
6E00
ENDCHAR
STARTCHAR uni0181
ENCODING 385
SWIDTH 480 0
DWIDTH 10 0
BBX 9 13 0 0
BITMAP
7C00
B600
B300
3300
3300
3600
3E00
3300
3180
3180
3180
3300
3E00
ENDCHAR
STARTCHAR uni0182
ENCODING 386
SWIDTH 480 0
DWIDTH 10 0
BBX 8 13 1 0
BITMAP
FE
C0
C0
C0
C0
FC
C6
C3
C3
C3
C3
C6
FC
ENDCHAR
STARTCHAR uni0183
ENCODING 387
SWIDTH 480 0
DWIDTH 10 0
BBX 7 13 1 0
BITMAP
FC
C0
C0
C0
C0
D8
EC
C6
C6
C6
C6
EC
D8
ENDCHAR
STARTCHAR uni0184
ENCODING 388
SWIDTH 480 0
DWIDTH 10 0
BBX 9 13 0 0
BITMAP
6000
E000
E000
6000
6000
7E00
6300
6180
6180
6180
6180
6300
7E00
ENDCHAR
STARTCHAR uni0185
ENCODING 389
SWIDTH 480 0
DWIDTH 10 0
BBX 8 12 1 0
BITMAP
60
E0
E0
60
6C
76
63
63
63
63
76
6C
ENDCHAR
STARTCHAR uni0186
ENCODING 390
SWIDTH 480 0
DWIDTH 10 0
BBX 8 13 1 0
BITMAP
3C
66
C3
03
03
03
03
03
03
03
C3
66
3C
ENDCHAR
STARTCHAR uni0187
ENCODING 391
SWIDTH 480 0
DWIDTH 10 0
BBX 9 15 1 0
BITMAP
0180
0300
3E00
6600
C200
C000
C000
C000
C000
C000
C000
C000
C300
6600
3C00
ENDCHAR
STARTCHAR uni0188
ENCODING 392
SWIDTH 480 0
DWIDTH 10 0
BBX 9 11 1 0
BITMAP
0180
0300
0200
3E00
6200
C000
C000
C000
C000
6300
3E00
ENDCHAR
STARTCHAR uni0189
ENCODING 393
SWIDTH 480 0
DWIDTH 10 0
BBX 9 13 0 0
BITMAP
7E00
6300
6180
6180
6180
6180
F180
6180
6180
6180
6180
6300
7E00
ENDCHAR
STARTCHAR uni018A
ENCODING 394
SWIDTH 480 0
DWIDTH 10 0
BBX 9 13 0 0
BITMAP
7E00
B300
B180
3180
3180
3180
3180
3180
3180
3180
3180
3300
3E00
ENDCHAR
STARTCHAR uni018B
ENCODING 395
SWIDTH 480 0
DWIDTH 10 0
BBX 8 13 1 0
BITMAP
7F
03
03
03
03
3F
63
C3
C3
C3
C3
63
3F
ENDCHAR
STARTCHAR uni018C
ENCODING 396
SWIDTH 480 0
DWIDTH 10 0
BBX 7 13 1 0
BITMAP
7E
06
06
06
06
36
6E
C6
C6
C6
C6
6E
36
ENDCHAR
STARTCHAR uni018D
ENCODING 397
SWIDTH 480 0
DWIDTH 10 0
BBX 8 12 1 -4
BITMAP
3C
66
C3
C3
C3
C3
66
3C
0C
06
63
3E
ENDCHAR
STARTCHAR uni018E
ENCODING 398
SWIDTH 480 0
DWIDTH 10 0
BBX 8 13 1 0
BITMAP
FF
03
03
03
03
03
3F
03
03
03
03
03
FF
ENDCHAR
STARTCHAR uni018F
ENCODING 399
SWIDTH 480 0
DWIDTH 10 0
BBX 8 13 1 0
BITMAP
3C
66
C3
03
03
03
FF
C3
C3
C3
C3
66
3C
ENDCHAR
STARTCHAR uni0190
ENCODING 400
SWIDTH 480 0
DWIDTH 10 0
BBX 8 13 1 0
BITMAP
3E
63
C0
C0
C0
60
3E
60
C0
C0
C0
63
3E
ENDCHAR
STARTCHAR uni0191
ENCODING 401
SWIDTH 480 0
DWIDTH 10 0
BBX 9 16 0 -3
BITMAP
7F80
6000
6000
6000
6000
6000
7E00
6000
6000
6000
6000
6000
6000
6000
6000
C000
ENDCHAR
STARTCHAR florin
ENCODING 402
SWIDTH 480 0
DWIDTH 10 0
BBX 9 16 0 -3
BITMAP
0F00
1980
1980
1800
1800
7E00
1800
1800
1800
1800
1800
1800
1800
1800
D800
7000
ENDCHAR
STARTCHAR uni0193
ENCODING 403
SWIDTH 480 0
DWIDTH 10 0
BBX 9 15 1 0
BITMAP
0180
0300
3E00
6600
C000
C000
C000
C000
CF00
C300
C300
C300
C300
6700
3D00
ENDCHAR
STARTCHAR uni0194
ENCODING 404
SWIDTH 480 0
DWIDTH 10 0
BBX 8 13 1 0
BITMAP
C3
C3
C3
66
66
66
3C
3C
18
3C
66
66
3C
ENDCHAR
STARTCHAR uni0195
ENCODING 405
SWIDTH 480 0
DWIDTH 10 0
BBX 8 13 1 0
BITMAP
C0
C0
C0
C0
C0
F3
DB
DB
DB
DB
DB
DB
CE
ENDCHAR
STARTCHAR uni0196
ENCODING 406
SWIDTH 480 0
DWIDTH 10 0
BBX 7 13 2 0
BITMAP
F0
30
30
30
30
30
30
30
30
30
30
36
1C
ENDCHAR
STARTCHAR uni0197
ENCODING 407
SWIDTH 480 0
DWIDTH 10 0
BBX 8 13 1 0
BITMAP
FF
18
18
18
18
7E
18
18
18
18
18
18
FF
ENDCHAR
STARTCHAR uni0198
ENCODING 408
SWIDTH 480 0
DWIDTH 10 0
BBX 9 13 1 0
BITMAP
C700
CD80
CC00
D800
D800
D800
F000
D800
D800
CC00
CC00
C600
C600
ENDCHAR
STARTCHAR uni0199
ENCODING 409
SWIDTH 480 0
DWIDTH 10 0
BBX 8 13 1 0
BITMAP
70
C0
C0
C0
C0
C6
CC
D8
F0
F8
CC
C6
C3
ENDCHAR
STARTCHAR uni019A
ENCODING 410
SWIDTH 480 0
DWIDTH 10 0
BBX 8 13 1 0
BITMAP
78
18
18
18
18
7E
18
18
18
18
18
18
FF
ENDCHAR
STARTCHAR uni019B
ENCODING 411
SWIDTH 480 0
DWIDTH 10 0
BBX 9 13 0 0
BITMAP
6000
6600
3C00
3800
7800
CC00
0C00
1E00
1E00
3300
3300
6180
6180
ENDCHAR
STARTCHAR uni019C
ENCODING 412
SWIDTH 480 0
DWIDTH 10 0
BBX 8 13 1 0
BITMAP
DB
DB
DB
DB
DB
DB
DB
DB
DB
DB
DB
FF
6D
ENDCHAR
STARTCHAR uni019D
ENCODING 413
SWIDTH 480 0
DWIDTH 10 0
BBX 9 17 0 -4
BITMAP
6180
7180
7180
7980
7980
6D80
6D80
6780
6780
6380
6380
6180
6180
6000
6000
6000
C000
ENDCHAR
STARTCHAR uni019E
ENCODING 414
SWIDTH 480 0
DWIDTH 10 0
BBX 8 12 1 -4
BITMAP
DC
E6
C3
C3
C3
C3
C3
C3
03
03
03
03
ENDCHAR
STARTCHAR uni019F
ENCODING 415
SWIDTH 480 0
DWIDTH 10 0
BBX 8 13 1 0
BITMAP
3C
66
C3
C3
C3
C3
FF
C3
C3
C3
C3
66
3C
ENDCHAR
STARTCHAR Ohorn
ENCODING 416
SWIDTH 480 0
DWIDTH 10 0
BBX 9 13 1 0
BITMAP
3980
6D80
C700
C600
C600
C600
C600
C600
C600
C600
C600
6C00
3800
ENDCHAR
STARTCHAR ohorn
ENCODING 417
SWIDTH 480 0
DWIDTH 10 0
BBX 9 8 1 0
BITMAP
3980
6D80
C700
C600
C600
C600
6C00
3800
ENDCHAR
STARTCHAR uni01A2
ENCODING 418
SWIDTH 480 0
DWIDTH 10 0
BBX 9 17 0 -4
BITMAP
3700
7D80
CD80
CD80
CD80
CD80
CD80
CD80
CD80
CD80
CD80
7980
3180
0180
0180
0180
0180
ENDCHAR
STARTCHAR uni01A3
ENCODING 419
SWIDTH 480 0
DWIDTH 10 0
BBX 9 12 0 -4
BITMAP
3700
7D80
CD80
CD80
CD80
CD80
7980
3180
0180
0180
0180
0180
ENDCHAR
STARTCHAR uni01A4
ENCODING 420
SWIDTH 480 0
DWIDTH 10 0
BBX 9 13 0 0
BITMAP
7E00
B300
B180
3180
3180
3180
3300
3E00
3000
3000
3000
3000
3000
ENDCHAR
STARTCHAR uni01A5
ENCODING 421
SWIDTH 480 0
DWIDTH 10 0
BBX 8 17 1 -4
BITMAP
70
D8
C0
C0
C0
DC
E6
C3
C3
C3
C3
E6
DC
C0
C0
C0
C0
ENDCHAR
STARTCHAR uni01A6
ENCODING 422
SWIDTH 480 0
DWIDTH 10 0
BBX 9 17 1 -2
BITMAP
C000
C000
FC00
C600
C300
C300
C300
C300
C600
FC00
CC00
C600
C600
C300
C300
0180
0180
ENDCHAR
STARTCHAR uni01A7
ENCODING 423
SWIDTH 480 0
DWIDTH 10 0
BBX 8 13 1 0
BITMAP
3C
66
C3
03
03
06
3C
60
C0
C0
C3
66
3C
ENDCHAR
STARTCHAR uni01A8
ENCODING 424
SWIDTH 480 0
DWIDTH 10 0
BBX 8 8 1 0
BITMAP
7E
C3
03
7E
C0
C0
C3
7E
ENDCHAR
STARTCHAR uni01A9
ENCODING 425
SWIDTH 480 0
DWIDTH 10 0
BBX 8 13 1 0
BITMAP
FF
C0
60
30
18
0C
0C
18
30
30
60
C0
FF
ENDCHAR
STARTCHAR uni01AA
ENCODING 426
SWIDTH 480 0
DWIDTH 10 0
BBX 8 17 1 -4
BITMAP
70
D8
88
D8
78
18
18
18
18
18
18
18
18
18
18
0C
07
ENDCHAR
STARTCHAR uni01AB
ENCODING 427
SWIDTH 480 0
DWIDTH 10 0
BBX 8 15 1 -4
BITMAP
30
30
30
FC
30
30
30
30
30
30
1F
03
03
06
3C
ENDCHAR
STARTCHAR uni01AC
ENCODING 428
SWIDTH 480 0
DWIDTH 10 0
BBX 9 13 0 0
BITMAP
7F80
CC00
CC00
CC00
0C00
0C00
0C00
0C00
0C00
0C00
0C00
0C00
0C00
ENDCHAR
STARTCHAR uni01AD
ENCODING 429
SWIDTH 480 0
DWIDTH 10 0
BBX 8 12 1 0
BITMAP
1E
33
30
30
FC
30
30
30
30
30
33
1E
ENDCHAR
STARTCHAR uni01AE
ENCODING 430
SWIDTH 480 0
DWIDTH 10 0
BBX 8 17 1 -4
BITMAP
FF
18
18
18
18
18
18
18
18
18
18
18
18
18
18
18
0E
ENDCHAR
STARTCHAR Uhorn
ENCODING 431
SWIDTH 480 0
DWIDTH 10 0
BBX 9 13 1 0
BITMAP
CD80
CD80
CF00
CC00
CC00
CC00
CC00
CC00
CC00
CC00
CC00
7800
3000
ENDCHAR
STARTCHAR uhorn
ENCODING 432
SWIDTH 480 0
DWIDTH 10 0
BBX 9 8 1 0
BITMAP
CD80
CD80
CF00
CC00
CC00
CC00
7C00
3C00
ENDCHAR
STARTCHAR uni01B1
ENCODING 433
SWIDTH 480 0
DWIDTH 10 0
BBX 8 13 1 0
BITMAP
E7
24
66
C3
C3
C3
C3
C3
C3
C3
C3
66
3C
ENDCHAR
STARTCHAR uni01B2
ENCODING 434
SWIDTH 480 0
DWIDTH 10 0
BBX 8 13 1 0
BITMAP
CC
CC
C6
C6
C3
C3
C3
C3
C3
C3
C3
66
3C
ENDCHAR
STARTCHAR uni01B3
ENCODING 435
SWIDTH 480 0
DWIDTH 10 0
BBX 9 13 0 0
BITMAP
7980
D980
D980
1980
0F00
0F00
0600
0600
0600
0600
0600
0600
0600
ENDCHAR
STARTCHAR uni01B4
ENCODING 436
SWIDTH 480 0
DWIDTH 10 0
BBX 9 15 1 -4
BITMAP
0380
0600
0600
C600
C600
C600
C600
C600
C600
6E00
3600
0600
C600
6C00
3800
ENDCHAR
STARTCHAR uni01B5
ENCODING 437
SWIDTH 480 0
DWIDTH 10 0
BBX 8 13 1 0
BITMAP
FF
03
03
06
06
0C
7E
30
60
60
C0
C0
FF
ENDCHAR
STARTCHAR uni01B6
ENCODING 438
SWIDTH 480 0
DWIDTH 10 0
BBX 7 8 2 0
BITMAP
FE
06
0C
7E
30
60
C0
FE
ENDCHAR
STARTCHAR uni01B7
ENCODING 439
SWIDTH 480 0
DWIDTH 10 0
BBX 8 13 1 0
BITMAP
FF
03
06
0C
18
3C
06
03
03
C3
C3
66
3C
ENDCHAR
STARTCHAR uni01B8
ENCODING 440
SWIDTH 480 0
DWIDTH 10 0
BBX 8 13 1 0
BITMAP
FF
C0
60
30
18
3C
60
C0
C0
C3
C3
66
3C
ENDCHAR
STARTCHAR uni01B9
ENCODING 441
SWIDTH 480 0
DWIDTH 10 0
BBX 8 12 1 -4
BITMAP
FE
C0
60
30
18
3C
60
C0
C3
C3
66
3C
ENDCHAR
STARTCHAR uni01BA
ENCODING 442
SWIDTH 480 0
DWIDTH 10 0
BBX 7 12 2 -4
BITMAP
FE
06
0C
18
7C
06
06
1C
30
60
6C
38
ENDCHAR
STARTCHAR uni01BB
ENCODING 443
SWIDTH 480 0
DWIDTH 10 0
BBX 8 13 1 0
BITMAP
3C
66
C3
C3
03
03
06
FF
30
60
C0
C0
FF
ENDCHAR
STARTCHAR uni01BC
ENCODING 444
SWIDTH 480 0
DWIDTH 10 0
BBX 8 13 1 0
BITMAP
FF
C1
C0
C0
C0
DC
E6
03
03
03
C3
66
3C
ENDCHAR
STARTCHAR uni01BD
ENCODING 445
SWIDTH 480 0
DWIDTH 10 0
BBX 6 13 2 0
BITMAP
FC
C4
C0
C0
C0
F8
EC
0C
0C
0C
CC
78
30
ENDCHAR
STARTCHAR uni01BE
ENCODING 446
SWIDTH 480 0
DWIDTH 10 0
BBX 7 11 1 0
BITMAP
30
30
30
FC
30
30
18
0C
06
66
3C
ENDCHAR
STARTCHAR uni01BF
ENCODING 447
SWIDTH 480 0
DWIDTH 10 0
BBX 8 12 1 -4
BITMAP
DC
E6
C3
C3
C3
C3
C6
DC
F0
C0
C0
C0
ENDCHAR
STARTCHAR uni01C0
ENCODING 448
SWIDTH 480 0
DWIDTH 10 0
BBX 2 15 4 -2
BITMAP
C0
C0
C0
C0
C0
C0
C0
C0
C0
C0
C0
C0
C0
C0
C0
ENDCHAR
STARTCHAR uni01C1
ENCODING 449
SWIDTH 480 0
DWIDTH 10 0
BBX 6 15 2 -2
BITMAP
CC
CC
CC
CC
CC
CC
CC
CC
CC
CC
CC
CC
CC
CC
CC
ENDCHAR
STARTCHAR uni01C2
ENCODING 450
SWIDTH 480 0
DWIDTH 10 0
BBX 8 9 1 0
BITMAP
18
18
FF
18
18
18
FF
18
18
ENDCHAR
STARTCHAR uni01C3
ENCODING 451
SWIDTH 480 0
DWIDTH 10 0
BBX 2 13 4 0
BITMAP
C0
C0
C0
C0
C0
C0
C0
C0
C0
00
00
C0
C0
ENDCHAR
STARTCHAR uni01C4
ENCODING 452
SWIDTH 480 0
DWIDTH 10 0
BBX 10 15 0 0
BITMAP
06C0
0380
0000
F3C0
D8C0
D8C0
D8C0
D980
D980
D980
D980
DB00
DB00
DB00
F3C0
ENDCHAR
STARTCHAR uni01C5
ENCODING 453
SWIDTH 480 0
DWIDTH 10 0
BBX 10 13 0 0
BITMAP
F000
D800
DEC0
DB80
D800
DBC0
D8C0
D8C0
D980
D980
DB00
DB00
F3C0
ENDCHAR
STARTCHAR uni01C6
ENCODING 454
SWIDTH 480 0
DWIDTH 10 0
BBX 10 13 0 0
BITMAP
1800
1800
1EC0
1B80
1800
7BC0
D8C0
D8C0
D980
D980
DB00
DB00
7BC0
ENDCHAR
STARTCHAR uni01C7
ENCODING 455
SWIDTH 480 0
DWIDTH 10 0
BBX 9 13 0 0
BITMAP
C780
C180
C180
C180
C180
C180
C180
C180
C180
C180
C180
CD80
F700
ENDCHAR
STARTCHAR uni01C8
ENCODING 456
SWIDTH 480 0
DWIDTH 10 0
BBX 9 17 0 -4
BITMAP
C000
C000
C180
C180
C000
C780
C180
C180
C180
C180
C180
C180
F980
0180
3180
3180
1F00
ENDCHAR
STARTCHAR uni01C9
ENCODING 457
SWIDTH 480 0
DWIDTH 10 0
BBX 9 17 0 -4
BITMAP
7000
3000
3180
3180
3000
3780
3180
3180
3180
3180
3180
3180
FD80
0180
3180
3180
1F00
ENDCHAR
STARTCHAR uni01CA
ENCODING 458
SWIDTH 480 0
DWIDTH 10 0
BBX 9 16 0 -3
BITMAP
CD80
CD80
CD80
ED80
ED80
ED80
FD80
DD80
DD80
DD80
CD80
CD80
CD80
0180
3300
1E00
ENDCHAR
STARTCHAR uni01CB
ENCODING 459
SWIDTH 480 0
DWIDTH 10 0
BBX 9 17 0 -4
BITMAP
CC00
CC00
CD80
ED80
EC00
ED80
FD80
DD80
DD80
DD80
CD80
CD80
CD80
0180
3180
3180
1F00
ENDCHAR
STARTCHAR uni01CC
ENCODING 460
SWIDTH 480 0
DWIDTH 10 0
BBX 9 15 0 -4
BITMAP
0180
0180
0000
D980
ED80
CD80
CD80
CD80
CD80
CD80
CD80
0180
3180
3180
1F00
ENDCHAR
STARTCHAR uni01CD
ENCODING 461
SWIDTH 480 0
DWIDTH 10 0
BBX 8 15 1 0
BITMAP
66
3C
18
00
18
3C
66
66
C3
C3
FF
C3
C3
C3
C3
ENDCHAR
STARTCHAR uni01CE
ENCODING 462
SWIDTH 480 0
DWIDTH 10 0
BBX 8 12 1 0
BITMAP
66
3C
18
00
3E
63
03
7F
C3
C3
C3
7D
ENDCHAR
STARTCHAR uni01CF
ENCODING 463
SWIDTH 480 0
DWIDTH 10 0
BBX 8 15 1 0
BITMAP
66
3C
18
00
FF
18
18
18
18
18
18
18
18
18
FF
ENDCHAR
STARTCHAR uni01D0
ENCODING 464
SWIDTH 480 0
DWIDTH 10 0
BBX 8 12 1 0
BITMAP
66
3C
18
00
78
18
18
18
18
18
18
FF
ENDCHAR
STARTCHAR uni01D1
ENCODING 465
SWIDTH 480 0
DWIDTH 10 0
BBX 8 15 1 0
BITMAP
66
3C
18
00
3C
66
C3
C3
C3
C3
C3
C3
C3
66
3C
ENDCHAR
STARTCHAR uni01D2
ENCODING 466
SWIDTH 480 0
DWIDTH 10 0
BBX 8 12 1 0
BITMAP
66
3C
18
00
3C
66
C3
C3
C3
C3
66
3C
ENDCHAR
STARTCHAR uni01D3
ENCODING 467
SWIDTH 480 0
DWIDTH 10 0
BBX 8 15 1 0
BITMAP
66
3C
18
C3
C3
C3
C3
C3
C3
C3
C3
C3
C3
66
3C
ENDCHAR
STARTCHAR uni01D4
ENCODING 468
SWIDTH 480 0
DWIDTH 10 0
BBX 8 12 1 0
BITMAP
66
3C
18
00
C3
C3
C3
C3
C3
C3
67
3B
ENDCHAR
STARTCHAR uni01D5
ENCODING 469
SWIDTH 480 0
DWIDTH 10 0
BBX 8 15 1 0
BITMAP
FF
00
66
66
00
C3
C3
C3
C3
C3
C3
C3
C3
66
3C
ENDCHAR
STARTCHAR uni01D6
ENCODING 470
SWIDTH 480 0
DWIDTH 10 0
BBX 8 13 1 0
BITMAP
FF
00
66
66
00
C3
C3
C3
C3
C3
C3
67
3B
ENDCHAR
STARTCHAR uni01D7
ENCODING 471
SWIDTH 480 0
DWIDTH 10 0
BBX 8 16 1 0
BITMAP
0C
18
00
66
66
00
C3
C3
C3
C3
C3
C3
C3
C3
66
3C
ENDCHAR
STARTCHAR uni01D8
ENCODING 472
SWIDTH 480 0
DWIDTH 10 0
BBX 8 14 1 0
BITMAP
0C
18
00
66
66
00
C3
C3
C3
C3
C3
C3
67
3B
ENDCHAR
STARTCHAR uni01D9
ENCODING 473
SWIDTH 480 0
DWIDTH 10 0
BBX 8 16 1 0
BITMAP
36
1C
00
66
66
00
C3
C3
C3
C3
C3
C3
C3
C3
66
3C
ENDCHAR
STARTCHAR uni01DA
ENCODING 474
SWIDTH 480 0
DWIDTH 10 0
BBX 8 14 1 0
BITMAP
36
1C
00
66
66
00
C3
C3
C3
C3
C3
C3
67
3B
ENDCHAR
STARTCHAR uni01DB
ENCODING 475
SWIDTH 480 0
DWIDTH 10 0
BBX 8 16 1 0
BITMAP
30
18
00
66
66
00
C3
C3
C3
C3
C3
C3
C3
C3
66
3C
ENDCHAR
STARTCHAR uni01DC
ENCODING 476
SWIDTH 480 0
DWIDTH 10 0
BBX 8 14 1 0
BITMAP
30
18
00
66
66
00
C3
C3
C3
C3
C3
C3
67
3B
ENDCHAR
STARTCHAR uni01DD
ENCODING 477
SWIDTH 480 0
DWIDTH 10 0
BBX 8 8 1 0
BITMAP
7C
C6
03
03
FF
C3
66
3C
ENDCHAR
STARTCHAR uni01DE
ENCODING 478
SWIDTH 480 0
DWIDTH 10 0
BBX 8 16 1 0
BITMAP
FF
00
66
66
00
18
3C
66
C3
C3
C3
FF
C3
C3
C3
C3
ENDCHAR
STARTCHAR uni01DF
ENCODING 479
SWIDTH 480 0
DWIDTH 10 0
BBX 8 13 1 0
BITMAP
FF
00
66
66
00
3E
63
03
7F
C3
C3
C3
7D
ENDCHAR
STARTCHAR uni01E0
ENCODING 480
SWIDTH 480 0
DWIDTH 10 0
BBX 8 16 1 0
BITMAP
FF
00
18
18
00
18
3C
66
C3
C3
C3
FF
C3
C3
C3
C3
ENDCHAR
STARTCHAR uni01E1
ENCODING 481
SWIDTH 480 0
DWIDTH 10 0
BBX 8 13 1 0
BITMAP
FF
00
18
18
00
3E
63
03
7F
C3
C3
C3
7D
ENDCHAR
STARTCHAR uni01E2
ENCODING 482
SWIDTH 480 0
DWIDTH 10 0
BBX 8 15 1 0
BITMAP
FF
00
1F
3C
6C
6C
CC
CC
FF
CC
CC
CC
CC
CC
CF
ENDCHAR
STARTCHAR uni01E3
ENCODING 483
SWIDTH 480 0
DWIDTH 10 0
BBX 8 10 1 0
BITMAP
FF
00
76
9B
1B
1E
78
D8
D9
6E
ENDCHAR
STARTCHAR uni01E4
ENCODING 484
SWIDTH 480 0
DWIDTH 10 0
BBX 9 13 1 0
BITMAP
3C00
6600
C300
C000
C000
C000
CF00
C300
C300
CF80
C300
6700
3D00
ENDCHAR
STARTCHAR uni01E5
ENCODING 485
SWIDTH 480 0
DWIDTH 10 0
BBX 9 12 1 -4
BITMAP
7D00
C700
C600
C600
C600
7C00
C000
7E00
C300
CF80
C300
7E00
ENDCHAR
STARTCHAR Gcaron
ENCODING 486
SWIDTH 480 0
DWIDTH 10 0
BBX 8 15 1 0
BITMAP
66
3C
18
00
3C
66
C0
C0
C0
CF
C3
C3
C3
67
3D
ENDCHAR
STARTCHAR gcaron
ENCODING 487
SWIDTH 480 0
DWIDTH 10 0
BBX 8 16 1 -4
BITMAP
66
3C
18
00
7D
C7
C6
C6
C6
7C
C0
7E
C3
C3
C3
7E
ENDCHAR
STARTCHAR uni01E8
ENCODING 488
SWIDTH 480 0
DWIDTH 10 0
BBX 8 15 1 0
BITMAP
66
3C
18
C3
C6
C6
CC
CC
F8
CC
CC
C6
C6
C3
C3
ENDCHAR
STARTCHAR uni01E9
ENCODING 489
SWIDTH 480 0
DWIDTH 10 0
BBX 8 15 1 0
BITMAP
66
3C
18
C0
C0
C0
C0
C6
CC
D8
F0
F8
CC
C6
C3
ENDCHAR
STARTCHAR uni01EA
ENCODING 490
SWIDTH 480 0
DWIDTH 10 0
BBX 8 17 1 -4
BITMAP
3C
66
C3
C3
C3
C3
C3
C3
C3
C3
C3
66
3C
18
30
30
1C
ENDCHAR
STARTCHAR uni01EB
ENCODING 491
SWIDTH 480 0
DWIDTH 10 0
BBX 8 12 1 -4
BITMAP
3C
66
C3
C3
C3
C3
66
3C
18
30
30
1C
ENDCHAR
STARTCHAR uni01EC
ENCODING 492
SWIDTH 480 0
DWIDTH 10 0
BBX 8 19 1 -4
BITMAP
FF
00
3C
66
C3
C3
C3
C3
C3
C3
C3
C3
C3
66
3C
18
30
30
1C
ENDCHAR
STARTCHAR uni01ED
ENCODING 493
SWIDTH 480 0
DWIDTH 10 0
BBX 8 14 1 -4
BITMAP
FF
00
3C
66
C3
C3
C3
C3
66
3C
18
30
30
1C
ENDCHAR
STARTCHAR uni01EE
ENCODING 494
SWIDTH 480 0
DWIDTH 10 0
BBX 8 15 1 0
BITMAP
66
3C
18
00
FF
03
06
0C
3C
06
03
C3
C3
66
3C
ENDCHAR
STARTCHAR uni01EF
ENCODING 495
SWIDTH 480 0
DWIDTH 10 0
BBX 8 16 1 -4
BITMAP
66
3C
18
00
7F
03
06
0C
18
3C
06
03
C3
C3
66
3C
ENDCHAR
STARTCHAR uni01F0
ENCODING 496
SWIDTH 480 0
DWIDTH 10 0
BBX 8 16 2 -4
BITMAP
33
1E
0C
00
1E
06
06
06
06
06
06
06
C6
C6
C6
7C
ENDCHAR
STARTCHAR uni01F1
ENCODING 497
SWIDTH 480 0
DWIDTH 10 0
BBX 10 13 0 0
BITMAP
F3C0
D8C0
D8C0
D8C0
D980
D980
D980
D980
D980
DB00
DB00
DB00
F3C0
ENDCHAR
STARTCHAR uni01F2
ENCODING 498
SWIDTH 480 0
DWIDTH 10 0
BBX 10 13 0 0
BITMAP
F000
D800
D800
D800
D800
DBC0
D8C0
D8C0
D980
D980
DB00
DB00
F3C0
ENDCHAR
STARTCHAR uni01F3
ENCODING 499
SWIDTH 480 0
DWIDTH 10 0
BBX 10 13 0 0
BITMAP
1800
1800
1800
1800
1800
7BC0
D8C0
D8C0
D980
D980
DB00
DB00
7BC0
ENDCHAR
STARTCHAR uni01F4
ENCODING 500
SWIDTH 480 0
DWIDTH 10 0
BBX 8 16 1 0
BITMAP
06
0C
18
00
3C
66
C3
C0
C0
CF
C3
C3
C3
C3
67
3D
ENDCHAR
STARTCHAR uni01F5
ENCODING 501
SWIDTH 480 0
DWIDTH 10 0
BBX 8 16 1 -4
BITMAP
0C
18
30
00
7D
C7
C6
C6
C6
7C
C0
7E
C3
C3
C3
7E
ENDCHAR
STARTCHAR uni01F6
ENCODING 502
SWIDTH 480 0
DWIDTH 10 0
BBX 8 13 1 0
BITMAP
D8
D8
D8
D8
D8
DB
FB
DB
DB
DB
DB
DB
CE
ENDCHAR
STARTCHAR uni01F7
ENCODING 503
SWIDTH 480 0
DWIDTH 10 0
BBX 8 16 1 -3
BITMAP
DC
F6
C3
C3
C3
C3
C6
CC
D8
F0
C0
C0
C0
C0
C0
80
ENDCHAR
STARTCHAR uni01F8
ENCODING 504
SWIDTH 480 0
DWIDTH 10 0
BBX 8 15 1 0
BITMAP
30
18
0C
00
C3
E3
F3
F3
DB
DB
CF
CF
C7
C3
C3
ENDCHAR
STARTCHAR uni01F9
ENCODING 505
SWIDTH 480 0
DWIDTH 10 0
BBX 8 12 1 0
BITMAP
30
18
0C
00
DC
E6
C3
C3
C3
C3
C3
C3
ENDCHAR
STARTCHAR Aringacute
ENCODING 506
SWIDTH 480 0
DWIDTH 10 0
BBX 8 16 1 0
BITMAP
0C
18
00
18
24
24
18
18
3C
66
C3
C3
FF
C3
C3
C3
ENDCHAR
STARTCHAR aringacute
ENCODING 507
SWIDTH 480 0
DWIDTH 10 0
BBX 8 16 1 0
BITMAP
0C
18
00
18
24
24
18
00
7E
C3
03
7F
C3
C3
C3
7D
ENDCHAR
STARTCHAR AEacute
ENCODING 508
SWIDTH 480 0
DWIDTH 10 0
BBX 8 16 1 0
BITMAP
06
0C
18
00
1F
3C
6C
6C
CC
FF
CC
CC
CC
CC
CC
CF
ENDCHAR
STARTCHAR aeacute
ENCODING 509
SWIDTH 480 0
DWIDTH 10 0
BBX 8 12 1 0
BITMAP
06
0C
18
00
76
9B
1B
1E
78
D8
D9
6E
ENDCHAR
STARTCHAR Oslashacute
ENCODING 510
SWIDTH 480 0
DWIDTH 10 0
BBX 8 17 1 -1
BITMAP
0C
18
30
02
3E
66
C7
CB
CB
CB
D3
D3
D3
E3
66
7C
80
ENDCHAR
STARTCHAR oslashacute
ENCODING 511
SWIDTH 480 0
DWIDTH 10 0
BBX 8 13 1 -1
BITMAP
06
0C
18
01
3E
66
CB
CB
D3
D3
66
7C
80
ENDCHAR
STARTCHAR uni0200
ENCODING 512
SWIDTH 480 0
DWIDTH 10 0
BBX 8 15 1 0
BITMAP
CC
66
00
18
3C
66
66
C3
C3
C3
FF
C3
C3
C3
C3
ENDCHAR
STARTCHAR uni0201
ENCODING 513
SWIDTH 480 0
DWIDTH 10 0
BBX 8 11 1 0
BITMAP
CC
66
00
3E
63
03
7F
C3
C3
C3
7D
ENDCHAR
STARTCHAR uni0202
ENCODING 514
SWIDTH 480 0
DWIDTH 10 0
BBX 8 15 1 0
BITMAP
3C
66
42
00
18
3C
66
C3
C3
C3
FF
C3
C3
C3
C3
ENDCHAR
STARTCHAR uni0203
ENCODING 515
SWIDTH 480 0
DWIDTH 10 0
BBX 8 12 1 0
BITMAP
3C
66
42
00
3E
63
03
7F
C3
C3
C3
7D
ENDCHAR
STARTCHAR uni0204
ENCODING 516
SWIDTH 480 0
DWIDTH 10 0
BBX 8 15 1 0
BITMAP
CC
66
00
FF
C0
C0
C0
C0
FC
C0
C0
C0
C0
C0
FF
ENDCHAR
STARTCHAR uni0205
ENCODING 517
SWIDTH 480 0
DWIDTH 10 0
BBX 8 11 1 0
BITMAP
CC
66
00
3C
66
C3
FF
C0
C0
63
3E
ENDCHAR
STARTCHAR uni0206
ENCODING 518
SWIDTH 480 0
DWIDTH 10 0
BBX 8 15 1 0
BITMAP
3C
66
42
00
FF
C0
C0
C0
C0
FC
C0
C0
C0
C0
FF
ENDCHAR
STARTCHAR uni0207
ENCODING 519
SWIDTH 480 0
DWIDTH 10 0
BBX 8 12 1 0
BITMAP
3C
66
42
00
3C
66
C3
FF
C0
C0
63
3E
ENDCHAR
STARTCHAR uni0208
ENCODING 520
SWIDTH 480 0
DWIDTH 10 0
BBX 8 15 1 0
BITMAP
CC
66
00
FF
18
18
18
18
18
18
18
18
18
18
FF
ENDCHAR
STARTCHAR uni0209
ENCODING 521
SWIDTH 480 0
DWIDTH 10 0
BBX 8 11 1 0
BITMAP
CC
66
00
78
18
18
18
18
18
18
FF
ENDCHAR
STARTCHAR uni020A
ENCODING 522
SWIDTH 480 0
DWIDTH 10 0
BBX 8 15 1 0
BITMAP
3C
66
42
00
FF
18
18
18
18
18
18
18
18
18
FF
ENDCHAR
STARTCHAR uni020B
ENCODING 523
SWIDTH 480 0
DWIDTH 10 0
BBX 8 12 1 0
BITMAP
3C
66
42
00
78
18
18
18
18
18
18
FF
ENDCHAR
STARTCHAR uni020C
ENCODING 524
SWIDTH 480 0
DWIDTH 10 0
BBX 8 15 1 0
BITMAP
CC
66
00
3C
66
C3
C3
C3
C3
C3
C3
C3
C3
66
3C
ENDCHAR
STARTCHAR uni020D
ENCODING 525
SWIDTH 480 0
DWIDTH 10 0
BBX 8 11 1 0
BITMAP
CC
66
00
3C
66
C3
C3
C3
C3
66
3C
ENDCHAR
STARTCHAR uni020E
ENCODING 526
SWIDTH 480 0
DWIDTH 10 0
BBX 8 15 1 0
BITMAP
3C
66
42
00
3C
66
C3
C3
C3
C3
C3
C3
C3
66
3C
ENDCHAR
STARTCHAR uni020F
ENCODING 527
SWIDTH 480 0
DWIDTH 10 0
BBX 8 12 1 0
BITMAP
3C
66
42
00
3C
66
C3
C3
C3
C3
66
3C
ENDCHAR
STARTCHAR uni0210
ENCODING 528
SWIDTH 480 0
DWIDTH 10 0
BBX 8 15 1 0
BITMAP
CC
66
00
FC
C6
C3
C3
C3
C6
FC
CC
C6
C6
C3
C3
ENDCHAR
STARTCHAR uni0211
ENCODING 529
SWIDTH 480 0
DWIDTH 10 0
BBX 8 11 1 0
BITMAP
CC
66
00
DE
73
60
60
60
60
60
60
ENDCHAR
STARTCHAR uni0212
ENCODING 530
SWIDTH 480 0
DWIDTH 10 0
BBX 8 15 1 0
BITMAP
3C
66
42
00
FC
C6
C3
C3
C6
FC
CC
C6
C6
C3
C3
ENDCHAR
STARTCHAR uni0213
ENCODING 531
SWIDTH 480 0
DWIDTH 10 0
BBX 8 12 1 0
BITMAP
3C
66
42
00
DE
73
60
60
60
60
60
60
ENDCHAR
STARTCHAR uni0214
ENCODING 532
SWIDTH 480 0
DWIDTH 10 0
BBX 8 15 1 0
BITMAP
CC
66
00
C3
C3
C3
C3
C3
C3
C3
C3
C3
C3
66
3C
ENDCHAR
STARTCHAR uni0215
ENCODING 533
SWIDTH 480 0
DWIDTH 10 0
BBX 8 11 1 0
BITMAP
CC
66
00
C3
C3
C3
C3
C3
C3
67
3B
ENDCHAR
STARTCHAR uni0216
ENCODING 534
SWIDTH 480 0
DWIDTH 10 0
BBX 8 15 1 0
BITMAP
3C
66
42
00
C3
C3
C3
C3
C3
C3
C3
C3
C3
66
3C
ENDCHAR
STARTCHAR uni0217
ENCODING 535
SWIDTH 480 0
DWIDTH 10 0
BBX 8 12 1 0
BITMAP
3C
66
42
00
C3
C3
C3
C3
C3
C3
67
3B
ENDCHAR
STARTCHAR Scommaaccent
ENCODING 536
SWIDTH 480 0
DWIDTH 10 0
BBX 8 17 1 -4
BITMAP
3C
66
C3
C0
C0
60
3C
06
03
03
C3
66
3C
00
1C
1C
38
ENDCHAR
STARTCHAR scommaaccent
ENCODING 537
SWIDTH 480 0
DWIDTH 10 0
BBX 8 12 1 -4
BITMAP
7E
C3
C0
7E
03
03
C3
7E
00
1C
1C
38
ENDCHAR
STARTCHAR uni021C
ENCODING 540
SWIDTH 480 0
DWIDTH 10 0
BBX 8 13 1 0
BITMAP
3C
66
06
06
0C
1C
36
63
03
06
0C
38
E0
ENDCHAR
STARTCHAR uni021D
ENCODING 541
SWIDTH 480 0
DWIDTH 10 0
BBX 7 12 2 -4
BITMAP
78
CC
0C
0C
18
38
6C
C6
06
0C
18
F0
ENDCHAR
STARTCHAR uni021E
ENCODING 542
SWIDTH 480 0
DWIDTH 10 0
BBX 8 15 1 0
BITMAP
66
3C
18
C3
C3
C3
C3
C3
FF
C3
C3
C3
C3
C3
C3
ENDCHAR
STARTCHAR uni021F
ENCODING 543
SWIDTH 480 0
DWIDTH 10 0
BBX 8 15 1 0
BITMAP
66
3C
18
C0
C0
C0
C0
DC
E6
C3
C3
C3
C3
C3
C3
ENDCHAR
STARTCHAR uni0220
ENCODING 544
SWIDTH 480 0
DWIDTH 10 0
BBX 8 17 1 -4
BITMAP
DC
E6
C3
C3
C3
C3
C3
C3
C3
C3
C3
C3
C3
03
03
03
03
ENDCHAR
STARTCHAR uni0221
ENCODING 545
SWIDTH 480 0
DWIDTH 10 0
BBX 8 15 1 -2
BITMAP
0C
0C
0C
0C
0C
2C
7C
CC
CC
CC
CF
7D
3D
06
08
ENDCHAR
STARTCHAR uni0222
ENCODING 546
SWIDTH 480 0
DWIDTH 10 0
BBX 8 13 1 0
BITMAP
0C
06
63
C3
C3
66
3C
66
C3
C3
C3
66
3C
ENDCHAR
STARTCHAR uni0223
ENCODING 547
SWIDTH 480 0
DWIDTH 10 0
BBX 8 10 1 0
BITMAP
66
C3
C3
66
3C
66
C3
C3
66
3C
ENDCHAR
STARTCHAR uni0224
ENCODING 548
SWIDTH 480 0
DWIDTH 10 0
BBX 9 16 1 -3
BITMAP
FF00
0300
0300
0600
0C00
0C00
1800
3000
3000
6000
C000
C000
FF00
0180
0300
0200
ENDCHAR
STARTCHAR uni0225
ENCODING 549
SWIDTH 480 0
DWIDTH 10 0
BBX 8 11 2 -3
BITMAP
FE
06
0C
18
30
60
C0
FE
03
06
04
ENDCHAR
STARTCHAR uni0226
ENCODING 550
SWIDTH 480 0
DWIDTH 10 0
BBX 8 15 1 0
BITMAP
18
18
00
18
3C
66
66
C3
C3
C3
FF
C3
C3
C3
C3
ENDCHAR
STARTCHAR uni0227
ENCODING 551
SWIDTH 480 0
DWIDTH 10 0
BBX 8 11 1 0
BITMAP
18
18
00
3E
63
03
7F
C3
C3
C3
7D
ENDCHAR
STARTCHAR uni0228
ENCODING 552
SWIDTH 480 0
DWIDTH 10 0
BBX 8 17 1 -4
BITMAP
FF
C0
C0
C0
C0
C0
FC
C0
C0
C0
C0
C0
FF
18
0C
6C
38
ENDCHAR
STARTCHAR uni0229
ENCODING 553
SWIDTH 480 0
DWIDTH 10 0
BBX 8 12 1 -4
BITMAP
3C
66
C3
FF
C0
C0
63
3E
18
0C
6C
38
ENDCHAR
STARTCHAR uni022A
ENCODING 554
SWIDTH 480 0
DWIDTH 10 0
BBX 8 16 1 0
BITMAP
FF
00
66
66
00
3C
66
C3
C3
C3
C3
C3
C3
C3
66
3C
ENDCHAR
STARTCHAR uni022B
ENCODING 555
SWIDTH 480 0
DWIDTH 10 0
BBX 8 13 1 0
BITMAP
FF
00
66
66
00
3C
66
C3
C3
C3
C3
66
3C
ENDCHAR
STARTCHAR uni022C
ENCODING 556
SWIDTH 480 0
DWIDTH 10 0
BBX 8 16 1 0
BITMAP
FF
00
32
7E
4C
00
3C
66
C3
C3
C3
C3
C3
C3
66
3C
ENDCHAR
STARTCHAR uni022D
ENCODING 557
SWIDTH 480 0
DWIDTH 10 0
BBX 8 14 1 0
BITMAP
FF
00
32
7E
4C
00
3C
66
C3
C3
C3
C3
66
3C
ENDCHAR
STARTCHAR uni022E
ENCODING 558
SWIDTH 480 0
DWIDTH 10 0
BBX 8 15 1 0
BITMAP
18
18
00
3C
66
C3
C3
C3
C3
C3
C3
C3
C3
66
3C
ENDCHAR
STARTCHAR uni022F
ENCODING 559
SWIDTH 480 0
DWIDTH 10 0
BBX 8 11 1 0
BITMAP
18
18
00
3C
66
C3
C3
C3
C3
66
3C
ENDCHAR
STARTCHAR uni0230
ENCODING 560
SWIDTH 480 0
DWIDTH 10 0
BBX 8 16 1 0
BITMAP
FF
00
18
18
00
3C
66
C3
C3
C3
C3
C3
C3
C3
66
3C
ENDCHAR
STARTCHAR uni0231
ENCODING 561
SWIDTH 480 0
DWIDTH 10 0
BBX 8 13 1 0
BITMAP
FF
00
18
18
00
3C
66
C3
C3
C3
C3
66
3C
ENDCHAR
STARTCHAR uni0232
ENCODING 562
SWIDTH 480 0
DWIDTH 10 0
BBX 8 15 1 0
BITMAP
FF
00
C3
C3
66
66
3C
3C
18
18
18
18
18
18
18
ENDCHAR
STARTCHAR uni0233
ENCODING 563
SWIDTH 480 0
DWIDTH 10 0
BBX 8 14 1 -4
BITMAP
FF
00
C3
C3
C3
C3
C3
C3
67
3B
03
C3
66
3C
ENDCHAR
STARTCHAR uni0234
ENCODING 564
SWIDTH 480 0
DWIDTH 10 0
BBX 8 15 1 -2
BITMAP
F0
30
30
30
30
30
30
30
30
30
32
35
19
0E
10
ENDCHAR
STARTCHAR uni0235
ENCODING 565
SWIDTH 480 0
DWIDTH 10 0
BBX 8 11 1 -3
BITMAP
D8
EC
CC
CC
CC
CC
CF
CD
0D
06
08
ENDCHAR
STARTCHAR uni0236
ENCODING 566
SWIDTH 480 0
DWIDTH 10 0
BBX 8 13 1 -2
BITMAP
30
30
30
FC
30
30
30
30
32
3D
19
0E
10
ENDCHAR
STARTCHAR uni0237
ENCODING 567
SWIDTH 480 0
DWIDTH 10 0
BBX 7 12 2 -4
BITMAP
1E
06
06
06
06
06
06
06
C6
C6
C6
7C
ENDCHAR
STARTCHAR uni0238
ENCODING 568
SWIDTH 480 0
DWIDTH 10 0
BBX 8 13 1 0
BITMAP
18
18
18
18
18
7E
DB
99
99
99
99
BD
5A
ENDCHAR
STARTCHAR uni0239
ENCODING 569
SWIDTH 480 0
DWIDTH 10 0
BBX 8 12 1 -4
BITMAP
7E
DB
99
99
99
99
BD
5A
18
18
18
18
ENDCHAR
STARTCHAR uni023A
ENCODING 570
SWIDTH 480 0
DWIDTH 10 0
BBX 10 12 0 0
BITMAP
0C40
1EC0
3380
3300
6780
6D80
7980
7F80
6180
E180
E180
6180
ENDCHAR
STARTCHAR uni023B
ENCODING 571
SWIDTH 480 0
DWIDTH 10 0
BBX 10 13 0 0
BITMAP
1E00
3340
61C0
6180
6300
6600
6C00
7800
7000
6000
E180
B300
1E00
ENDCHAR
STARTCHAR uni023C
ENCODING 572
SWIDTH 480 0
DWIDTH 10 0
BBX 10 9 0 0
BITMAP
00C0
1F80
3380
6600
6C00
7800
7000
7180
DF00
ENDCHAR
STARTCHAR uni023D
ENCODING 573
SWIDTH 480 0
DWIDTH 10 0
BBX 9 13 0 0
BITMAP
6000
6000
6000
6000
6000
6000
F800
6000
6000
6000
6000
6000
7F80
ENDCHAR
STARTCHAR uni023E
ENCODING 574
SWIDTH 480 0
DWIDTH 10 0
BBX 8 13 1 0
BITMAP
FF
18
19
1B
1E
1C
18
38
78
D8
98
18
18
ENDCHAR
STARTCHAR uni023F
ENCODING 575
SWIDTH 480 0
DWIDTH 10 0
BBX 8 11 1 -3
BITMAP
7E
C3
C0
7E
03
03
C3
7E
60
3B
0E
ENDCHAR
STARTCHAR uni0240
ENCODING 576
SWIDTH 480 0
DWIDTH 10 0
BBX 7 11 2 -3
BITMAP
FE
06
0C
18
30
60
C0
C0
C0
76
1C
ENDCHAR
STARTCHAR uni0241
ENCODING 577
SWIDTH 480 0
DWIDTH 10 0
BBX 8 13 1 0
BITMAP
3C
66
C3
C3
03
06
1C
18
18
18
18
18
18
ENDCHAR
STARTCHAR uni0242
ENCODING 578
SWIDTH 480 0
DWIDTH 10 0
BBX 8 8 1 0
BITMAP
3C
66
C3
C3
06
1C
18
18
ENDCHAR
STARTCHAR uni0243
ENCODING 579
SWIDTH 480 0
DWIDTH 10 0
BBX 10 13 0 0
BITMAP
7C00
6640
63C0
6380
6300
6600
7E00
7B00
7180
6180
E180
E300
7E00
ENDCHAR
STARTCHAR uni0244
ENCODING 580
SWIDTH 480 0
DWIDTH 10 0
BBX 10 13 0 0
BITMAP
6180
61C0
61C0
6180
6380
6780
6D80
7980
7180
6180
E180
B300
1E00
ENDCHAR
STARTCHAR uni0245
ENCODING 581
SWIDTH 480 0
DWIDTH 10 0
BBX 8 13 1 0
BITMAP
18
18
18
3C
3C
3C
66
66
66
C3
C3
C3
C3
ENDCHAR
STARTCHAR uni0246
ENCODING 582
SWIDTH 480 0
DWIDTH 10 0
BBX 10 13 0 0
BITMAP
7F80
6040
60C0
6180
6300
6600
7F00
7800
7000
6000
E000
E000
7F80
ENDCHAR
STARTCHAR uni0247
ENCODING 583
SWIDTH 480 0
DWIDTH 10 0
BBX 9 8 0 0
BITMAP
1F80
3300
6780
6D80
7F80
7000
7180
DF00
ENDCHAR
STARTCHAR uni0248
ENCODING 584
SWIDTH 480 0
DWIDTH 10 0
BBX 9 13 1 0
BITMAP
1F80
0600
0600
0600
0600
0600
1F80
0600
0600
C600
C600
6C00
3800
ENDCHAR
STARTCHAR uni0249
ENCODING 585
SWIDTH 480 0
DWIDTH 10 0
BBX 8 15 2 -4
BITMAP
06
06
00
1E
06
06
1F
06
06
06
06
C6
C6
C6
7C
ENDCHAR
STARTCHAR uni024A
ENCODING 586
SWIDTH 480 0
DWIDTH 10 0
BBX 9 17 1 -4
BITMAP
3D00
6700
C300
C300
C300
C300
C300
C300
C300
C300
C300
6700
3F00
0300
0300
0300
0180
ENDCHAR
STARTCHAR uni024B
ENCODING 587
SWIDTH 480 0
DWIDTH 10 0
BBX 9 12 1 -4
BITMAP
3B00
6700
C300
C300
C300
C300
6700
3B00
0300
0300
0300
0180
ENDCHAR
STARTCHAR uni024C
ENCODING 588
SWIDTH 480 0
DWIDTH 10 0
BBX 9 13 0 0
BITMAP
7E00
6300
6180
6180
6180
6180
6300
FE00
6600
6300
6300
6180
6180
ENDCHAR
STARTCHAR uni024D
ENCODING 589
SWIDTH 480 0
DWIDTH 10 0
BBX 8 8 1 0
BITMAP
DE
73
60
F8
60
60
60
60
ENDCHAR
STARTCHAR uni024E
ENCODING 590
SWIDTH 480 0
DWIDTH 10 0
BBX 10 13 0 0
BITMAP
6180
6180
FFC0
3300
1E00
1E00
0C00
0C00
0C00
0C00
0C00
0C00
0C00
ENDCHAR
STARTCHAR uni024F
ENCODING 591
SWIDTH 480 0
DWIDTH 10 0
BBX 10 12 0 -4
BITMAP
6180
6180
6180
FFC0
6180
6180
3380
1D80
0180
6180
3300
1E00
ENDCHAR
STARTCHAR uni0250
ENCODING 592
SWIDTH 480 0
DWIDTH 10 0
BBX 8 8 1 0
BITMAP
BE
C3
C3
C3
FE
C0
C6
7C
ENDCHAR
STARTCHAR uni0251
ENCODING 593
SWIDTH 480 0
DWIDTH 10 0
BBX 8 8 1 0
BITMAP
3E
6E
C6
C6
C6
C6
6E
3B
ENDCHAR
STARTCHAR uni0252
ENCODING 594
SWIDTH 480 0
DWIDTH 10 0
BBX 8 8 1 0
BITMAP
DC
76
63
63
63
63
76
7C
ENDCHAR
STARTCHAR uni0253
ENCODING 595
SWIDTH 480 0
DWIDTH 10 0
BBX 8 13 1 0
BITMAP
3C
60
C0
C0
C0
DC
E6
C3
C3
C3
C3
E6
DC
ENDCHAR
STARTCHAR uni0254
ENCODING 596
SWIDTH 480 0
DWIDTH 10 0
BBX 8 8 1 0
BITMAP
7C
C6
03
03
03
03
C6
7C
ENDCHAR
STARTCHAR uni0255
ENCODING 597
SWIDTH 480 0
DWIDTH 10 0
BBX 8 10 1 -2
BITMAP
3E
63
C0
C0
C6
CB
6B
3E
10
10
ENDCHAR
STARTCHAR uni0256
ENCODING 598
SWIDTH 480 0
DWIDTH 10 0
BBX 9 16 1 -3
BITMAP
0300
0300
0300
0300
0300
3B00
6700
C300
C300
C300
C300
6700
3B00
0300
0300
0180
ENDCHAR
STARTCHAR uni0257
ENCODING 599
SWIDTH 480 0
DWIDTH 10 0
BBX 9 14 1 0
BITMAP
0380
0600
0600
0600
0600
0600
3600
6E00
C600
C600
C600
C600
6E00
3600
ENDCHAR
STARTCHAR uni0258
ENCODING 600
SWIDTH 480 0
DWIDTH 10 0
BBX 8 8 1 0
BITMAP
3C
66
C3
FF
03
03
C6
7C
ENDCHAR
STARTCHAR uni0259
ENCODING 601
SWIDTH 480 0
DWIDTH 10 0
BBX 8 8 1 0
BITMAP
7C
C6
03
03
FF
C3
66
3C
ENDCHAR
STARTCHAR uni025A
ENCODING 602
SWIDTH 480 0
DWIDTH 10 0
BBX 9 8 1 0
BITMAP
7800
CD80
0680
1E00
E600
C600
6C00
3800
ENDCHAR
STARTCHAR uni025B
ENCODING 603
SWIDTH 480 0
DWIDTH 10 0
BBX 8 8 1 0
BITMAP
7E
C3
C0
78
C0
C0
C3
7E
ENDCHAR
STARTCHAR uni025C
ENCODING 604
SWIDTH 480 0
DWIDTH 10 0
BBX 8 8 1 0
BITMAP
7E
C3
03
1E
03
03
C3
7E
ENDCHAR
STARTCHAR uni025D
ENCODING 605
SWIDTH 480 0
DWIDTH 10 0
BBX 9 8 1 0
BITMAP
7800
CE80
0D00
3800
0C00
0C00
CC00
7800
ENDCHAR
STARTCHAR uni025E
ENCODING 606
SWIDTH 480 0
DWIDTH 10 0
BBX 8 8 1 0
BITMAP
7E
C3
C3
CE
C3
C3
C3
7E
ENDCHAR
STARTCHAR uni025F
ENCODING 607
SWIDTH 480 0
DWIDTH 10 0
BBX 8 12 1 -4
BITMAP
0C
0C
0C
0C
0C
0C
3F
0C
0C
CC
CC
78
ENDCHAR
STARTCHAR uni0260
ENCODING 608
SWIDTH 480 0
DWIDTH 10 0
BBX 9 15 1 -4
BITMAP
0180
0300
0300
3B00
6700
C300
C300
C300
C300
6700
3B00
0300
C300
6600
3C00
ENDCHAR
STARTCHAR uni0261
ENCODING 609
SWIDTH 480 0
DWIDTH 10 0
BBX 8 12 1 -4
BITMAP
3B
67
C3
C3
C3
C3
67
3B
03
C3
66
3C
ENDCHAR
STARTCHAR uni0262
ENCODING 610
SWIDTH 480 0
DWIDTH 10 0
BBX 8 8 1 0
BITMAP
3C
66
C3
C0
CF
C3
67
3D
ENDCHAR
STARTCHAR uni0263
ENCODING 611
SWIDTH 480 0
DWIDTH 10 0
BBX 8 11 1 -3
BITMAP
C3
C3
66
66
3C
3C
18
3C
66
66
3C
ENDCHAR
STARTCHAR uni0264
ENCODING 612
SWIDTH 480 0
DWIDTH 10 0
BBX 7 8 1 0
BITMAP
C6
6C
38
38
38
6C
6C
38
ENDCHAR
STARTCHAR uni0265
ENCODING 613
SWIDTH 480 0
DWIDTH 10 0
BBX 8 12 1 -4
BITMAP
C3
C3
C3
C3
C3
C3
67
3B
03
03
03
03
ENDCHAR
STARTCHAR uni0266
ENCODING 614
SWIDTH 480 0
DWIDTH 10 0
BBX 8 13 1 0
BITMAP
3C
66
C0
C0
C0
DC
E6
C3
C3
C3
C3
C3
C3
ENDCHAR
STARTCHAR uni0267
ENCODING 615
SWIDTH 480 0
DWIDTH 10 0
BBX 8 17 1 -4
BITMAP
3C
66
C0
C0
C0
DC
E6
C3
C3
C3
C3
C3
C3
03
03
03
06
ENDCHAR
STARTCHAR uni0268
ENCODING 616
SWIDTH 480 0
DWIDTH 10 0
BBX 8 11 1 0
BITMAP
18
18
00
78
18
18
7E
18
18
18
FF
ENDCHAR
STARTCHAR uni0269
ENCODING 617
SWIDTH 480 0
DWIDTH 10 0
BBX 5 8 3 0
BITMAP
E0
60
60
60
60
60
60
38
ENDCHAR
STARTCHAR uni026A
ENCODING 618
SWIDTH 480 0
DWIDTH 10 0
BBX 8 8 1 0
BITMAP
FF
18
18
18
18
18
18
FF
ENDCHAR
STARTCHAR uni026B
ENCODING 619
SWIDTH 480 0
DWIDTH 10 0
BBX 8 13 1 0
BITMAP
78
18
18
18
18
79
FF
9E
18
18
18
18
FF
ENDCHAR
STARTCHAR uni026C
ENCODING 620
SWIDTH 480 0
DWIDTH 10 0
BBX 8 13 1 0
BITMAP
78
18
18
18
18
78
D8
7F
18
18
18
18
FF
ENDCHAR
STARTCHAR uni026D
ENCODING 621
SWIDTH 480 0
DWIDTH 10 0
BBX 5 17 2 -4
BITMAP
F0
30
30
30
30
30
30
30
30
30
30
30
30
30
30
30
18
ENDCHAR
STARTCHAR uni026E
ENCODING 622
SWIDTH 480 0
DWIDTH 10 0
BBX 9 17 1 -4
BITMAP
E000
6000
6000
6000
6000
7F80
6180
6180
6300
6600
6300
6180
F180
0180
6180
3300
1E00
ENDCHAR
STARTCHAR uni026F
ENCODING 623
SWIDTH 480 0
DWIDTH 10 0
BBX 8 8 1 0
BITMAP
DB
DB
DB
DB
DB
DB
FF
6D
ENDCHAR
STARTCHAR uni0270
ENCODING 624
SWIDTH 480 0
DWIDTH 10 0
BBX 8 12 1 -4
BITMAP
DB
DB
DB
DB
DB
DB
FF
6F
03
03
03
03
ENDCHAR
STARTCHAR uni0271
ENCODING 625
SWIDTH 480 0
DWIDTH 10 0
BBX 8 12 1 -4
BITMAP
B6
FF
DB
DB
DB
DB
DB
DB
03
03
03
06
ENDCHAR
STARTCHAR uni0272
ENCODING 626
SWIDTH 480 0
DWIDTH 10 0
BBX 9 12 0 -4
BITMAP
6E00
7300
6180
6180
6180
6180
6180
6180
6000
6000
6000
C000
ENDCHAR
STARTCHAR uni0273
ENCODING 627
SWIDTH 480 0
DWIDTH 10 0
BBX 9 12 1 -4
BITMAP
DC00
E600
C300
C300
C300
C300
C300
C300
0300
0300
0300
0180
ENDCHAR
STARTCHAR uni0274
ENCODING 628
SWIDTH 480 0
DWIDTH 10 0
BBX 8 8 1 0
BITMAP
C3
E3
F3
DB
DB
CF
C7
C3
ENDCHAR
STARTCHAR uni0275
ENCODING 629
SWIDTH 480 0
DWIDTH 10 0
BBX 8 8 1 0
BITMAP
3C
66
C3
FF
C3
C3
66
3C
ENDCHAR
STARTCHAR uni0276
ENCODING 630
SWIDTH 480 0
DWIDTH 10 0
BBX 8 8 1 0
BITMAP
7F
D8
D8
DE
D8
D8
D8
7F
ENDCHAR
STARTCHAR uni0277
ENCODING 631
SWIDTH 480 0
DWIDTH 10 0
BBX 8 8 1 0
BITMAP
3C
66
C3
C3
DB
DB
DB
7E
ENDCHAR
STARTCHAR uni0278
ENCODING 632
SWIDTH 480 0
DWIDTH 10 0
BBX 8 16 1 -4
BITMAP
18
18
18
18
7E
DB
DB
DB
DB
DB
DB
7E
18
18
18
18
ENDCHAR
STARTCHAR uni0279
ENCODING 633
SWIDTH 480 0
DWIDTH 10 0
BBX 8 8 1 0
BITMAP
06
06
06
06
06
06
CE
7B
ENDCHAR
STARTCHAR uni027A
ENCODING 634
SWIDTH 480 0
DWIDTH 10 0
BBX 8 13 1 0
BITMAP
06
06
06
06
06
06
06
06
06
06
06
CE
7B
ENDCHAR
STARTCHAR uni027B
ENCODING 635
SWIDTH 480 0
DWIDTH 10 0
BBX 8 12 1 -4
BITMAP
0C
0C
0C
0C
0C
0C
DC
7C
0C
0C
0D
06
ENDCHAR
STARTCHAR uni027C
ENCODING 636
SWIDTH 480 0
DWIDTH 10 0
BBX 8 12 1 -4
BITMAP
DE
73
60
60
60
60
60
60
60
60
60
60
ENDCHAR
STARTCHAR uni027D
ENCODING 637
SWIDTH 480 0
DWIDTH 10 0
BBX 8 12 1 -4
BITMAP
DE
73
60
60
60
60
60
60
60
60
64
38
ENDCHAR
STARTCHAR uni027E
ENCODING 638
SWIDTH 480 0
DWIDTH 10 0
BBX 7 8 2 0
BITMAP
3C
66
C0
C0
C0
C0
C0
C0
ENDCHAR
STARTCHAR uni027F
ENCODING 639
SWIDTH 480 0
DWIDTH 10 0
BBX 7 8 2 0
BITMAP
78
CC
06
06
06
06
06
06
ENDCHAR
STARTCHAR uni0280
ENCODING 640
SWIDTH 480 0
DWIDTH 10 0
BBX 8 8 1 0
BITMAP
FE
C3
C3
C6
FC
C6
C3
C3
ENDCHAR
STARTCHAR uni0281
ENCODING 641
SWIDTH 480 0
DWIDTH 10 0
BBX 8 8 1 0
BITMAP
C3
C3
C6
FC
C6
C3
C3
FE
ENDCHAR
STARTCHAR uni0282
ENCODING 642
SWIDTH 480 0
DWIDTH 10 0
BBX 8 12 1 -4
BITMAP
7E
C3
C0
7E
03
03
C3
FE
C0
C0
60
38
ENDCHAR
STARTCHAR uni0283
ENCODING 643
SWIDTH 480 0
DWIDTH 10 0
BBX 6 17 2 -4
BITMAP
1C
30
30
30
30
30
30
30
30
30
30
30
30
30
30
30
E0
ENDCHAR
STARTCHAR uni0284
ENCODING 644
SWIDTH 480 0
DWIDTH 10 0
BBX 8 16 1 -4
BITMAP
07
0C
0C
0C
0C
0C
0C
0C
0C
0C
3F
0C
0C
CC
CC
78
ENDCHAR
STARTCHAR uni0285
ENCODING 645
SWIDTH 480 0
DWIDTH 10 0
BBX 6 12 2 -4
BITMAP
E0
30
30
30
30
30
30
30
30
30
30
1C
ENDCHAR
STARTCHAR uni0286
ENCODING 646
SWIDTH 480 0
DWIDTH 10 0
BBX 8 17 1 -4
BITMAP
0E
18
18
18
18
18
18
18
18
18
18
18
18
7E
DB
DB
70
ENDCHAR
STARTCHAR uni0287
ENCODING 647
SWIDTH 480 0
DWIDTH 10 0
BBX 8 12 1 -4
BITMAP
78
CC
0C
0C
0C
0C
0C
3F
0C
0C
0C
0C
ENDCHAR
STARTCHAR uni0288
ENCODING 648
SWIDTH 480 0
DWIDTH 10 0
BBX 6 15 1 -4
BITMAP
30
30
30
FC
30
30
30
30
30
30
30
30
30
30
1C
ENDCHAR
STARTCHAR uni0289
ENCODING 649
SWIDTH 480 0
DWIDTH 10 0
BBX 10 8 0 0
BITMAP
6180
6180
6180
FFC0
6180
6180
3380
1D80
ENDCHAR
STARTCHAR uni028A
ENCODING 650
SWIDTH 480 0
DWIDTH 10 0
BBX 8 8 1 0
BITMAP
E7
66
C3
C3
C3
C3
66
3C
ENDCHAR
STARTCHAR uni028B
ENCODING 651
SWIDTH 480 0
DWIDTH 10 0
BBX 8 8 1 0
BITMAP
CC
C6
C6
C3
C3
C7
FE
7C
ENDCHAR
STARTCHAR uni028C
ENCODING 652
SWIDTH 480 0
DWIDTH 10 0
BBX 8 8 1 0
BITMAP
18
18
3C
3C
66
66
C3
C3
ENDCHAR
STARTCHAR uni028D
ENCODING 653
SWIDTH 480 0
DWIDTH 10 0
BBX 8 8 1 0
BITMAP
66
FF
DB
DB
DB
C3
C3
C3
ENDCHAR
STARTCHAR uni028E
ENCODING 654
SWIDTH 480 0
DWIDTH 10 0
BBX 8 12 1 0
BITMAP
0E
1B
1B
30
30
38
7C
6C
66
C6
C3
C3
ENDCHAR
STARTCHAR uni028F
ENCODING 655
SWIDTH 480 0
DWIDTH 10 0
BBX 8 8 1 0
BITMAP
C3
C3
66
3C
18
18
18
18
ENDCHAR
STARTCHAR uni0290
ENCODING 656
SWIDTH 480 0
DWIDTH 10 0
BBX 8 12 2 -4
BITMAP
FE
06
0C
18
30
60
C0
FE
06
06
06
03
ENDCHAR
STARTCHAR uni0291
ENCODING 657
SWIDTH 480 0
DWIDTH 10 0
BBX 7 10 2 -2
BITMAP
FE
06
0C
18
30
6C
D2
FC
20
20
ENDCHAR
STARTCHAR uni0292
ENCODING 658
SWIDTH 480 0
DWIDTH 10 0
BBX 8 12 1 -4
BITMAP
7F
03
06
0C
18
3E
03
03
C3
C3
66
3C
ENDCHAR
STARTCHAR uni0293
ENCODING 659
SWIDTH 480 0
DWIDTH 10 0
BBX 8 12 1 -4
BITMAP
7F
03
06
0C
18
3E
03
73
DB
CE
66
3B
ENDCHAR
STARTCHAR uni0294
ENCODING 660
SWIDTH 480 0
DWIDTH 10 0
BBX 8 13 1 0
BITMAP
3C
66
C3
C3
03
06
1C
18
18
18
18
18
18
ENDCHAR
STARTCHAR uni0295
ENCODING 661
SWIDTH 480 0
DWIDTH 10 0
BBX 8 13 1 0
BITMAP
3C
66
C3
C3
C0
60
38
18
18
18
18
18
18
ENDCHAR
STARTCHAR uni0296
ENCODING 662
SWIDTH 480 0
DWIDTH 10 0
BBX 8 13 1 0
BITMAP
18
18
18
18
18
18
1C
06
03
C3
C3
66
3C
ENDCHAR
STARTCHAR uni0297
ENCODING 663
SWIDTH 480 0
DWIDTH 10 0
BBX 8 12 1 -2
BITMAP
3E
63
C0
C0
C0
C0
C0
C0
C0
C0
63
3E
ENDCHAR
STARTCHAR uni0298
ENCODING 664
SWIDTH 480 0
DWIDTH 10 0
BBX 8 8 1 0
BITMAP
3C
66
C3
DB
DB
C3
66
3C
ENDCHAR
STARTCHAR uni0299
ENCODING 665
SWIDTH 480 0
DWIDTH 10 0
BBX 8 8 1 0
BITMAP
FE
C3
C3
FE
C3
C3
C3
FE
ENDCHAR
STARTCHAR uni029A
ENCODING 666
SWIDTH 480 0
DWIDTH 10 0
BBX 8 8 1 0
BITMAP
7E
C3
C3
73
C3
C3
C3
7E
ENDCHAR
STARTCHAR uni029B
ENCODING 667
SWIDTH 480 0
DWIDTH 10 0
BBX 9 11 1 0
BITMAP
0180
0300
0300
3F00
6300
C000
C000
CF00
C300
6700
3D00
ENDCHAR
STARTCHAR uni029C
ENCODING 668
SWIDTH 480 0
DWIDTH 10 0
BBX 8 8 1 0
BITMAP
C3
C3
C3
FF
C3
C3
C3
C3
ENDCHAR
STARTCHAR uni029D
ENCODING 669
SWIDTH 480 0
DWIDTH 10 0
BBX 9 15 1 -4
BITMAP
0600
0600
0000
1E00
0600
0600
0600
0600
0600
0600
7600
DE00
CE00
C700
7D80
ENDCHAR
STARTCHAR uni029E
ENCODING 670
SWIDTH 480 0
DWIDTH 10 0
BBX 8 12 1 -4
BITMAP
C3
63
33
1F
0F
1B
33
63
03
03
03
03
ENDCHAR
STARTCHAR uni029F
ENCODING 671
SWIDTH 480 0
DWIDTH 10 0
BBX 6 8 2 0
BITMAP
C0
C0
C0
C0
C0
C0
C0
FC
ENDCHAR
STARTCHAR uni02A0
ENCODING 672
SWIDTH 480 0
DWIDTH 10 0
BBX 9 17 1 -4
BITMAP
0180
0300
0300
0300
0300
3B00
6700
C300
C300
C300
C300
6700
3B00
0300
0300
0300
0300
ENDCHAR
STARTCHAR uni02A1
ENCODING 673
SWIDTH 480 0
DWIDTH 10 0
BBX 8 13 1 0
BITMAP
3C
66
C3
C3
03
06
1C
18
18
7E
18
18
18
ENDCHAR
STARTCHAR uni02A2
ENCODING 674
SWIDTH 480 0
DWIDTH 10 0
BBX 8 13 1 0
BITMAP
3C
66
C3
C3
C0
60
38
18
18
7E
18
18
18
ENDCHAR
STARTCHAR uni02A3
ENCODING 675
SWIDTH 480 0
DWIDTH 10 0
BBX 10 13 0 0
BITMAP
0C00
0C00
0C00
0C00
0C00
6FC0
DCC0
CCC0
CD80
CD80
CF00
DF00
6FC0
ENDCHAR
STARTCHAR uni02A4
ENCODING 676
SWIDTH 480 0
DWIDTH 10 0
BBX 10 17 0 -4
BITMAP
0C00
0C00
0C00
0C00
0C00
6FC0
DCC0
CCC0
CD80
CF00
CD80
DCC0
6CC0
00C0
00C0
1980
0F00
ENDCHAR
STARTCHAR uni02A5
ENCODING 677
SWIDTH 480 0
DWIDTH 10 0
BBX 10 15 0 -2
BITMAP
1800
1800
1800
1800
1800
7FC0
D8C0
D980
DB00
DE80
DD40
D940
7F80
0200
0200
ENDCHAR
STARTCHAR uni02A6
ENCODING 678
SWIDTH 480 0
DWIDTH 10 0
BBX 9 11 0 0
BITMAP
6000
6000
6000
FF00
6D80
6C00
6600
6300
6180
6180
3F00
ENDCHAR
STARTCHAR uni02A7
ENCODING 679
SWIDTH 480 0
DWIDTH 10 0
BBX 10 17 0 -4
BITMAP
01C0
0300
6300
6300
6300
FF00
6300
6300
6300
6300
6300
6300
3B00
0300
0300
0300
0E00
ENDCHAR
STARTCHAR uni02A8
ENCODING 680
SWIDTH 480 0
DWIDTH 10 0
BBX 10 13 0 -2
BITMAP
6000
6000
6000
FF80
66C0
6C00
6C00
6C80
6D40
6540
3F80
0200
0200
ENDCHAR
STARTCHAR uni02A9
ENCODING 681
SWIDTH 480 0
DWIDTH 10 0
BBX 9 17 0 -4
BITMAP
3C00
6600
6600
6000
6000
FF00
6D80
6D80
6D80
6D80
6D80
6D80
6D80
0180
0180
0180
0300
ENDCHAR
STARTCHAR uni02AA
ENCODING 682
SWIDTH 480 0
DWIDTH 10 0
BBX 8 13 1 0
BITMAP
E0
60
60
60
60
6E
7B
78
6E
63
63
63
FE
ENDCHAR
STARTCHAR uni02AB
ENCODING 683
SWIDTH 480 0
DWIDTH 10 0
BBX 8 13 1 0
BITMAP
E0
60
60
60
60
7F
63
66
66
6C
6C
78
FF
ENDCHAR
STARTCHAR uni02AC
ENCODING 684
SWIDTH 480 0
DWIDTH 10 0
BBX 8 13 1 0
BITMAP
C3
C3
DB
DB
FF
66
00
C3
C3
DB
DB
FF
66
ENDCHAR
STARTCHAR uni02AD
ENCODING 685
SWIDTH 480 0
DWIDTH 10 0
BBX 8 8 1 2
BITMAP
FF
C3
C3
00
00
FF
C3
C3
ENDCHAR
STARTCHAR uni02AE
ENCODING 686
SWIDTH 480 0
DWIDTH 10 0
BBX 8 12 1 -4
BITMAP
63
B3
33
33
33
33
17
0B
03
03
03
03
ENDCHAR
STARTCHAR uni02AF
ENCODING 687
SWIDTH 480 0
DWIDTH 10 0
BBX 8 12 1 -4
BITMAP
44
A4
24
24
24
24
2C
14
04
04
05
02
ENDCHAR
STARTCHAR uni02B0
ENCODING 688
SWIDTH 480 0
DWIDTH 10 0
BBX 6 8 1 6
BITMAP
C0
C0
D8
EC
CC
CC
CC
CC
ENDCHAR
STARTCHAR uni02B1
ENCODING 689
SWIDTH 480 0
DWIDTH 10 0
BBX 6 9 1 6
BITMAP
70
C0
C0
D8
EC
CC
CC
CC
CC
ENDCHAR
STARTCHAR uni02B2
ENCODING 690
SWIDTH 480 0
DWIDTH 10 0
BBX 6 10 1 5
BITMAP
0C
0C
00
3C
0C
0C
0C
CC
CC
78
ENDCHAR
STARTCHAR uni02B3
ENCODING 691
SWIDTH 480 0
DWIDTH 10 0
BBX 6 6 1 6
BITMAP
D8
EC
C0
C0
C0
C0
ENDCHAR
STARTCHAR uni02B4
ENCODING 692
SWIDTH 480 0
DWIDTH 10 0
BBX 6 6 1 6
BITMAP
0C
0C
0C
0C
DC
6C
ENDCHAR
STARTCHAR uni02B5
ENCODING 693
SWIDTH 480 0
DWIDTH 10 0
BBX 7 8 1 4
BITMAP
0C
0C
0C
0C
DC
6C
0C
06
ENDCHAR
STARTCHAR uni02B6
ENCODING 694
SWIDTH 480 0
DWIDTH 10 0
BBX 7 6 1 6
BITMAP
C6
C6
FC
C6
C6
FC
ENDCHAR
STARTCHAR uni02B7
ENCODING 695
SWIDTH 480 0
DWIDTH 10 0
BBX 8 6 1 6
BITMAP
DB
DB
DB
DB
7E
66
ENDCHAR
STARTCHAR uni02B8
ENCODING 696
SWIDTH 480 0
DWIDTH 10 0
BBX 7 8 1 4
BITMAP
C6
C6
C6
C6
C6
7E
06
7C
ENDCHAR
STARTCHAR uni02B9
ENCODING 697
SWIDTH 480 0
DWIDTH 10 0
BBX 5 4 2 9
BITMAP
18
30
60
C0
ENDCHAR
STARTCHAR uni02BA
ENCODING 698
SWIDTH 480 0
DWIDTH 10 0
BBX 9 4 1 9
BITMAP
1980
3300
6600
CC00
ENDCHAR
STARTCHAR uni02BB
ENCODING 699
SWIDTH 480 0
DWIDTH 10 0
BBX 3 4 3 9
BITMAP
60
C0
E0
E0
ENDCHAR
STARTCHAR afii57929
ENCODING 700
SWIDTH 480 0
DWIDTH 10 0
BBX 3 4 4 9
BITMAP
E0
E0
60
C0
ENDCHAR
STARTCHAR afii64937
ENCODING 701
SWIDTH 480 0
DWIDTH 10 0
BBX 3 4 4 9
BITMAP
E0
E0
C0
60
ENDCHAR
STARTCHAR uni02BE
ENCODING 702
SWIDTH 480 0
DWIDTH 10 0
BBX 3 4 4 9
BITMAP
C0
60
60
C0
ENDCHAR
STARTCHAR uni02BF
ENCODING 703
SWIDTH 480 0
DWIDTH 10 0
BBX 3 4 4 9
BITMAP
60
C0
C0
60
ENDCHAR
STARTCHAR uni02C0
ENCODING 704
SWIDTH 480 0
DWIDTH 10 0
BBX 5 6 2 7
BITMAP
70
D8
18
30
30
30
ENDCHAR
STARTCHAR uni02C1
ENCODING 705
SWIDTH 480 0
DWIDTH 10 0
BBX 5 6 2 7
BITMAP
70
D8
C0
60
60
60
ENDCHAR
STARTCHAR uni02C2
ENCODING 706
SWIDTH 480 0
DWIDTH 10 0
BBX 6 5 2 8
BITMAP
0C
38
E0
38
0C
ENDCHAR
STARTCHAR uni02C3
ENCODING 707
SWIDTH 480 0
DWIDTH 10 0
BBX 6 5 2 8
BITMAP
C0
70
1C
70
C0
ENDCHAR
STARTCHAR uni02C4
ENCODING 708
SWIDTH 480 0
DWIDTH 10 0
BBX 5 6 2 7
BITMAP
20
20
70
50
D8
88
ENDCHAR
STARTCHAR uni02C5
ENCODING 709
SWIDTH 480 0
DWIDTH 10 0
BBX 5 6 2 7
BITMAP
88
D8
50
70
20
20
ENDCHAR
STARTCHAR circumflex
ENCODING 710
SWIDTH 480 0
DWIDTH 10 0
BBX 6 3 2 10
BITMAP
30
78
CC
ENDCHAR
STARTCHAR caron
ENCODING 711
SWIDTH 480 0
DWIDTH 10 0
BBX 6 3 2 10
BITMAP
CC
78
30
ENDCHAR
STARTCHAR uni02C8
ENCODING 712
SWIDTH 480 0
DWIDTH 10 0
BBX 2 5 4 8
BITMAP
C0
C0
C0
C0
C0
ENDCHAR
STARTCHAR uni02CA
ENCODING 714
SWIDTH 480 0
DWIDTH 10 0
BBX 4 3 3 10
BITMAP
30
60
C0
ENDCHAR
STARTCHAR uni02CB
ENCODING 715
SWIDTH 480 0
DWIDTH 10 0
BBX 4 3 3 10
BITMAP
C0
60
30
ENDCHAR
STARTCHAR uni02CC
ENCODING 716
SWIDTH 480 0
DWIDTH 10 0
BBX 2 5 4 -3
BITMAP
C0
C0
C0
C0
C0
ENDCHAR
STARTCHAR uni02CD
ENCODING 717
SWIDTH 480 0
DWIDTH 10 0
BBX 8 1 1 -3
BITMAP
FF
ENDCHAR
STARTCHAR uni02CE
ENCODING 718
SWIDTH 480 0
DWIDTH 10 0
BBX 4 3 3 -4
BITMAP
C0
60
30
ENDCHAR
STARTCHAR uni02CF
ENCODING 719
SWIDTH 480 0
DWIDTH 10 0
BBX 4 3 3 -4
BITMAP
30
60
C0
ENDCHAR
STARTCHAR uni02D0
ENCODING 720
SWIDTH 480 0
DWIDTH 10 0
BBX 5 8 2 0
BITMAP
F8
70
20
00
00
20
70
F8
ENDCHAR
STARTCHAR uni02D1
ENCODING 721
SWIDTH 480 0
DWIDTH 10 0
BBX 5 3 2 5
BITMAP
F8
70
20
ENDCHAR
STARTCHAR uni02D2
ENCODING 722
SWIDTH 480 0
DWIDTH 10 0
BBX 3 6 4 1
BITMAP
C0
E0
60
60
E0
C0
ENDCHAR
STARTCHAR uni02D3
ENCODING 723
SWIDTH 480 0
DWIDTH 10 0
BBX 3 6 4 1
BITMAP
60
E0
C0
C0
E0
60
ENDCHAR
STARTCHAR uni02D4
ENCODING 724
SWIDTH 480 0
DWIDTH 10 0
BBX 5 4 2 3
BITMAP
20
20
20
F8
ENDCHAR
STARTCHAR uni02D5
ENCODING 725
SWIDTH 480 0
DWIDTH 10 0
BBX 5 4 2 0
BITMAP
F8
20
20
20
ENDCHAR
STARTCHAR uni02D6
ENCODING 726
SWIDTH 480 0
DWIDTH 10 0
BBX 5 7 2 0
BITMAP
20
20
20
F8
20
20
20
ENDCHAR
STARTCHAR uni02D7
ENCODING 727
SWIDTH 480 0
DWIDTH 10 0
BBX 5 3 2 2
BITMAP
88
F8
88
ENDCHAR
STARTCHAR breve
ENCODING 728
SWIDTH 480 0
DWIDTH 10 0
BBX 6 2 2 13
BITMAP
CC
78
ENDCHAR
STARTCHAR dotaccent
ENCODING 729
SWIDTH 480 0
DWIDTH 10 0
BBX 2 2 4 13
BITMAP
C0
C0
ENDCHAR
STARTCHAR ring
ENCODING 730
SWIDTH 480 0
DWIDTH 10 0
BBX 4 4 3 11
BITMAP
60
90
90
60
ENDCHAR
STARTCHAR ogonek
ENCODING 731
SWIDTH 480 0
DWIDTH 10 0
BBX 4 4 3 -4
BITMAP
60
C0
C0
70
ENDCHAR
STARTCHAR tilde
ENCODING 732
SWIDTH 480 0
DWIDTH 10 0
BBX 6 3 2 10
BITMAP
64
FC
98
ENDCHAR
STARTCHAR hungarumlaut
ENCODING 733
SWIDTH 480 0
DWIDTH 10 0
BBX 8 3 1 12
BITMAP
33
66
CC
ENDCHAR
STARTCHAR uni02DE
ENCODING 734
SWIDTH 480 0
DWIDTH 10 0
BBX 8 5 1 3
BITMAP
30
70
D9
9F
0E
ENDCHAR
STARTCHAR uni02DF
ENCODING 735
SWIDTH 480 0
DWIDTH 10 0
BBX 7 5 1 10
BITMAP
C6
6C
38
6C
C6
ENDCHAR
STARTCHAR uni02E0
ENCODING 736
SWIDTH 480 0
DWIDTH 10 0
BBX 7 7 1 5
BITMAP
C6
6C
38
38
6C
6C
38
ENDCHAR
STARTCHAR uni02E1
ENCODING 737
SWIDTH 480 0
DWIDTH 10 0
BBX 4 8 1 6
BITMAP
E0
60
60
60
60
60
60
F0
ENDCHAR
STARTCHAR uni02E2
ENCODING 738
SWIDTH 480 0
DWIDTH 10 0
BBX 5 6 1 6
BITMAP
78
C0
60
30
18
F0
ENDCHAR
STARTCHAR uni02E3
ENCODING 739
SWIDTH 480 0
DWIDTH 10 0
BBX 5 6 1 6
BITMAP
D8
D8
70
70
D8
D8
ENDCHAR
STARTCHAR uni02E4
ENCODING 740
SWIDTH 480 0
DWIDTH 10 0
BBX 6 8 1 6
BITMAP
78
CC
C0
60
30
30
30
30
ENDCHAR
STARTCHAR uni02E5
ENCODING 741
SWIDTH 480 0
DWIDTH 10 0
BBX 6 13 2 0
BITMAP
FC
0C
0C
0C
0C
0C
0C
0C
0C
0C
0C
0C
0C
ENDCHAR
STARTCHAR uni02E6
ENCODING 742
SWIDTH 480 0
DWIDTH 10 0
BBX 6 13 2 0
BITMAP
0C
0C
0C
FC
0C
0C
0C
0C
0C
0C
0C
0C
0C
ENDCHAR
STARTCHAR uni02E7
ENCODING 743
SWIDTH 480 0
DWIDTH 10 0
BBX 6 13 2 0
BITMAP
0C
0C
0C
0C
0C
0C
FC
0C
0C
0C
0C
0C
0C
ENDCHAR
STARTCHAR uni02E8
ENCODING 744
SWIDTH 480 0
DWIDTH 10 0
BBX 6 13 2 0
BITMAP
0C
0C
0C
0C
0C
0C
0C
0C
0C
FC
0C
0C
0C
ENDCHAR
STARTCHAR uni02E9
ENCODING 745
SWIDTH 480 0
DWIDTH 10 0
BBX 6 13 2 0
BITMAP
0C
0C
0C
0C
0C
0C
0C
0C
0C
0C
0C
0C
FC
ENDCHAR
STARTCHAR uni02EA
ENCODING 746
SWIDTH 480 0
DWIDTH 10 0
BBX 4 4 3 0
BITMAP
F0
30
30
30
ENDCHAR
STARTCHAR uni02EB
ENCODING 747
SWIDTH 480 0
DWIDTH 10 0
BBX 4 5 3 -2
BITMAP
C0
C0
F0
C0
C0
ENDCHAR
STARTCHAR uni02EC
ENCODING 748
SWIDTH 480 0
DWIDTH 10 0
BBX 6 3 2 -3
BITMAP
CC
78
30
ENDCHAR
STARTCHAR uni02ED
ENCODING 749
SWIDTH 480 0
DWIDTH 10 0
BBX 6 4 2 7
BITMAP
FC
00
00
FC
ENDCHAR
STARTCHAR uni02EE
ENCODING 750
SWIDTH 480 0
DWIDTH 10 0
BBX 8 4 1 9
BITMAP
E7
E7
63
C6
ENDCHAR
STARTCHAR uni02EF
ENCODING 751
SWIDTH 480 0
DWIDTH 10 0
BBX 5 6 2 -4
BITMAP
88
D8
50
70
20
20
ENDCHAR
STARTCHAR uni02F0
ENCODING 752
SWIDTH 480 0
DWIDTH 10 0
BBX 5 6 2 -4
BITMAP
20
20
70
50
D8
88
ENDCHAR
STARTCHAR uni02F1
ENCODING 753
SWIDTH 480 0
DWIDTH 10 0
BBX 6 5 2 -4
BITMAP
0C
38
E0
38
0C
ENDCHAR
STARTCHAR uni02F2
ENCODING 754
SWIDTH 480 0
DWIDTH 10 0
BBX 6 5 2 -4
BITMAP
C0
70
1C
70
C0
ENDCHAR
STARTCHAR uni02F3
ENCODING 755
SWIDTH 480 0
DWIDTH 10 0
BBX 4 4 3 -4
BITMAP
60
90
90
60
ENDCHAR
STARTCHAR uni02F4
ENCODING 756
SWIDTH 480 0
DWIDTH 10 0
BBX 4 3 3 5
BITMAP
C0
60
30
ENDCHAR
STARTCHAR uni02F5
ENCODING 757
SWIDTH 480 0
DWIDTH 10 0
BBX 8 3 1 5
BITMAP
CC
66
33
ENDCHAR
STARTCHAR uni02F6
ENCODING 758
SWIDTH 480 0
DWIDTH 10 0
BBX 8 3 1 5
BITMAP
33
66
CC
ENDCHAR
STARTCHAR uni02F7
ENCODING 759
SWIDTH 480 0
DWIDTH 10 0
BBX 8 3 1 -3
BITMAP
73
DB
CE
ENDCHAR
STARTCHAR uni02F8
ENCODING 760
SWIDTH 480 0
DWIDTH 10 0
BBX 3 8 4 4
BITMAP
E0
E0
00
00
00
00
E0
E0
ENDCHAR
STARTCHAR uni02F9
ENCODING 761
SWIDTH 480 0
DWIDTH 10 0
BBX 3 5 4 7
BITMAP
E0
80
80
80
80
ENDCHAR
STARTCHAR uni02FA
ENCODING 762
SWIDTH 480 0
DWIDTH 10 0
BBX 3 5 3 7
BITMAP
E0
20
20
20
20
ENDCHAR
STARTCHAR uni02FB
ENCODING 763
SWIDTH 480 0
DWIDTH 10 0
BBX 3 5 4 0
BITMAP
80
80
80
80
E0
ENDCHAR
STARTCHAR uni02FC
ENCODING 764
SWIDTH 480 0
DWIDTH 10 0
BBX 3 5 3 0
BITMAP
20
20
20
20
E0
ENDCHAR
STARTCHAR uni02FD
ENCODING 765
SWIDTH 480 0
DWIDTH 10 0
BBX 8 4 1 -4
BITMAP
81
81
FF
FF
ENDCHAR
STARTCHAR uni02FE
ENCODING 766
SWIDTH 480 0
DWIDTH 10 0
BBX 8 3 1 -3
BITMAP
80
80
FF
ENDCHAR
STARTCHAR uni02FF
ENCODING 767
SWIDTH 480 0
DWIDTH 10 0
BBX 8 5 1 -3
BITMAP
20
60
FF
60
20
ENDCHAR
STARTCHAR gravecomb
ENCODING 768
SWIDTH 480 0
DWIDTH 10 0
BBX 4 3 3 13
BITMAP
C0
60
30
ENDCHAR
STARTCHAR acutecomb
ENCODING 769
SWIDTH 480 0
DWIDTH 10 0
BBX 4 3 3 13
BITMAP
30
60
C0
ENDCHAR
STARTCHAR uni0302
ENCODING 770
SWIDTH 480 0
DWIDTH 10 0
BBX 6 3 2 13
BITMAP
30
78
CC
ENDCHAR
STARTCHAR tildecomb
ENCODING 771
SWIDTH 480 0
DWIDTH 10 0
BBX 6 3 2 13
BITMAP
64
FC
98
ENDCHAR
STARTCHAR uni0304
ENCODING 772
SWIDTH 480 0
DWIDTH 10 0
BBX 6 1 2 14
BITMAP
FC
ENDCHAR
STARTCHAR uni0305
ENCODING 773
SWIDTH 480 0
DWIDTH 10 0
BBX 10 1 0 14
BITMAP
FFC0
ENDCHAR
STARTCHAR uni0306
ENCODING 774
SWIDTH 480 0
DWIDTH 10 0
BBX 7 2 1 14
BITMAP
C6
7C
ENDCHAR
STARTCHAR uni0307
ENCODING 775
SWIDTH 480 0
DWIDTH 10 0
BBX 2 2 4 14
BITMAP
C0
C0
ENDCHAR
STARTCHAR uni0308
ENCODING 776
SWIDTH 480 0
DWIDTH 10 0
BBX 6 2 2 14
BITMAP
CC
CC
ENDCHAR
STARTCHAR hookabovecomb
ENCODING 777
SWIDTH 480 0
DWIDTH 10 0
BBX 6 4 2 12
BITMAP
78
CC
18
30
ENDCHAR
STARTCHAR uni030A
ENCODING 778
SWIDTH 480 0
DWIDTH 10 0
BBX 5 3 2 13
BITMAP
70
D8
70
ENDCHAR
STARTCHAR uni030B
ENCODING 779
SWIDTH 480 0
DWIDTH 10 0
BBX 8 3 1 13
BITMAP
33
66
CC
ENDCHAR
STARTCHAR uni030C
ENCODING 780
SWIDTH 480 0
DWIDTH 10 0
BBX 6 3 2 13
BITMAP
CC
78
30
ENDCHAR
STARTCHAR uni030D
ENCODING 781
SWIDTH 480 0
DWIDTH 10 0
BBX 2 4 4 12
BITMAP
C0
C0
C0
C0
ENDCHAR
STARTCHAR uni030E
ENCODING 782
SWIDTH 480 0
DWIDTH 10 0
BBX 6 4 2 12
BITMAP
CC
CC
CC
CC
ENDCHAR
STARTCHAR uni030F
ENCODING 783
SWIDTH 480 0
DWIDTH 10 0
BBX 8 3 1 13
BITMAP
CC
66
33
ENDCHAR
STARTCHAR uni0310
ENCODING 784
SWIDTH 480 0
DWIDTH 10 0
BBX 8 3 1 13
BITMAP
18
C3
7E
ENDCHAR
STARTCHAR uni0311
ENCODING 785
SWIDTH 480 0
DWIDTH 10 0
BBX 7 2 1 14
BITMAP
7C
C6
ENDCHAR
STARTCHAR uni0312
ENCODING 786
SWIDTH 480 0
DWIDTH 10 0
BBX 3 4 3 12
BITMAP
60
C0
E0
40
ENDCHAR
STARTCHAR uni0313
ENCODING 787
SWIDTH 480 0
DWIDTH 10 0
BBX 3 4 3 12
BITMAP
40
E0
60
C0
ENDCHAR
STARTCHAR uni0314
ENCODING 788
SWIDTH 480 0
DWIDTH 10 0
BBX 3 4 3 12
BITMAP
40
E0
C0
60
ENDCHAR
STARTCHAR uni0315
ENCODING 789
SWIDTH 480 0
DWIDTH 10 0
BBX 3 4 7 12
BITMAP
40
E0
60
C0
ENDCHAR
STARTCHAR uni0316
ENCODING 790
SWIDTH 480 0
DWIDTH 10 0
BBX 4 3 3 -4
BITMAP
C0
60
30
ENDCHAR
STARTCHAR uni0317
ENCODING 791
SWIDTH 480 0
DWIDTH 10 0
BBX 4 3 3 -4
BITMAP
30
60
C0
ENDCHAR
STARTCHAR uni0318
ENCODING 792
SWIDTH 480 0
DWIDTH 10 0
BBX 5 3 2 -4
BITMAP
18
F8
18
ENDCHAR
STARTCHAR uni0319
ENCODING 793
SWIDTH 480 0
DWIDTH 10 0
BBX 5 3 2 -4
BITMAP
C0
F8
C0
ENDCHAR
STARTCHAR uni031A
ENCODING 794
SWIDTH 480 0
DWIDTH 10 0
BBX 5 3 5 13
BITMAP
F8
18
18
ENDCHAR
STARTCHAR uni031B
ENCODING 795
SWIDTH 480 0
DWIDTH 10 0
BBX 3 3 7 10
BITMAP
60
60
C0
ENDCHAR
STARTCHAR uni031C
ENCODING 796
SWIDTH 480 0
DWIDTH 10 0
BBX 4 4 3 -4
BITMAP
70
C0
C0
70
ENDCHAR
STARTCHAR uni031D
ENCODING 797
SWIDTH 480 0
DWIDTH 10 0
BBX 6 3 2 -4
BITMAP
30
30
FC
ENDCHAR
STARTCHAR uni031E
ENCODING 798
SWIDTH 480 0
DWIDTH 10 0
BBX 6 3 2 -4
BITMAP
FC
30
30
ENDCHAR
STARTCHAR uni031F
ENCODING 799
SWIDTH 480 0
DWIDTH 10 0
BBX 6 3 2 -4
BITMAP
30
FC
30
ENDCHAR
STARTCHAR uni0320
ENCODING 800
SWIDTH 480 0
DWIDTH 10 0
BBX 6 1 2 -3
BITMAP
FC
ENDCHAR
STARTCHAR uni0321
ENCODING 801
SWIDTH 480 0
DWIDTH 10 0
BBX 4 4 5 -4
BITMAP
30
30
30
E0
ENDCHAR
STARTCHAR uni0322
ENCODING 802
SWIDTH 480 0
DWIDTH 10 0
BBX 3 4 7 -4
BITMAP
C0
C0
C0
60
ENDCHAR
STARTCHAR dotbelowcomb
ENCODING 803
SWIDTH 480 0
DWIDTH 10 0
BBX 2 2 4 -3
BITMAP
C0
C0
ENDCHAR
STARTCHAR uni0324
ENCODING 804
SWIDTH 480 0
DWIDTH 10 0
BBX 6 2 2 -3
BITMAP
CC
CC
ENDCHAR
STARTCHAR uni0325
ENCODING 805
SWIDTH 480 0
DWIDTH 10 0
BBX 5 3 2 -4
BITMAP
70
D8
70
ENDCHAR
STARTCHAR uni0326
ENCODING 806
SWIDTH 480 0
DWIDTH 10 0
BBX 4 3 3 -4
BITMAP
70
70
E0
ENDCHAR
STARTCHAR uni0327
ENCODING 807
SWIDTH 480 0
DWIDTH 10 0
BBX 5 4 2 -4
BITMAP
30
18
D8
70
ENDCHAR
STARTCHAR uni0328
ENCODING 808
SWIDTH 480 0
DWIDTH 10 0
BBX 6 4 2 -4
BITMAP
30
60
CC
78
ENDCHAR
STARTCHAR uni0329
ENCODING 809
SWIDTH 480 0
DWIDTH 10 0
BBX 2 4 4 -4
BITMAP
C0
C0
C0
C0
ENDCHAR
STARTCHAR uni032A
ENCODING 810
SWIDTH 480 0
DWIDTH 10 0
BBX 8 3 1 -4
BITMAP
FF
C3
C3
ENDCHAR
STARTCHAR uni032B
ENCODING 811
SWIDTH 480 0
DWIDTH 10 0
BBX 8 3 1 -4
BITMAP
DB
DB
7E
ENDCHAR
STARTCHAR uni032C
ENCODING 812
SWIDTH 480 0
DWIDTH 10 0
BBX 6 3 2 -4
BITMAP
CC
78
30
ENDCHAR
STARTCHAR uni032D
ENCODING 813
SWIDTH 480 0
DWIDTH 10 0
BBX 6 3 2 -4
BITMAP
30
78
CC
ENDCHAR
STARTCHAR uni032E
ENCODING 814
SWIDTH 480 0
DWIDTH 10 0
BBX 7 2 1 -3
BITMAP
C6
7C
ENDCHAR
STARTCHAR uni032F
ENCODING 815
SWIDTH 480 0
DWIDTH 10 0
BBX 7 2 1 -3
BITMAP
7C
C6
ENDCHAR
STARTCHAR uni0330
ENCODING 816
SWIDTH 480 0
DWIDTH 10 0
BBX 6 3 2 -4
BITMAP
64
FC
98
ENDCHAR
STARTCHAR uni0331
ENCODING 817
SWIDTH 480 0
DWIDTH 10 0
BBX 6 1 2 -2
BITMAP
FC
ENDCHAR
STARTCHAR uni0332
ENCODING 818
SWIDTH 480 0
DWIDTH 10 0
BBX 10 1 0 -2
BITMAP
FFC0
ENDCHAR
STARTCHAR uni0333
ENCODING 819
SWIDTH 480 0
DWIDTH 10 0
BBX 10 3 0 -4
BITMAP
FFC0
0000
FFC0
ENDCHAR
STARTCHAR uni0334
ENCODING 820
SWIDTH 480 0
DWIDTH 10 0
BBX 6 3 2 4
BITMAP
64
FC
98
ENDCHAR
STARTCHAR uni0335
ENCODING 821
SWIDTH 480 0
DWIDTH 10 0
BBX 6 1 2 5
BITMAP
FC
ENDCHAR
STARTCHAR uni0336
ENCODING 822
SWIDTH 480 0
DWIDTH 10 0
BBX 10 1 0 5
BITMAP
FFC0
ENDCHAR
STARTCHAR uni0337
ENCODING 823
SWIDTH 480 0
DWIDTH 10 0
BBX 8 7 1 2
BITMAP
03
06
0C
18
30
60
C0
ENDCHAR
STARTCHAR uni0338
ENCODING 824
SWIDTH 480 0
DWIDTH 10 0
BBX 8 15 1 -1
BITMAP
03
03
06
06
0C
0C
18
18
18
30
30
60
60
C0
C0
ENDCHAR
STARTCHAR uni0339
ENCODING 825
SWIDTH 480 0
DWIDTH 10 0
BBX 4 4 3 -4
BITMAP
E0
30
30
E0
ENDCHAR
STARTCHAR uni033A
ENCODING 826
SWIDTH 480 0
DWIDTH 10 0
BBX 8 3 1 -4
BITMAP
C3
C3
FF
ENDCHAR
STARTCHAR uni033B
ENCODING 827
SWIDTH 480 0
DWIDTH 10 0
BBX 6 3 2 -4
BITMAP
FC
CC
FC
ENDCHAR
STARTCHAR uni033C
ENCODING 828
SWIDTH 480 0
DWIDTH 10 0
BBX 9 3 0 -4
BITMAP
7700
DD80
0800
ENDCHAR
STARTCHAR uni033D
ENCODING 829
SWIDTH 480 0
DWIDTH 10 0
BBX 8 3 1 13
BITMAP
C3
3C
C3
ENDCHAR
STARTCHAR uni033E
ENCODING 830
SWIDTH 480 0
DWIDTH 10 0
BBX 3 4 3 12
BITMAP
60
C0
60
C0
ENDCHAR
STARTCHAR uni033F
ENCODING 831
SWIDTH 480 0
DWIDTH 10 0
BBX 10 3 0 13
BITMAP
FFC0
0000
FFC0
ENDCHAR
STARTCHAR uni0340
ENCODING 832
SWIDTH 480 0
DWIDTH 10 0
BBX 4 3 3 13
BITMAP
C0
60
30
ENDCHAR
STARTCHAR uni0341
ENCODING 833
SWIDTH 480 0
DWIDTH 10 0
BBX 4 3 3 13
BITMAP
30
60
C0
ENDCHAR
STARTCHAR uni0342
ENCODING 834
SWIDTH 480 0
DWIDTH 10 0
BBX 6 3 2 13
BITMAP
64
FC
98
ENDCHAR
STARTCHAR uni0343
ENCODING 835
SWIDTH 480 0
DWIDTH 10 0
BBX 3 4 3 12
BITMAP
40
E0
60
C0
ENDCHAR
STARTCHAR uni0344
ENCODING 836
SWIDTH 480 0
DWIDTH 10 0
BBX 8 3 1 13
BITMAP
0C
DB
F3
ENDCHAR
STARTCHAR uni0345
ENCODING 837
SWIDTH 480 0
DWIDTH 10 0
BBX 3 3 3 -4
BITMAP
C0
C0
60
ENDCHAR
STARTCHAR uni0346
ENCODING 838
SWIDTH 480 0
DWIDTH 10 0
BBX 6 2 2 14
BITMAP
FC
CC
ENDCHAR
STARTCHAR uni0347
ENCODING 839
SWIDTH 480 0
DWIDTH 10 0
BBX 8 3 1 -4
BITMAP
FF
00
FF
ENDCHAR
STARTCHAR uni0348
ENCODING 840
SWIDTH 480 0
DWIDTH 10 0
BBX 6 3 2 -4
BITMAP
CC
CC
CC
ENDCHAR
STARTCHAR uni0349
ENCODING 841
SWIDTH 480 0
DWIDTH 10 0
BBX 4 3 3 -4
BITMAP
F0
30
30
ENDCHAR
STARTCHAR uni034A
ENCODING 842
SWIDTH 480 0
DWIDTH 10 0
BBX 8 7 1 9
BITMAP
0C
0C
79
FF
9E
30
30
ENDCHAR
STARTCHAR uni034B
ENCODING 843
SWIDTH 480 0
DWIDTH 10 0
BBX 6 6 2 10
BITMAP
18
00
6C
D8
00
60
ENDCHAR
STARTCHAR uni034C
ENCODING 844
SWIDTH 480 0
DWIDTH 10 0
BBX 6 5 2 11
BITMAP
6C
D8
00
6C
D8
ENDCHAR
STARTCHAR uni034D
ENCODING 845
SWIDTH 480 0
DWIDTH 10 0
BBX 8 3 1 -4
BITMAP
42
FF
42
ENDCHAR
STARTCHAR uni034E
ENCODING 846
SWIDTH 480 0
DWIDTH 10 0
BBX 5 4 2 -4
BITMAP
20
70
A8
20
ENDCHAR
STARTCHAR uni034F
ENCODING 847
SWIDTH 480 0
DWIDTH 10 0
BBX 1 1 9 -4
BITMAP
00
ENDCHAR
STARTCHAR uni0350
ENCODING 848
SWIDTH 480 0
DWIDTH 10 0
BBX 5 3 3 13
BITMAP
E0
38
E0
ENDCHAR
STARTCHAR uni0351
ENCODING 849
SWIDTH 480 0
DWIDTH 10 0
BBX 3 4 4 12
BITMAP
60
C0
C0
60
ENDCHAR
STARTCHAR uni0352
ENCODING 850
SWIDTH 480 0
DWIDTH 10 0
BBX 8 4 1 12
BITMAP
7E
C3
18
18
ENDCHAR
STARTCHAR uni0353
ENCODING 851
SWIDTH 480 0
DWIDTH 10 0
BBX 4 4 3 -4
BITMAP
90
60
60
90
ENDCHAR
STARTCHAR uni0354
ENCODING 852
SWIDTH 480 0
DWIDTH 10 0
BBX 5 3 2 -4
BITMAP
38
E0
38
ENDCHAR
STARTCHAR uni0355
ENCODING 853
SWIDTH 480 0
DWIDTH 10 0
BBX 5 3 2 -4
BITMAP
E0
38
E0
ENDCHAR
STARTCHAR uni0356
ENCODING 854
SWIDTH 480 0
DWIDTH 10 0
BBX 7 4 1 -4
BITMAP
04
C4
3A
CA
ENDCHAR
STARTCHAR uni0357
ENCODING 855
SWIDTH 480 0
DWIDTH 10 0
BBX 3 4 4 12
BITMAP
C0
60
60
C0
ENDCHAR
STARTCHAR uni0358
ENCODING 856
SWIDTH 480 0
DWIDTH 10 0
BBX 2 2 8 14
BITMAP
C0
C0
ENDCHAR
STARTCHAR uni0359
ENCODING 857
SWIDTH 480 0
DWIDTH 10 0
BBX 8 5 1 -4
BITMAP
66
3C
FF
3C
66
ENDCHAR
STARTCHAR uni035A
ENCODING 858
SWIDTH 480 0
DWIDTH 10 0
BBX 7 3 2 -4
BITMAP
6C
92
6C
ENDCHAR
STARTCHAR uni035B
ENCODING 859
SWIDTH 480 0
DWIDTH 10 0
BBX 8 5 1 11
BITMAP
30
60
FF
06
0C
ENDCHAR
STARTCHAR uni035C
ENCODING 860
SWIDTH 480 0
DWIDTH 10 0
BBX 8 2 2 -4
BITMAP
81
7E
ENDCHAR
STARTCHAR uni035D
ENCODING 861
SWIDTH 480 0
DWIDTH 10 0
BBX 8 2 2 14
BITMAP
81
7E
ENDCHAR
STARTCHAR uni035E
ENCODING 862
SWIDTH 480 0
DWIDTH 10 0
BBX 6 1 4 14
BITMAP
FC
ENDCHAR
STARTCHAR uni035F
ENCODING 863
SWIDTH 480 0
DWIDTH 10 0
BBX 6 1 4 -3
BITMAP
FC
ENDCHAR
STARTCHAR uni0360
ENCODING 864
SWIDTH 480 0
DWIDTH 10 0
BBX 8 2 2 14
BITMAP
71
8E
ENDCHAR
STARTCHAR uni0361
ENCODING 865
SWIDTH 480 0
DWIDTH 10 0
BBX 8 2 2 14
BITMAP
7E
81
ENDCHAR
STARTCHAR uni0362
ENCODING 866
SWIDTH 480 0
DWIDTH 10 0
BBX 6 3 4 -4
BITMAP
08
FC
08
ENDCHAR
STARTCHAR uni0363
ENCODING 867
SWIDTH 480 0
DWIDTH 10 0
BBX 4 5 3 10
BITMAP
60
10
70
90
70
ENDCHAR
STARTCHAR uni0364
ENCODING 868
SWIDTH 480 0
DWIDTH 10 0
BBX 4 5 3 10
BITMAP
60
90
F0
80
60
ENDCHAR
STARTCHAR uni0365
ENCODING 869
SWIDTH 480 0
DWIDTH 10 0
BBX 3 6 3 10
BITMAP
40
00
C0
40
40
E0
ENDCHAR
STARTCHAR uni0366
ENCODING 870
SWIDTH 480 0
DWIDTH 10 0
BBX 4 4 3 11
BITMAP
60
90
90
60
ENDCHAR
STARTCHAR uni0367
ENCODING 871
SWIDTH 480 0
DWIDTH 10 0
BBX 4 4 3 11
BITMAP
90
90
90
70
ENDCHAR
STARTCHAR uni0368
ENCODING 872
SWIDTH 480 0
DWIDTH 10 0
BBX 3 4 3 11
BITMAP
60
80
80
60
ENDCHAR
STARTCHAR uni0369
ENCODING 873
SWIDTH 480 0
DWIDTH 10 0
BBX 4 6 3 10
BITMAP
10
10
70
90
90
70
ENDCHAR
STARTCHAR uni036A
ENCODING 874
SWIDTH 480 0
DWIDTH 10 0
BBX 4 6 3 10
BITMAP
80
80
E0
90
90
90
ENDCHAR
STARTCHAR uni036B
ENCODING 875
SWIDTH 480 0
DWIDTH 10 0
BBX 5 4 3 11
BITMAP
D0
A8
A8
A8
ENDCHAR
STARTCHAR uni036C
ENCODING 876
SWIDTH 480 0
DWIDTH 10 0
BBX 4 4 3 11
BITMAP
A0
D0
80
80
ENDCHAR
STARTCHAR uni036D
ENCODING 877
SWIDTH 480 0
DWIDTH 10 0
BBX 4 6 3 10
BITMAP
40
40
E0
40
40
30
ENDCHAR
STARTCHAR uni036E
ENCODING 878
SWIDTH 480 0
DWIDTH 10 0
BBX 4 4 3 11
BITMAP
90
90
60
60
ENDCHAR
STARTCHAR uni036F
ENCODING 879
SWIDTH 480 0
DWIDTH 10 0
BBX 4 4 3 11
BITMAP
90
60
60
90
ENDCHAR
STARTCHAR uni0370
ENCODING 880
SWIDTH 480 0
DWIDTH 10 0
BBX 6 13 1 0
BITMAP
C0
C0
C0
C0
C0
C0
FC
C0
C0
C0
C0
C0
C0
ENDCHAR
STARTCHAR uni0371
ENCODING 881
SWIDTH 480 0
DWIDTH 10 0
BBX 7 8 0 0
BITMAP
60
B0
30
3E
30
30
30
30
ENDCHAR
STARTCHAR uni0372
ENCODING 882
SWIDTH 480 0
DWIDTH 10 0
BBX 8 13 1 0
BITMAP
FF
99
99
99
18
18
18
18
18
18
18
18
18
ENDCHAR
STARTCHAR uni0373
ENCODING 883
SWIDTH 480 0
DWIDTH 10 0
BBX 6 13 2 0
BITMAP
7C
B4
B4
B4
30
30
30
30
30
30
30
30
30
ENDCHAR
STARTCHAR uni0374
ENCODING 884
SWIDTH 480 0
DWIDTH 10 0
BBX 4 3 3 10
BITMAP
30
60
C0
ENDCHAR
STARTCHAR uni0375
ENCODING 885
SWIDTH 480 0
DWIDTH 10 0
BBX 4 3 3 -3
BITMAP
30
60
C0
ENDCHAR
STARTCHAR uni0376
ENCODING 886
SWIDTH 480 0
DWIDTH 10 0
BBX 8 13 1 0
BITMAP
C3
C7
C7
CF
CF
DB
DB
F3
F3
E3
E3
C3
C3
ENDCHAR
STARTCHAR uni0377
ENCODING 887
SWIDTH 480 0
DWIDTH 10 0
BBX 9 8 1 0
BITMAP
C300
C700
CF00
CB00
D300
F300
E300
C180
ENDCHAR
STARTCHAR uni037A
ENCODING 890
SWIDTH 480 0
DWIDTH 10 0
BBX 3 3 3 -4
BITMAP
C0
C0
60
ENDCHAR
STARTCHAR uni037B
ENCODING 891
SWIDTH 480 0
DWIDTH 10 0
BBX 8 8 1 0
BITMAP
7C
C6
03
03
03
03
C6
7C
ENDCHAR
STARTCHAR uni037C
ENCODING 892
SWIDTH 480 0
DWIDTH 10 0
BBX 8 8 1 0
BITMAP
3E
63
C0
CC
CC
C0
63
3E
ENDCHAR
STARTCHAR uni037D
ENCODING 893
SWIDTH 480 0
DWIDTH 10 0
BBX 8 8 1 0
BITMAP
7C
C6
03
33
33
03
C6
7C
ENDCHAR
STARTCHAR uni037E
ENCODING 894
SWIDTH 480 0
DWIDTH 10 0
BBX 4 9 3 -1
BITMAP
70
70
00
00
00
00
70
70
E0
ENDCHAR
STARTCHAR tonos
ENCODING 900
SWIDTH 480 0
DWIDTH 10 0
BBX 4 3 3 10
BITMAP
30
60
C0
ENDCHAR
STARTCHAR dieresistonos
ENCODING 901
SWIDTH 480 0
DWIDTH 10 0
BBX 8 3 1 10
BITMAP
0C
DB
F3
ENDCHAR
STARTCHAR Alphatonos
ENCODING 902
SWIDTH 480 0
DWIDTH 10 0
BBX 8 13 1 0
BITMAP
6C
DE
B3
33
33
33
33
3F
33
33
33
33
33
ENDCHAR
STARTCHAR anoteleia
ENCODING 903
SWIDTH 480 0
DWIDTH 10 0
BBX 3 3 4 5
BITMAP
E0
E0
E0
ENDCHAR
STARTCHAR Epsilontonos
ENCODING 904
SWIDTH 480 0
DWIDTH 10 0
BBX 9 13 0 0
BITMAP
7F80
D800
9800
1800
1800
1800
1F00
1800
1800
1800
1800
1800
1F80
ENDCHAR
STARTCHAR Etatonos
ENCODING 905
SWIDTH 480 0
DWIDTH 10 0
BBX 9 13 0 0
BITMAP
7980
D980
9980
1980
1980
1980
1F80
1980
1980
1980
1980
1980
1980
ENDCHAR
STARTCHAR Iotatonos
ENCODING 906
SWIDTH 480 0
DWIDTH 10 0
BBX 9 13 0 0
BITMAP
7F80
C600
8600
0600
0600
0600
0600
0600
0600
0600
0600
0600
1F80
ENDCHAR
STARTCHAR Omicrontonos
ENCODING 908
SWIDTH 480 0
DWIDTH 10 0
BBX 9 13 0 0
BITMAP
6600
CF00
9980
1980
1980
1980
1980
1980
1980
1980
1980
0F00
0600
ENDCHAR
STARTCHAR Upsilontonos
ENCODING 910
SWIDTH 480 0
DWIDTH 10 0
BBX 9 13 0 0
BITMAP
7980
D980
9980
1980
1980
0F00
0F00
0600
0600
0600
0600
0600
0600
ENDCHAR
STARTCHAR Omegatonos
ENCODING 911
SWIDTH 480 0
DWIDTH 10 0
BBX 8 13 1 0
BITMAP
6C
DE
B3
33
33
33
33
33
33
33
1E
0C
3F
ENDCHAR
STARTCHAR iotadieresistonos
ENCODING 912
SWIDTH 480 0
DWIDTH 10 0
BBX 8 13 1 0
BITMAP
0C
DB
F3
00
00
18
18
18
18
18
18
1B
0E
ENDCHAR
STARTCHAR Alpha
ENCODING 913
SWIDTH 480 0
DWIDTH 10 0
BBX 8 13 1 0
BITMAP
18
3C
66
66
C3
C3
C3
FF
C3
C3
C3
C3
C3
ENDCHAR
STARTCHAR Beta
ENCODING 914
SWIDTH 480 0
DWIDTH 10 0
BBX 8 13 1 0
BITMAP
F8
CC
C6
C6
C6
CC
FC
C6
C3
C3
C3
C6
FC
ENDCHAR
STARTCHAR Gamma
ENCODING 915
SWIDTH 480 0
DWIDTH 10 0
BBX 8 13 1 0
BITMAP
FF
C0
C0
C0
C0
C0
C0
C0
C0
C0
C0
C0
C0
ENDCHAR
STARTCHAR Delta
ENCODING 916
SWIDTH 480 0
DWIDTH 10 0
BBX 8 13 1 0
BITMAP
18
18
18
3C
3C
3C
66
66
66
C3
C3
C3
FF
ENDCHAR
STARTCHAR Epsilon
ENCODING 917
SWIDTH 480 0
DWIDTH 10 0
BBX 8 13 1 0
BITMAP
FF
C0
C0
C0
C0
C0
FC
C0
C0
C0
C0
C0
FF
ENDCHAR
STARTCHAR Zeta
ENCODING 918
SWIDTH 480 0
DWIDTH 10 0
BBX 8 13 1 0
BITMAP
FF
03
03
06
0C
0C
18
30
30
60
C0
C0
FF
ENDCHAR
STARTCHAR Eta
ENCODING 919
SWIDTH 480 0
DWIDTH 10 0
BBX 8 13 1 0
BITMAP
C3
C3
C3
C3
C3
C3
FF
C3
C3
C3
C3
C3
C3
ENDCHAR
STARTCHAR Theta
ENCODING 920
SWIDTH 480 0
DWIDTH 10 0
BBX 8 13 1 0
BITMAP
3C
66
C3
C3
C3
C3
FF
C3
C3
C3
C3
66
3C
ENDCHAR
STARTCHAR Iota
ENCODING 921
SWIDTH 480 0
DWIDTH 10 0
BBX 8 13 1 0
BITMAP
FF
18
18
18
18
18
18
18
18
18
18
18
FF
ENDCHAR
STARTCHAR Kappa
ENCODING 922
SWIDTH 480 0
DWIDTH 10 0
BBX 8 13 1 0
BITMAP
C3
C3
C6
C6
CC
CC
F8
CC
CC
C6
C6
C3
C3
ENDCHAR
STARTCHAR Lambda
ENCODING 923
SWIDTH 480 0
DWIDTH 10 0
BBX 8 13 1 0
BITMAP
18
18
18
3C
3C
3C
66
66
66
C3
C3
C3
C3
ENDCHAR
STARTCHAR Mu
ENCODING 924
SWIDTH 480 0
DWIDTH 10 0
BBX 8 13 1 0
BITMAP
C3
C3
E7
E7
FF
DB
DB
DB
DB
C3
C3
C3
C3
ENDCHAR
STARTCHAR Nu
ENCODING 925
SWIDTH 480 0
DWIDTH 10 0
BBX 8 13 1 0
BITMAP
C3
E3
E3
F3
F3
DB
DB
CF
CF
C7
C7
C3
C3
ENDCHAR
STARTCHAR Xi
ENCODING 926
SWIDTH 480 0
DWIDTH 10 0
BBX 8 13 1 0
BITMAP
FF
00
00
00
00
00
7E
00
00
00
00
00
FF
ENDCHAR
STARTCHAR Omicron
ENCODING 927
SWIDTH 480 0
DWIDTH 10 0
BBX 8 13 1 0
BITMAP
3C
66
C3
C3
C3
C3
C3
C3
C3
C3
C3
66
3C
ENDCHAR
STARTCHAR Pi
ENCODING 928
SWIDTH 480 0
DWIDTH 10 0
BBX 8 13 1 0
BITMAP
FF
66
66
66
66
66
66
66
66
66
66
66
66
ENDCHAR
STARTCHAR Rho
ENCODING 929
SWIDTH 480 0
DWIDTH 10 0
BBX 8 13 1 0
BITMAP
FC
C6
C3
C3
C3
C3
C6
FC
C0
C0
C0
C0
C0
ENDCHAR
STARTCHAR Sigma
ENCODING 931
SWIDTH 480 0
DWIDTH 10 0
BBX 8 13 1 0
BITMAP
FF
C0
60
30
18
0C
0C
18
30
60
C0
C0
FF
ENDCHAR
STARTCHAR Tau
ENCODING 932
SWIDTH 480 0
DWIDTH 10 0
BBX 8 13 1 0
BITMAP
FF
18
18
18
18
18
18
18
18
18
18
18
18
ENDCHAR
STARTCHAR Upsilon
ENCODING 933
SWIDTH 480 0
DWIDTH 10 0
BBX 8 13 1 0
BITMAP
C3
C3
66
66
3C
3C
18
18
18
18
18
18
18
ENDCHAR
STARTCHAR Phi
ENCODING 934
SWIDTH 480 0
DWIDTH 10 0
BBX 8 13 1 0
BITMAP
18
18
7E
DB
DB
DB
DB
DB
DB
DB
7E
18
18
ENDCHAR
STARTCHAR Chi
ENCODING 935
SWIDTH 480 0
DWIDTH 10 0
BBX 8 13 1 0
BITMAP
C3
C3
66
66
3C
3C
18
3C
3C
66
66
C3
C3
ENDCHAR
STARTCHAR Psi
ENCODING 936
SWIDTH 480 0
DWIDTH 10 0
BBX 8 13 1 0
BITMAP
DB
DB
DB
DB
DB
DB
DB
DB
7E
18
18
18
18
ENDCHAR
STARTCHAR Omega
ENCODING 937
SWIDTH 480 0
DWIDTH 10 0
BBX 8 13 1 0
BITMAP
3C
66
C3
C3
C3
C3
C3
C3
C3
66
24
A5
E7
ENDCHAR
STARTCHAR Iotadieresis
ENCODING 938
SWIDTH 480 0
DWIDTH 10 0
BBX 8 15 1 0
BITMAP
C3
C3
00
FF
18
18
18
18
18
18
18
18
18
18
FF
ENDCHAR
STARTCHAR Upsilondieresis
ENCODING 939
SWIDTH 480 0
DWIDTH 10 0
BBX 8 15 1 0
BITMAP
C3
C3
00
C3
66
66
3C
3C
18
18
18
18
18
18
18
ENDCHAR
STARTCHAR alphatonos
ENCODING 940
SWIDTH 480 0
DWIDTH 10 0
BBX 8 13 1 0
BITMAP
06
0C
18
00
00
7B
C7
C3
C3
C3
C7
CB
73
ENDCHAR
STARTCHAR epsilontonos
ENCODING 941
SWIDTH 480 0
DWIDTH 10 0
BBX 8 13 1 0
BITMAP
06
0C
18
00
00
7E
C3
C0
7C
C0
C0
C3
7E
ENDCHAR
STARTCHAR etatonos
ENCODING 942
SWIDTH 480 0
DWIDTH 10 0
BBX 8 17 1 -4
BITMAP
06
0C
18
00
00
DC
E6
C3
C3
C3
C3
C3
C3
03
03
03
03
ENDCHAR
STARTCHAR iotatonos
ENCODING 943
SWIDTH 480 0
DWIDTH 10 0
BBX 5 13 3 0
BITMAP
30
60
C0
00
00
C0
C0
C0
C0
C0
C0
D8
70
ENDCHAR
STARTCHAR upsilondieresistonos
ENCODING 944
SWIDTH 480 0
DWIDTH 10 0
BBX 8 13 1 0
BITMAP
0C
DB
F3
00
00
C3
C3
C3
C3
C3
C3
66
3C
ENDCHAR
STARTCHAR alpha
ENCODING 945
SWIDTH 480 0
DWIDTH 10 0
BBX 8 8 1 0
BITMAP
7B
C7
C3
C3
C3
C7
CB
73
ENDCHAR
STARTCHAR beta
ENCODING 946
SWIDTH 480 0
DWIDTH 10 0
BBX 8 17 1 -4
BITMAP
38
6C
C6
C6
CC
FC
C6
C3
C3
C3
C3
F6
DC
C0
C0
C0
C0
ENDCHAR
STARTCHAR gamma
ENCODING 947
SWIDTH 480 0
DWIDTH 10 0
BBX 8 12 1 -4
BITMAP
C3
C3
C3
66
66
3C
3C
18
18
18
18
18
ENDCHAR
STARTCHAR delta
ENCODING 948
SWIDTH 480 0
DWIDTH 10 0
BBX 8 13 1 0
BITMAP
7C
C6
60
30
18
3C
66
C3
C3
C3
C3
66
3C
ENDCHAR
STARTCHAR epsilon
ENCODING 949
SWIDTH 480 0
DWIDTH 10 0
BBX 8 8 1 0
BITMAP
7E
C3
C0
7C
C0
C0
C3
7E
ENDCHAR
STARTCHAR zeta
ENCODING 950
SWIDTH 480 0
DWIDTH 10 0
BBX 8 16 1 -3
BITMAP
FF
18
30
60
60
C0
C0
C0
C0
C0
C0
60
3E
03
03
1E
ENDCHAR
STARTCHAR eta
ENCODING 951
SWIDTH 480 0
DWIDTH 10 0
BBX 8 12 1 -4
BITMAP
DC
E6
C3
C3
C3
C3
C3
C3
03
03
03
03
ENDCHAR
STARTCHAR theta
ENCODING 952
SWIDTH 480 0
DWIDTH 10 0
BBX 7 13 1 0
BITMAP
38
6C
C6
C6
C6
C6
FE
C6
C6
C6
C6
6C
38
ENDCHAR
STARTCHAR iota
ENCODING 953
SWIDTH 480 0
DWIDTH 10 0
BBX 5 8 3 0
BITMAP
C0
C0
C0
C0
C0
C0
D8
70
ENDCHAR
STARTCHAR kappa
ENCODING 954
SWIDTH 480 0
DWIDTH 10 0
BBX 8 8 1 0
BITMAP
C3
C6
CC
F8
F8
CC
C6
C3
ENDCHAR
STARTCHAR lambda
ENCODING 955
SWIDTH 480 0
DWIDTH 10 0
BBX 8 13 1 0
BITMAP
3C
66
C3
03
03
3B
67
C3
C3
C3
C3
C3
C3
ENDCHAR
STARTCHAR mu
ENCODING 956
SWIDTH 480 0
DWIDTH 10 0
BBX 8 12 1 -4
BITMAP
C3
C3
C3
C3
C3
C3
E7
FB
C0
C0
C0
C0
ENDCHAR
STARTCHAR nu
ENCODING 957
SWIDTH 480 0
DWIDTH 10 0
BBX 8 8 1 0
BITMAP
C3
C3
66
66
3C
3C
18
18
ENDCHAR
STARTCHAR xi
ENCODING 958
SWIDTH 480 0
DWIDTH 10 0
BBX 8 16 1 -3
BITMAP
FF
18
30
60
60
30
1E
30
60
C0
C0
C0
7E
03
03
1E
ENDCHAR
STARTCHAR omicron
ENCODING 959
SWIDTH 480 0
DWIDTH 10 0
BBX 8 8 1 0
BITMAP
3C
66
C3
C3
C3
C3
66
3C
ENDCHAR
STARTCHAR pi
ENCODING 960
SWIDTH 480 0
DWIDTH 10 0
BBX 8 8 1 0
BITMAP
FF
66
66
66
66
66
66
66
ENDCHAR
STARTCHAR rho
ENCODING 961
SWIDTH 480 0
DWIDTH 10 0
BBX 8 12 1 -4
BITMAP
3C
66
C3
C3
C3
C3
E6
FC
C0
C0
C0
C0
ENDCHAR
STARTCHAR sigma1
ENCODING 962
SWIDTH 480 0
DWIDTH 10 0
BBX 8 11 1 -3
BITMAP
3E
63
C0
C0
C0
C0
60
3E
03
03
1E
ENDCHAR
STARTCHAR sigma
ENCODING 963
SWIDTH 480 0
DWIDTH 10 0
BBX 8 8 1 0
BITMAP
3F
6C
C6
C3
C3
C3
66
3C
ENDCHAR
STARTCHAR tau
ENCODING 964
SWIDTH 480 0
DWIDTH 10 0
BBX 8 8 1 0
BITMAP
FF
18
18
18
18
18
1B
0E
ENDCHAR
STARTCHAR upsilon
ENCODING 965
SWIDTH 480 0
DWIDTH 10 0
BBX 8 8 1 0
BITMAP
C3
C3
C3
C3
C3
C3
66
3C
ENDCHAR
STARTCHAR phi
ENCODING 966
SWIDTH 480 0
DWIDTH 10 0
BBX 8 12 1 -4
BITMAP
6E
DB
DB
DB
DB
DB
DB
7E
18
18
18
18
ENDCHAR
STARTCHAR chi
ENCODING 967
SWIDTH 480 0
DWIDTH 10 0
BBX 8 12 1 -4
BITMAP
C3
C3
66
66
3C
18
18
3C
66
66
C3
C3
ENDCHAR
STARTCHAR psi
ENCODING 968
SWIDTH 480 0
DWIDTH 10 0
BBX 8 12 1 -4
BITMAP
DB
DB
DB
DB
DB
DB
DB
7E
18
18
18
18
ENDCHAR
STARTCHAR omega
ENCODING 969
SWIDTH 480 0
DWIDTH 10 0
BBX 8 8 1 0
BITMAP
C3
DB
DB
DB
DB
DB
FF
66
ENDCHAR
STARTCHAR iotadieresis
ENCODING 970
SWIDTH 480 0
DWIDTH 10 0
BBX 8 12 1 0
BITMAP
C3
C3
00
00
18
18
18
18
18
18
1B
0E
ENDCHAR
STARTCHAR upsilondieresis
ENCODING 971
SWIDTH 480 0
DWIDTH 10 0
BBX 8 12 1 0
BITMAP
C3
C3
00
00
C3
C3
C3
C3
C3
C3
66
3C
ENDCHAR
STARTCHAR omicrontonos
ENCODING 972
SWIDTH 480 0
DWIDTH 10 0
BBX 8 13 1 0
BITMAP
06
0C
18
00
00
3C
66
C3
C3
C3
C3
66
3C
ENDCHAR
STARTCHAR upsilontonos
ENCODING 973
SWIDTH 480 0
DWIDTH 10 0
BBX 8 13 1 0
BITMAP
06
0C
18
00
00
C3
C3
C3
C3
C3
C3
66
3C
ENDCHAR
STARTCHAR omegatonos
ENCODING 974
SWIDTH 480 0
DWIDTH 10 0
BBX 8 13 1 0
BITMAP
06
0C
18
00
00
C3
DB
DB
DB
DB
DB
FF
66
ENDCHAR
STARTCHAR uni03CF
ENCODING 975
SWIDTH 480 0
DWIDTH 10 0
BBX 8 16 1 -3
BITMAP
C3
C3
C6
C6
CC
CC
F8
CC
CC
C6
C6
C3
C7
0E
1C
18
ENDCHAR
STARTCHAR uni03D0
ENCODING 976
SWIDTH 480 0
DWIDTH 10 0
BBX 8 13 1 0
BITMAP
38
6C
C6
C6
CC
DC
E6
C3
C3
C3
C3
66
3C
ENDCHAR
STARTCHAR theta1
ENCODING 977
SWIDTH 480 0
DWIDTH 10 0
BBX 9 13 0 0
BITMAP
3C00
6600
6300
6300
3300
1F80
C300
6300
6300
6300
6300
3600
1C00
ENDCHAR
STARTCHAR Upsilon1
ENCODING 978
SWIDTH 480 0
DWIDTH 10 0
BBX 10 13 0 0
BITMAP
6180
B340
1200
1E00
0C00
0C00
0C00
0C00
0C00
0C00
0C00
0C00
0C00
ENDCHAR
STARTCHAR uni03D3
ENCODING 979
SWIDTH 480 0
DWIDTH 10 0
BBX 10 13 0 0
BITMAP
6180
B340
1200
5E00
CC00
8C00
0C00
0C00
0C00
0C00
0C00
0C00
0C00
ENDCHAR
STARTCHAR uni03D4
ENCODING 980
SWIDTH 480 0
DWIDTH 10 0
BBX 10 14 0 0
BITMAP
6180
6180
0000
6180
B340
1200
1E00
1E00
0C00
0C00
0C00
0C00
0C00
0C00
ENDCHAR
STARTCHAR phi1
ENCODING 981
SWIDTH 480 0
DWIDTH 10 0
BBX 8 17 1 -4
BITMAP
18
18
18
18
18
7E
DB
DB
DB
DB
DB
DB
7E
18
18
18
18
ENDCHAR
STARTCHAR omega1
ENCODING 982
SWIDTH 480 0
DWIDTH 10 0
BBX 10 8 0 0
BITMAP
FFC0
6180
6D80
6D80
6D80
6D80
7F80
3300
ENDCHAR
STARTCHAR uni03D7
ENCODING 983
SWIDTH 480 0
DWIDTH 10 0
BBX 8 17 1 -4
BITMAP
60
30
18
00
00
C1
63
36
3C
38
6C
C7
83
03
06
0C
38
ENDCHAR
STARTCHAR uni03D8
ENCODING 984
SWIDTH 480 0
DWIDTH 10 0
BBX 8 16 1 -3
BITMAP
3C
66
C3
C3
C3
C3
C3
C3
C3
C3
C3
66
3C
18
18
18
ENDCHAR
STARTCHAR uni03D9
ENCODING 985
SWIDTH 480 0
DWIDTH 10 0
BBX 8 11 1 -3
BITMAP
3C
66
C3
C3
C3
C3
66
3C
18
18
18
ENDCHAR
STARTCHAR uni03DA
ENCODING 986
SWIDTH 480 0
DWIDTH 10 0
BBX 8 16 1 -3
BITMAP
1E
33
60
C0
C0
C0
C0
C0
C0
C0
60
3E
03
03
03
0E
ENDCHAR
STARTCHAR uni03DB
ENCODING 987
SWIDTH 480 0
DWIDTH 10 0
BBX 8 12 1 -3
BITMAP
03
3E
60
C0
C0
C0
C0
60
3E
03
03
0E
ENDCHAR
STARTCHAR uni03DC
ENCODING 988
SWIDTH 480 0
DWIDTH 10 0
BBX 8 13 1 0
BITMAP
FF
C0
C0
C0
C0
C0
FC
C0
C0
C0
C0
C0
C0
ENDCHAR
STARTCHAR uni03DD
ENCODING 989
SWIDTH 480 0
DWIDTH 10 0
BBX 7 12 2 -4
BITMAP
FE
C0
C0
C0
FC
C0
C0
C0
C0
C0
C0
C0
ENDCHAR
STARTCHAR uni03DE
ENCODING 990
SWIDTH 480 0
DWIDTH 10 0
BBX 10 13 0 0
BITMAP
C000
E000
6000
6180
6380
6780
6D80
7980
7180
6180
0180
01C0
00C0
ENDCHAR
STARTCHAR uni03DF
ENCODING 991
SWIDTH 480 0
DWIDTH 10 0
BBX 8 16 1 -3
BITMAP
18
18
30
30
60
60
C0
C0
FF
03
06
06
0C
0C
18
18
ENDCHAR
STARTCHAR uni03E0
ENCODING 992
SWIDTH 480 0
DWIDTH 10 0
BBX 8 13 1 0
BITMAP
18
18
18
3C
3C
3C
66
66
66
CF
DB
DB
DB
ENDCHAR
STARTCHAR uni03E1
ENCODING 993
SWIDTH 480 0
DWIDTH 10 0
BBX 9 16 0 -3
BITMAP
C000
6000
3000
1800
0C00
0E00
1E00
3300
6700
0F00
1980
1180
0180
0180
0180
0180
ENDCHAR
STARTCHAR uni03E2
ENCODING 994
SWIDTH 480 0
DWIDTH 10 0
BBX 9 15 0 -2
BITMAP
DB80
6D80
6D80
6D80
6D80
6D80
6D80
6D80
6D80
6D80
3F80
0180
3F00
6000
6000
ENDCHAR
STARTCHAR uni03E3
ENCODING 995
SWIDTH 480 0
DWIDTH 10 0
BBX 8 10 1 -2
BITMAP
DB
DB
DB
DB
DB
7F
03
7E
C0
C0
ENDCHAR
STARTCHAR uni03E4
ENCODING 996
SWIDTH 480 0
DWIDTH 10 0
BBX 8 13 1 0
BITMAP
33
7B
DB
C3
C3
C7
6F
3B
03
03
03
03
03
ENDCHAR
STARTCHAR uni03E5
ENCODING 997
SWIDTH 480 0
DWIDTH 10 0
BBX 8 8 1 0
BITMAP
33
7B
DB
C3
67
3F
03
03
ENDCHAR
STARTCHAR uni03E6
ENCODING 998
SWIDTH 480 0
DWIDTH 10 0
BBX 8 16 1 -3
BITMAP
F0
60
60
60
60
6C
76
63
63
63
63
63
F3
06
7C
C0
ENDCHAR
STARTCHAR uni03E7
ENCODING 999
SWIDTH 480 0
DWIDTH 10 0
BBX 8 9 1 0
BITMAP
18
7E
DB
73
03
03
73
DB
CE
ENDCHAR
STARTCHAR uni03E8
ENCODING 1000
SWIDTH 480 0
DWIDTH 10 0
BBX 8 13 1 0
BITMAP
3C
66
C3
C3
63
06
3C
60
C6
C3
C3
66
3C
ENDCHAR
STARTCHAR uni03E9
ENCODING 1001
SWIDTH 480 0
DWIDTH 10 0
BBX 8 10 1 -2
BITMAP
7E
C3
C3
63
06
0C
38
E0
38
0F
ENDCHAR
STARTCHAR uni03EA
ENCODING 1002
SWIDTH 480 0
DWIDTH 10 0
BBX 10 13 0 0
BITMAP
E1C0
B340
3300
3300
1E00
1E00
0C00
1E00
1E00
3300
3300
6180
7F80
ENDCHAR
STARTCHAR uni03EB
ENCODING 1003
SWIDTH 480 0
DWIDTH 10 0
BBX 10 8 0 0
BITMAP
E1C0
B340
1E00
0C00
0C00
1E00
3300
7F80
ENDCHAR
STARTCHAR uni03EC
ENCODING 1004
SWIDTH 480 0
DWIDTH 10 0
BBX 8 14 1 0
BITMAP
03
3E
60
C0
CE
DB
C3
C3
C3
C3
C3
C3
66
3C
ENDCHAR
STARTCHAR uni03ED
ENCODING 1005
SWIDTH 480 0
DWIDTH 10 0
BBX 8 9 1 0
BITMAP
03
7E
C0
CE
DB
C3
C3
C3
7E
ENDCHAR
STARTCHAR uni03EE
ENCODING 1006
SWIDTH 480 0
DWIDTH 10 0
BBX 8 13 1 0
BITMAP
3C
18
18
7E
DB
99
5A
18
18
18
18
18
3C
ENDCHAR
STARTCHAR uni03EF
ENCODING 1007
SWIDTH 480 0
DWIDTH 10 0
BBX 8 8 1 0
BITMAP
1C
19
7E
98
18
18
18
38
ENDCHAR
STARTCHAR uni03F0
ENCODING 1008
SWIDTH 480 0
DWIDTH 10 0
BBX 8 8 1 0
BITMAP
C1
63
36
3C
38
6C
C6
83
ENDCHAR
STARTCHAR uni03F1
ENCODING 1009
SWIDTH 480 0
DWIDTH 10 0
BBX 8 12 1 -4
BITMAP
3C
66
C3
C3
C3
C3
E6
FC
C0
C0
60
3E
ENDCHAR
STARTCHAR uni03F2
ENCODING 1010
SWIDTH 480 0
DWIDTH 10 0
BBX 8 8 1 0
BITMAP
3E
61
C0
C0
C0
C0
61
3E
ENDCHAR
STARTCHAR uni03F3
ENCODING 1011
SWIDTH 480 0
DWIDTH 10 0
BBX 7 15 1 -4
BITMAP
06
06
00
1E
06
06
06
06
06
06
06
C6
C6
C6
7C
ENDCHAR
STARTCHAR uni03F4
ENCODING 1012
SWIDTH 480 0
DWIDTH 10 0
BBX 8 13 1 0
BITMAP
3C
66
C3
C3
C3
C3
FF
C3
C3
C3
C3
66
3C
ENDCHAR
STARTCHAR uni03F5
ENCODING 1013
SWIDTH 480 0
DWIDTH 10 0
BBX 7 8 1 0
BITMAP
3E
60
C0
FC
C0
C0
60
3E
ENDCHAR
STARTCHAR uni03F6
ENCODING 1014
SWIDTH 480 0
DWIDTH 10 0
BBX 7 8 1 0
BITMAP
F8
0C
06
06
7E
06
0C
F8
ENDCHAR
STARTCHAR uni03F7
ENCODING 1015
SWIDTH 480 0
DWIDTH 10 0
BBX 8 13 1 0
BITMAP
C0
C0
F8
C6
C3
C3
C3
C3
C3
C6
F8
C0
C0
ENDCHAR
STARTCHAR uni03F8
ENCODING 1016
SWIDTH 480 0
DWIDTH 10 0
BBX 8 16 1 -4
BITMAP
C0
C0
C0
C0
FC
E6
C3
C3
C3
C3
E6
FC
C0
C0
C0
C0
ENDCHAR
STARTCHAR uni03F9
ENCODING 1017
SWIDTH 480 0
DWIDTH 10 0
BBX 8 13 1 0
BITMAP
3C
62
C1
C0
C0
C0
C0
C0
C0
C0
C1
62
3C
ENDCHAR
STARTCHAR uni03FA
ENCODING 1018
SWIDTH 480 0
DWIDTH 10 0
BBX 8 13 1 0
BITMAP
C3
E7
FF
FF
DB
C3
C3
C3
C3
C3
C3
C3
C3
ENDCHAR
STARTCHAR uni03FB
ENCODING 1019
SWIDTH 480 0
DWIDTH 10 0
BBX 8 12 1 -4
BITMAP
C3
E7
E7
DB
DB
C3
C3
C3
C0
C0
C0
C0
ENDCHAR
STARTCHAR uni03FC
ENCODING 1020
SWIDTH 480 0
DWIDTH 10 0
BBX 9 12 0 -4
BITMAP
1E00
3300
6180
6180
6180
6180
7300
7E00
6000
FC00
6000
6000
ENDCHAR
STARTCHAR uni03FD
ENCODING 1021
SWIDTH 480 0
DWIDTH 10 0
BBX 8 13 1 0
BITMAP
3C
66
C3
03
03
03
03
03
03
03
C3
66
3C
ENDCHAR
STARTCHAR uni03FE
ENCODING 1022
SWIDTH 480 0
DWIDTH 10 0
BBX 8 13 1 0
BITMAP
3C
66
C3
C0
C0
C0
CC
CC
C0
C0
C3
66
3C
ENDCHAR
STARTCHAR uni03FF
ENCODING 1023
SWIDTH 480 0
DWIDTH 10 0
BBX 8 13 1 0
BITMAP
3C
66
C3
03
03
03
33
33
03
03
C3
66
3C
ENDCHAR
STARTCHAR uni0400
ENCODING 1024
SWIDTH 480 0
DWIDTH 10 0
BBX 8 16 1 0
BITMAP
70
18
00
FF
C0
C0
C0
C0
C0
FC
C0
C0
C0
C0
C0
FF
ENDCHAR
STARTCHAR afii10023
ENCODING 1025
SWIDTH 480 0
DWIDTH 10 0
BBX 8 16 1 0
BITMAP
66
66
00
FF
C0
C0
C0
C0
C0
FC
C0
C0
C0
C0
C0
FF
ENDCHAR
STARTCHAR afii10051
ENCODING 1026
SWIDTH 480 0
DWIDTH 10 0
BBX 9 15 0 -2
BITMAP
FF00
1800
1800
1800
1F00
1980
1980
1980
1980
1980
1980
1980
1980
0180
0300
ENDCHAR
STARTCHAR afii10052
ENCODING 1027
SWIDTH 480 0
DWIDTH 10 0
BBX 8 16 1 0
BITMAP
1C
30
00
FF
C0
C0
C0
C0
C0
C0
C0
C0
C0
C0
C0
C0
ENDCHAR
STARTCHAR afii10053
ENCODING 1028
SWIDTH 480 0
DWIDTH 10 0
BBX 8 13 1 0
BITMAP
3C
66
C3
C0
C0
C0
FE
C0
C0
C0
C3
66
3C
ENDCHAR
STARTCHAR afii10054
ENCODING 1029
SWIDTH 480 0
DWIDTH 10 0
BBX 8 13 1 0
BITMAP
3C
66
C3
C0
C0
60
3C
06
03
03
C3
66
3C
ENDCHAR
STARTCHAR afii10055
ENCODING 1030
SWIDTH 480 0
DWIDTH 10 0
BBX 8 13 1 0
BITMAP
FF
18
18
18
18
18
18
18
18
18
18
18
FF
ENDCHAR
STARTCHAR afii10056
ENCODING 1031
SWIDTH 480 0
DWIDTH 10 0
BBX 8 16 1 0
BITMAP
66
66
00
FF
18
18
18
18
18
18
18
18
18
18
18
FF
ENDCHAR
STARTCHAR afii10057
ENCODING 1032
SWIDTH 480 0
DWIDTH 10 0
BBX 8 13 1 0
BITMAP
1F
03
03
03
03
03
03
03
03
C3
C3
66
3C
ENDCHAR
STARTCHAR afii10058
ENCODING 1033
SWIDTH 480 0
DWIDTH 10 0
BBX 9 13 0 0
BITMAP
7C00
6C00
6C00
6C00
6C00
6F00
6D00
6D80
6D80
6D80
6D80
6D00
CF00
ENDCHAR
STARTCHAR afii10059
ENCODING 1034
SWIDTH 480 0
DWIDTH 10 0
BBX 8 13 1 0
BITMAP
D8
D8
D8
D8
D8
D8
FE
DA
DB
DB
DB
DA
DE
ENDCHAR
STARTCHAR afii10060
ENCODING 1035
SWIDTH 480 0
DWIDTH 10 0
BBX 9 13 0 0
BITMAP
FF00
1800
1800
1800
1B00
1D80
1980
1980
1980
1980
1980
1980
1980
ENDCHAR
STARTCHAR afii10061
ENCODING 1036
SWIDTH 480 0
DWIDTH 10 0
BBX 8 16 1 0
BITMAP
06
0C
18
C3
C3
C6
C6
CC
CC
F8
CC
CC
C6
C6
C3
C3
ENDCHAR
STARTCHAR uni040D
ENCODING 1037
SWIDTH 480 0
DWIDTH 10 0
BBX 8 16 1 0
BITMAP
30
18
0C
C3
C3
C3
C3
C7
CF
DF
FB
F3
E3
C3
C3
C3
ENDCHAR
STARTCHAR afii10062
ENCODING 1038
SWIDTH 480 0
DWIDTH 10 0
BBX 8 16 1 0
BITMAP
66
3C
00
C3
C3
C3
C3
C3
C3
7F
03
03
03
03
C3
7E
ENDCHAR
STARTCHAR afii10145
ENCODING 1039
SWIDTH 480 0
DWIDTH 10 0
BBX 8 15 1 -2
BITMAP
C3
C3
C3
C3
C3
C3
C3
C3
C3
C3
C3
C3
FF
18
18
ENDCHAR
STARTCHAR afii10017
ENCODING 1040
SWIDTH 480 0
DWIDTH 10 0
BBX 8 13 1 0
BITMAP
18
3C
66
66
C3
C3
C3
FF
C3
C3
C3
C3
C3
ENDCHAR
STARTCHAR afii10018
ENCODING 1041
SWIDTH 480 0
DWIDTH 10 0
BBX 8 13 1 0
BITMAP
FE
C0
C0
C0
C0
C0
FC
C6
C3
C3
C3
C6
FC
ENDCHAR
STARTCHAR afii10019
ENCODING 1042
SWIDTH 480 0
DWIDTH 10 0
BBX 8 13 1 0
BITMAP
F8
CC
C6
C6
C6
CC
FC
C6
C3
C3
C3
C6
FC
ENDCHAR
STARTCHAR afii10020
ENCODING 1043
SWIDTH 480 0
DWIDTH 10 0
BBX 8 13 1 0
BITMAP
FF
C0
C0
C0
C0
C0
C0
C0
C0
C0
C0
C0
C0
ENDCHAR
STARTCHAR afii10021
ENCODING 1044
SWIDTH 480 0
DWIDTH 10 0
BBX 8 15 1 -2
BITMAP
1E
36
66
66
66
66
66
66
66
66
66
66
FF
C3
C3
ENDCHAR
STARTCHAR afii10022
ENCODING 1045
SWIDTH 480 0
DWIDTH 10 0
BBX 8 13 1 0
BITMAP
FF
C0
C0
C0
C0
C0
FC
C0
C0
C0
C0
C0
FF
ENDCHAR
STARTCHAR afii10024
ENCODING 1046
SWIDTH 480 0
DWIDTH 10 0
BBX 8 13 1 0
BITMAP
DB
DB
DB
DB
DB
7E
3C
7E
DB
DB
DB
DB
DB
ENDCHAR
STARTCHAR afii10025
ENCODING 1047
SWIDTH 480 0
DWIDTH 10 0
BBX 8 13 1 0
BITMAP
3C
66
C3
C3
03
06
1C
06
03
C3
C3
66
3C
ENDCHAR
STARTCHAR afii10026
ENCODING 1048
SWIDTH 480 0
DWIDTH 10 0
BBX 8 13 1 0
BITMAP
C3
C3
C3
C3
C7
CF
DF
FB
F3
E3
C3
C3
C3
ENDCHAR
STARTCHAR afii10027
ENCODING 1049
SWIDTH 480 0
DWIDTH 10 0
BBX 8 16 1 0
BITMAP
66
3C
00
C3
C3
C3
C3
C7
CF
DF
FB
F3
E3
C3
C3
C3
ENDCHAR
STARTCHAR afii10028
ENCODING 1050
SWIDTH 480 0
DWIDTH 10 0
BBX 8 13 1 0
BITMAP
C3
C3
C6
C6
CC
CC
F8
CC
CC
C6
C6
C3
C3
ENDCHAR
STARTCHAR afii10029
ENCODING 1051
SWIDTH 480 0
DWIDTH 10 0
BBX 8 13 1 0
BITMAP
1F
33
63
63
63
63
63
63
63
63
63
E3
C3
ENDCHAR
STARTCHAR afii10030
ENCODING 1052
SWIDTH 480 0
DWIDTH 10 0
BBX 8 13 1 0
BITMAP
C3
C3
E7
E7
FF
DB
DB
DB
DB
C3
C3
C3
C3
ENDCHAR
STARTCHAR afii10031
ENCODING 1053
SWIDTH 480 0
DWIDTH 10 0
BBX 8 13 1 0
BITMAP
C3
C3
C3
C3
C3
C3
FF
C3
C3
C3
C3
C3
C3
ENDCHAR
STARTCHAR afii10032
ENCODING 1054
SWIDTH 480 0
DWIDTH 10 0
BBX 8 13 1 0
BITMAP
3C
66
C3
C3
C3
C3
C3
C3
C3
C3
C3
66
3C
ENDCHAR
STARTCHAR afii10033
ENCODING 1055
SWIDTH 480 0
DWIDTH 10 0
BBX 8 13 1 0
BITMAP
FF
C3
C3
C3
C3
C3
C3
C3
C3
C3
C3
C3
C3
ENDCHAR
STARTCHAR afii10034
ENCODING 1056
SWIDTH 480 0
DWIDTH 10 0
BBX 8 13 1 0
BITMAP
FC
C6
C3
C3
C3
C3
C6
FC
C0
C0
C0
C0
C0
ENDCHAR
STARTCHAR afii10035
ENCODING 1057
SWIDTH 480 0
DWIDTH 10 0
BBX 8 13 1 0
BITMAP
3C
66
C3
C0
C0
C0
C0
C0
C0
C0
C3
66
3C
ENDCHAR
STARTCHAR afii10036
ENCODING 1058
SWIDTH 480 0
DWIDTH 10 0
BBX 8 13 1 0
BITMAP
FF
18
18
18
18
18
18
18
18
18
18
18
18
ENDCHAR
STARTCHAR afii10037
ENCODING 1059
SWIDTH 480 0
DWIDTH 10 0
BBX 8 13 1 0
BITMAP
C3
C3
C3
C3
C3
C3
7F
03
03
03
03
C3
7E
ENDCHAR
STARTCHAR afii10038
ENCODING 1060
SWIDTH 480 0
DWIDTH 10 0
BBX 8 13 1 0
BITMAP
18
7E
DB
DB
DB
DB
DB
DB
DB
DB
7E
18
18
ENDCHAR
STARTCHAR afii10039
ENCODING 1061
SWIDTH 480 0
DWIDTH 10 0
BBX 8 13 1 0
BITMAP
C3
C3
66
66
3C
3C
18
3C
3C
66
66
C3
C3
ENDCHAR
STARTCHAR afii10040
ENCODING 1062
SWIDTH 480 0
DWIDTH 10 0
BBX 9 15 1 -2
BITMAP
C300
C300
C300
C300
C300
C300
C300
C300
C300
C300
C300
C300
FF80
0180
0180
ENDCHAR
STARTCHAR afii10041
ENCODING 1063
SWIDTH 480 0
DWIDTH 10 0
BBX 8 13 1 0
BITMAP
C3
C3
C3
C3
C3
C3
C3
7F
03
03
03
03
03
ENDCHAR
STARTCHAR afii10042
ENCODING 1064
SWIDTH 480 0
DWIDTH 10 0
BBX 8 13 1 0
BITMAP
DB
DB
DB
DB
DB
DB
DB
DB
DB
DB
DB
DB
FF
ENDCHAR
STARTCHAR afii10043
ENCODING 1065
SWIDTH 480 0
DWIDTH 10 0
BBX 9 15 1 -2
BITMAP
DB00
DB00
DB00
DB00
DB00
DB00
DB00
DB00
DB00
DB00
DB00
DB00
FF80
0180
0180
ENDCHAR
STARTCHAR afii10044
ENCODING 1066
SWIDTH 480 0
DWIDTH 10 0
BBX 8 13 1 0
BITMAP
F0
B0
30
30
30
3E
33
33
33
33
33
33
3E
ENDCHAR
STARTCHAR afii10045
ENCODING 1067
SWIDTH 480 0
DWIDTH 10 0
BBX 8 13 1 0
BITMAP
C3
C3
C3
C3
C3
F3
DB
DB
DB
DB
DB
DB
F3
ENDCHAR
STARTCHAR afii10046
ENCODING 1068
SWIDTH 480 0
DWIDTH 10 0
BBX 8 13 1 0
BITMAP
C0
C0
C0
C0
C0
FC
C6
C3
C3
C3
C3
C6
FC
ENDCHAR
STARTCHAR afii10047
ENCODING 1069
SWIDTH 480 0
DWIDTH 10 0
BBX 8 13 1 0
BITMAP
3C
66
C3
03
03
03
7F
03
03
03
C3
66
3C
ENDCHAR
STARTCHAR afii10048
ENCODING 1070
SWIDTH 480 0
DWIDTH 10 0
BBX 8 13 1 0
BITMAP
CE
DB
DB
DB
DB
DB
FB
DB
DB
DB
DB
DB
CE
ENDCHAR
STARTCHAR afii10049
ENCODING 1071
SWIDTH 480 0
DWIDTH 10 0
BBX 8 13 1 0
BITMAP
3F
63
C3
C3
C3
C3
63
3F
33
63
63
C3
C3
ENDCHAR
STARTCHAR afii10065
ENCODING 1072
SWIDTH 480 0
DWIDTH 10 0
BBX 8 8 1 0
BITMAP
3E
63
03
7F
C3
C3
C3
7D
ENDCHAR
STARTCHAR afii10066
ENCODING 1073
SWIDTH 480 0
DWIDTH 10 0
BBX 8 12 1 0
BITMAP
02
7C
C0
C0
7C
E6
C3
C3
C3
C3
66
3C
ENDCHAR
STARTCHAR afii10067
ENCODING 1074
SWIDTH 480 0
DWIDTH 10 0
BBX 8 8 1 0
BITMAP
FC
C6
C6
FE
C3
C3
C3
FE
ENDCHAR
STARTCHAR afii10068
ENCODING 1075
SWIDTH 480 0
DWIDTH 10 0
BBX 8 8 1 0
BITMAP
FF
C0
C0
C0
C0
C0
C0
C0
ENDCHAR
STARTCHAR afii10069
ENCODING 1076
SWIDTH 480 0
DWIDTH 10 0
BBX 8 10 1 -2
BITMAP
1E
36
66
66
66
66
66
FF
C3
C3
ENDCHAR
STARTCHAR afii10070
ENCODING 1077
SWIDTH 480 0
DWIDTH 10 0
BBX 8 8 1 0
BITMAP
3C
66
C3
FF
C0
C0
63
3E
ENDCHAR
STARTCHAR afii10072
ENCODING 1078
SWIDTH 480 0
DWIDTH 10 0
BBX 8 8 1 0
BITMAP
DB
DB
DB
7E
7E
DB
DB
DB
ENDCHAR
STARTCHAR afii10073
ENCODING 1079
SWIDTH 480 0
DWIDTH 10 0
BBX 8 8 1 0
BITMAP
7E
C3
03
3E
06
03
C3
7E
ENDCHAR
STARTCHAR afii10074
ENCODING 1080
SWIDTH 480 0
DWIDTH 10 0
BBX 8 8 1 0
BITMAP
C3
C3
C7
CF
DB
F3
E3
C3
ENDCHAR
STARTCHAR afii10075
ENCODING 1081
SWIDTH 480 0
DWIDTH 10 0
BBX 8 11 1 0
BITMAP
66
3C
00
C3
C3
C7
CF
DB
F3
E3
C3
ENDCHAR
STARTCHAR afii10076
ENCODING 1082
SWIDTH 480 0
DWIDTH 10 0
BBX 8 8 1 0
BITMAP
C3
C6
CC
F8
F8
CC
C6
C3
ENDCHAR
STARTCHAR afii10077
ENCODING 1083
SWIDTH 480 0
DWIDTH 10 0
BBX 8 8 1 0
BITMAP
1F
33
63
63
63
63
63
C3
ENDCHAR
STARTCHAR afii10078
ENCODING 1084
SWIDTH 480 0
DWIDTH 10 0
BBX 8 8 1 0
BITMAP
C3
E7
FF
DB
DB
DB
C3
C3
ENDCHAR
STARTCHAR afii10079
ENCODING 1085
SWIDTH 480 0
DWIDTH 10 0
BBX 8 8 1 0
BITMAP
C3
C3
C3
FF
C3
C3
C3
C3
ENDCHAR
STARTCHAR afii10080
ENCODING 1086
SWIDTH 480 0
DWIDTH 10 0
BBX 8 8 1 0
BITMAP
3C
66
C3
C3
C3
C3
66
3C
ENDCHAR
STARTCHAR afii10081
ENCODING 1087
SWIDTH 480 0
DWIDTH 10 0
BBX 8 8 1 0
BITMAP
FF
C3
C3
C3
C3
C3
C3
C3
ENDCHAR
STARTCHAR afii10082
ENCODING 1088
SWIDTH 480 0
DWIDTH 10 0
BBX 8 12 1 -4
BITMAP
DC
E6
C3
C3
C3
C3
E6
DC
C0
C0
C0
C0
ENDCHAR
STARTCHAR afii10083
ENCODING 1089
SWIDTH 480 0
DWIDTH 10 0
BBX 8 8 1 0
BITMAP
3E
63
C0
C0
C0
C0
63
3E
ENDCHAR
STARTCHAR afii10084
ENCODING 1090
SWIDTH 480 0
DWIDTH 10 0
BBX 8 8 1 0
BITMAP
FF
18
18
18
18
18
18
18
ENDCHAR
STARTCHAR afii10085
ENCODING 1091
SWIDTH 480 0
DWIDTH 10 0
BBX 8 12 1 -4
BITMAP
C3
C3
C3
C3
C3
C3
67
3B
03
C3
66
3C
ENDCHAR
STARTCHAR afii10086
ENCODING 1092
SWIDTH 480 0
DWIDTH 10 0
BBX 8 14 1 -4
BITMAP
18
18
7E
DB
DB
DB
DB
DB
DB
7E
18
18
18
18
ENDCHAR
STARTCHAR afii10087
ENCODING 1093
SWIDTH 480 0
DWIDTH 10 0
BBX 8 8 1 0
BITMAP
C3
66
3C
18
18
3C
66
C3
ENDCHAR
STARTCHAR afii10088
ENCODING 1094
SWIDTH 480 0
DWIDTH 10 0
BBX 8 10 1 -2
BITMAP
C6
C6
C6
C6
C6
C6
C6
FF
03
03
ENDCHAR
STARTCHAR afii10089
ENCODING 1095
SWIDTH 480 0
DWIDTH 10 0
BBX 8 8 1 0
BITMAP
C3
C3
C3
C3
7F
03
03
03
ENDCHAR
STARTCHAR afii10090
ENCODING 1096
SWIDTH 480 0
DWIDTH 10 0
BBX 8 8 1 0
BITMAP
DB
DB
DB
DB
DB
DB
DB
FF
ENDCHAR
STARTCHAR afii10091
ENCODING 1097
SWIDTH 480 0
DWIDTH 10 0
BBX 9 10 1 -2
BITMAP
DB00
DB00
DB00
DB00
DB00
DB00
DB00
FF80
0180
0180
ENDCHAR
STARTCHAR afii10092
ENCODING 1098
SWIDTH 480 0
DWIDTH 10 0
BBX 8 8 1 0
BITMAP
E0
E0
FE
63
63
63
63
7E
ENDCHAR
STARTCHAR afii10093
ENCODING 1099
SWIDTH 480 0
DWIDTH 10 0
BBX 8 8 1 0
BITMAP
C3
C3
F3
DB
DB
DB
DB
F3
ENDCHAR
STARTCHAR afii10094
ENCODING 1100
SWIDTH 480 0
DWIDTH 10 0
BBX 8 8 1 0
BITMAP
C0
C0
C0
FE
C3
C3
C3
FE
ENDCHAR
STARTCHAR afii10095
ENCODING 1101
SWIDTH 480 0
DWIDTH 10 0
BBX 8 8 1 0
BITMAP
7E
C3
03
03
1F
03
C3
7E
ENDCHAR
STARTCHAR afii10096
ENCODING 1102
SWIDTH 480 0
DWIDTH 10 0
BBX 8 8 1 0
BITMAP
CE
DB
DB
FB
DB
DB
DB
CE
ENDCHAR
STARTCHAR afii10097
ENCODING 1103
SWIDTH 480 0
DWIDTH 10 0
BBX 8 8 1 0
BITMAP
7F
C3
C3
C3
7F
33
63
C3
ENDCHAR
STARTCHAR uni0450
ENCODING 1104
SWIDTH 480 0
DWIDTH 10 0
BBX 8 12 1 0
BITMAP
30
18
0C
00
3C
66
C3
FF
C0
C0
63
3E
ENDCHAR
STARTCHAR afii10071
ENCODING 1105
SWIDTH 480 0
DWIDTH 10 0
BBX 8 11 1 0
BITMAP
66
66
00
3C
66
C3
FF
C0
C0
63
3E
ENDCHAR
STARTCHAR afii10099
ENCODING 1106
SWIDTH 480 0
DWIDTH 10 0
BBX 8 17 1 -4
BITMAP
60
60
FC
60
60
6C
76
63
63
63
63
63
63
03
03
06
0C
ENDCHAR
STARTCHAR afii10100
ENCODING 1107
SWIDTH 480 0
DWIDTH 10 0
BBX 8 12 1 0
BITMAP
0C
18
30
00
FF
C0
C0
C0
C0
C0
C0
C0
ENDCHAR
STARTCHAR afii10101
ENCODING 1108
SWIDTH 480 0
DWIDTH 10 0
BBX 8 8 1 0
BITMAP
7E
C3
C0
F8
C0
C0
C3
7E
ENDCHAR
STARTCHAR afii10102
ENCODING 1109
SWIDTH 480 0
DWIDTH 10 0
BBX 8 8 1 0
BITMAP
7E
C3
C0
7E
03
03
C3
7E
ENDCHAR
STARTCHAR afii10103
ENCODING 1110
SWIDTH 480 0
DWIDTH 10 0
BBX 8 11 1 0
BITMAP
18
18
00
78
18
18
18
18
18
18
FF
ENDCHAR
STARTCHAR afii10104
ENCODING 1111
SWIDTH 480 0
DWIDTH 10 0
BBX 8 12 1 0
BITMAP
66
66
00
78
18
18
18
18
18
18
18
FF
ENDCHAR
STARTCHAR afii10105
ENCODING 1112
SWIDTH 480 0
DWIDTH 10 0
BBX 7 15 2 -4
BITMAP
06
06
00
1E
06
06
06
06
06
06
06
C6
C6
C6
7C
ENDCHAR
STARTCHAR afii10106
ENCODING 1113
SWIDTH 480 0
DWIDTH 10 0
BBX 9 8 0 0
BITMAP
7C00
6C00
6C00
6F00
6D80
6D80
6D80
CF00
ENDCHAR
STARTCHAR afii10107
ENCODING 1114
SWIDTH 480 0
DWIDTH 10 0
BBX 8 8 1 0
BITMAP
D8
D8
D8
FE
DB
DB
DB
DE
ENDCHAR
STARTCHAR afii10108
ENCODING 1115
SWIDTH 480 0
DWIDTH 10 0
BBX 9 13 0 0
BITMAP
6000
6000
6000
F800
6000
6E00
7300
6180
6180
6180
6180
6180
6180
ENDCHAR
STARTCHAR afii10109
ENCODING 1116
SWIDTH 480 0
DWIDTH 10 0
BBX 8 12 1 0
BITMAP
0C
18
30
00
C7
CC
CC
F8
F8
CC
C6
C3
ENDCHAR
STARTCHAR uni045D
ENCODING 1117
SWIDTH 480 0
DWIDTH 10 0
BBX 8 12 1 0
BITMAP
30
18
0C
00
C3
C3
C7
CF
DB
F3
E3
C3
ENDCHAR
STARTCHAR afii10110
ENCODING 1118
SWIDTH 480 0
DWIDTH 10 0
BBX 8 15 1 -4
BITMAP
66
3C
00
C3
C3
C3
C3
C3
C3
67
3B
03
C3
66
3C
ENDCHAR
STARTCHAR afii10193
ENCODING 1119
SWIDTH 480 0
DWIDTH 10 0
BBX 8 10 1 -2
BITMAP
C3
C3
C3
C3
C3
C3
C3
FF
18
18
ENDCHAR
STARTCHAR uni0460
ENCODING 1120
SWIDTH 480 0
DWIDTH 10 0
BBX 8 13 1 0
BITMAP
66
C3
C3
C3
C3
DB
DB
DB
DB
DB
DB
DB
66
ENDCHAR
STARTCHAR uni0461
ENCODING 1121
SWIDTH 480 0
DWIDTH 10 0
BBX 8 8 1 0
BITMAP
C3
C3
C3
DB
DB
DB
FF
66
ENDCHAR
STARTCHAR afii10146
ENCODING 1122
SWIDTH 480 0
DWIDTH 10 0
BBX 8 14 1 0
BITMAP
60
60
F8
E8
60
60
7C
66
63
63
63
63
66
7C
ENDCHAR
STARTCHAR afii10194
ENCODING 1123
SWIDTH 480 0
DWIDTH 10 0
BBX 8 11 1 0
BITMAP
40
60
60
FC
60
7E
63
63
63
63
7E
ENDCHAR
STARTCHAR uni0464
ENCODING 1124
SWIDTH 480 0
DWIDTH 10 0
BBX 8 13 1 0
BITMAP
CE
DB
DB
D8
D8
D8
FE
D8
D8
D8
DB
DB
CE
ENDCHAR
STARTCHAR uni0465
ENCODING 1125
SWIDTH 480 0
DWIDTH 10 0
BBX 8 8 1 0
BITMAP
CE
DB
D8
FE
D8
D8
DB
CE
ENDCHAR
STARTCHAR uni0466
ENCODING 1126
SWIDTH 480 0
DWIDTH 10 0
BBX 8 13 1 0
BITMAP
18
3C
66
66
C3
C3
E7
FF
DB
DB
DB
DB
DB
ENDCHAR
STARTCHAR uni0467
ENCODING 1127
SWIDTH 480 0
DWIDTH 10 0
BBX 8 8 1 0
BITMAP
18
3C
66
E7
FF
DB
DB
DB
ENDCHAR
STARTCHAR uni0468
ENCODING 1128
SWIDTH 480 0
DWIDTH 10 0
BBX 7 13 1 0
BITMAP
88
9C
94
B6
A2
A2
FE
AA
AA
AA
AA
AA
AA
ENDCHAR
STARTCHAR uni0469
ENCODING 1129
SWIDTH 480 0
DWIDTH 10 0
BBX 7 7 1 1
BITMAP
88
9C
94
FE
AA
AA
AA
ENDCHAR
STARTCHAR uni046A
ENCODING 1130
SWIDTH 480 0
DWIDTH 10 0
BBX 8 13 1 0
BITMAP
FF
C3
C3
66
3C
18
3C
7E
DB
DB
DB
DB
DB
ENDCHAR
STARTCHAR uni046B
ENCODING 1131
SWIDTH 480 0
DWIDTH 10 0
BBX 8 8 1 0
BITMAP
FF
66
3C
18
3C
7E
DB
DB
ENDCHAR
STARTCHAR uni046C
ENCODING 1132
SWIDTH 480 0
DWIDTH 10 0
BBX 7 13 1 0
BITMAP
BE
A2
A2
B6
9C
F8
9C
BE
AA
AA
AA
AA
AA
ENDCHAR
STARTCHAR uni046D
ENCODING 1133
SWIDTH 480 0
DWIDTH 10 0
BBX 7 7 1 1
BITMAP
BE
A2
94
F8
9C
AA
AA
ENDCHAR
STARTCHAR uni046E
ENCODING 1134
SWIDTH 480 0
DWIDTH 10 0
BBX 8 18 1 -2
BITMAP
66
3C
18
00
3C
66
C3
C3
06
1C
06
03
03
03
06
7C
C0
C0
ENDCHAR
STARTCHAR uni046F
ENCODING 1135
SWIDTH 480 0
DWIDTH 10 0
BBX 8 14 1 -2
BITMAP
66
3C
18
00
7E
C3
C3
06
03
03
03
7E
C0
C0
ENDCHAR
STARTCHAR uni0470
ENCODING 1136
SWIDTH 480 0
DWIDTH 10 0
BBX 8 13 1 0
BITMAP
DB
DB
DB
DB
DB
DB
7E
3C
18
18
18
18
18
ENDCHAR
STARTCHAR uni0471
ENCODING 1137
SWIDTH 480 0
DWIDTH 10 0
BBX 8 12 1 -2
BITMAP
18
18
DB
DB
DB
DB
DB
DB
7E
3C
18
18
ENDCHAR
STARTCHAR afii10147
ENCODING 1138
SWIDTH 480 0
DWIDTH 10 0
BBX 8 13 1 0
BITMAP
3C
66
C3
C3
C3
C3
FF
C3
C3
C3
C3
66
3C
ENDCHAR
STARTCHAR afii10195
ENCODING 1139
SWIDTH 480 0
DWIDTH 10 0
BBX 8 8 1 0
BITMAP
3C
66
C3
FF
C3
C3
66
3C
ENDCHAR
STARTCHAR afii10148
ENCODING 1140
SWIDTH 480 0
DWIDTH 10 0
BBX 8 13 1 0
BITMAP
C3
C6
C6
CC
CC
CC
CC
78
78
78
30
30
30
ENDCHAR
STARTCHAR afii10196
ENCODING 1141
SWIDTH 480 0
DWIDTH 10 0
BBX 8 8 1 0
BITMAP
C3
C6
CC
CC
78
78
30
30
ENDCHAR
STARTCHAR uni0476
ENCODING 1142
SWIDTH 480 0
DWIDTH 10 0
BBX 8 15 1 0
BITMAP
CC
66
00
C3
C6
C6
CC
CC
CC
CC
78
78
78
30
30
ENDCHAR
STARTCHAR uni0477
ENCODING 1143
SWIDTH 480 0
DWIDTH 10 0
BBX 8 11 1 0
BITMAP
CC
66
00
C3
C6
CC
CC
78
78
30
30
ENDCHAR
STARTCHAR uni0478
ENCODING 1144
SWIDTH 480 0
DWIDTH 10 0
BBX 10 16 0 -3
BITMAP
7000
D800
D800
D800
D800
DEC0
DEC0
DEC0
DAC0
DBC0
D9C0
D980
7180
0300
0600
0600
ENDCHAR
STARTCHAR uni0479
ENCODING 1145
SWIDTH 480 0
DWIDTH 10 0
BBX 10 11 0 -3
BITMAP
76C0
DEC0
DEC0
DAC0
DBC0
D9C0
D980
7180
0300
0600
0600
ENDCHAR
STARTCHAR uni047A
ENCODING 1146
SWIDTH 480 0
DWIDTH 10 0
BBX 8 15 1 -1
BITMAP
18
3C
7E
DB
C3
C3
C3
C3
C3
C3
C3
DB
7E
3C
18
ENDCHAR
STARTCHAR uni047B
ENCODING 1147
SWIDTH 480 0
DWIDTH 10 0
BBX 8 10 1 -1
BITMAP
18
3C
7E
DB
C3
C3
DB
7E
3C
18
ENDCHAR
STARTCHAR uni047C
ENCODING 1148
SWIDTH 480 0
DWIDTH 10 0
BBX 8 15 1 0
BITMAP
7E
C3
00
66
C3
C3
C3
DB
DB
DB
DB
DB
DB
DB
66
ENDCHAR
STARTCHAR uni047D
ENCODING 1149
SWIDTH 480 0
DWIDTH 10 0
BBX 8 11 1 0
BITMAP
7E
C3
00
C3
DB
DB
DB
DB
DB
FF
66
ENDCHAR
STARTCHAR uni047E
ENCODING 1150
SWIDTH 480 0
DWIDTH 10 0
BBX 8 15 1 0
BITMAP
FF
99
00
66
C3
C3
C3
DB
DB
DB
DB
DB
DB
DB
66
ENDCHAR
STARTCHAR uni047F
ENCODING 1151
SWIDTH 480 0
DWIDTH 10 0
BBX 8 11 1 0
BITMAP
FF
99
00
C3
DB
DB
DB
DB
DB
FF
66
ENDCHAR
STARTCHAR uni0480
ENCODING 1152
SWIDTH 480 0
DWIDTH 10 0
BBX 8 15 1 -2
BITMAP
3C
66
C3
C0
C0
C0
C0
C0
C0
C0
C0
60
3C
06
06
ENDCHAR
STARTCHAR uni0481
ENCODING 1153
SWIDTH 480 0
DWIDTH 10 0
BBX 8 10 1 -2
BITMAP
3E
63
C0
C0
C0
C0
60
38
0C
0C
ENDCHAR
STARTCHAR uni0482
ENCODING 1154
SWIDTH 480 0
DWIDTH 10 0
BBX 8 12 1 0
BITMAP
03
06
36
1C
0E
1B
D8
70
38
6C
60
C0
ENDCHAR
STARTCHAR uni0483
ENCODING 1155
SWIDTH 480 0
DWIDTH 10 0
BBX 6 3 1 13
BITMAP
0C
FC
C0
ENDCHAR
STARTCHAR uni0484
ENCODING 1156
SWIDTH 480 0
DWIDTH 10 0
BBX 7 3 0 13
BITMAP
3C
66
C6
ENDCHAR
STARTCHAR uni0485
ENCODING 1157
SWIDTH 480 0
DWIDTH 10 0
BBX 5 3 1 13
BITMAP
C0
F8
C0
ENDCHAR
STARTCHAR uni0486
ENCODING 1158
SWIDTH 480 0
DWIDTH 10 0
BBX 5 3 1 13
BITMAP
18
F8
18
ENDCHAR
STARTCHAR uni0487
ENCODING 1159
SWIDTH 480 0
DWIDTH 10 0
BBX 8 3 1 13
BITMAP
70
DC
C7
ENDCHAR
STARTCHAR uni0488
ENCODING 1160
SWIDTH 480 0
DWIDTH 10 0
BBX 10 20 0 -4
BITMAP
0400
4A00
A080
0140
0000
0000
0000
0000
0000
0000
0000
0000
0000
0000
0000
0000
4000
A080
0940
1400
ENDCHAR
STARTCHAR uni0489
ENCODING 1161
SWIDTH 480 0
DWIDTH 10 0
BBX 10 20 0 -4
BITMAP
0400
4840
8C80
C0C0
0000
0000
0000
0000
0000
0000
0000
0000
0000
0000
0000
0000
C0C0
4C40
8480
0800
ENDCHAR
STARTCHAR uni048A
ENCODING 1162
SWIDTH 480 0
DWIDTH 10 0
BBX 9 19 1 -3
BITMAP
6600
3C00
0000
C300
C300
C300
C300
C700
CF00
DF00
FB00
F300
E300
C300
C300
C380
0180
0300
0600
ENDCHAR
STARTCHAR uni048B
ENCODING 1163
SWIDTH 480 0
DWIDTH 10 0
BBX 9 14 1 -3
BITMAP
6600
3C00
0000
C300
C300
C700
CF00
DB00
F300
E300
C380
0180
0300
0600
ENDCHAR
STARTCHAR uni048C
ENCODING 1164
SWIDTH 480 0
DWIDTH 10 0
BBX 9 13 0 0
BITMAP
6000
6000
F000
6000
6000
7E00
6300
6180
6180
6180
6180
6300
7E00
ENDCHAR
STARTCHAR uni048D
ENCODING 1165
SWIDTH 480 0
DWIDTH 10 0
BBX 9 8 0 0
BITMAP
6000
F000
6000
7F00
6180
6180
6180
7F00
ENDCHAR
STARTCHAR uni048E
ENCODING 1166
SWIDTH 480 0
DWIDTH 10 0
BBX 8 13 1 0
BITMAP
FC
C6
C3
C3
C3
DB
CE
FE
C3
C0
C0
C0
C0
ENDCHAR
STARTCHAR uni048F
ENCODING 1167
SWIDTH 480 0
DWIDTH 10 0
BBX 8 12 1 -4
BITMAP
DC
E6
C3
C3
C3
DB
EE
DE
C3
C0
C0
C0
ENDCHAR
STARTCHAR afii10050
ENCODING 1168
SWIDTH 480 0
DWIDTH 10 0
BBX 8 14 1 0
BITMAP
03
03
FF
C0
C0
C0
C0
C0
C0
C0
C0
C0
C0
C0
ENDCHAR
STARTCHAR afii10098
ENCODING 1169
SWIDTH 480 0
DWIDTH 10 0
BBX 8 10 1 0
BITMAP
03
03
FF
C0
C0
C0
C0
C0
C0
C0
ENDCHAR
STARTCHAR uni0492
ENCODING 1170
SWIDTH 480 0
DWIDTH 10 0
BBX 8 13 1 0
BITMAP
3F
30
30
30
30
30
FC
30
30
30
30
30
30
ENDCHAR
STARTCHAR uni0493
ENCODING 1171
SWIDTH 480 0
DWIDTH 10 0
BBX 8 8 1 0
BITMAP
3F
30
30
30
FE
30
30
30
ENDCHAR
STARTCHAR uni0494
ENCODING 1172
SWIDTH 480 0
DWIDTH 10 0
BBX 8 15 1 -2
BITMAP
FF
C0
C0
C0
C0
C0
FC
C6
C3
C3
C3
C3
C3
03
06
ENDCHAR
STARTCHAR uni0495
ENCODING 1173
SWIDTH 480 0
DWIDTH 10 0
BBX 8 10 1 -2
BITMAP
FF
C0
C0
C0
FC
C6
C6
C6
06
0C
ENDCHAR
STARTCHAR uni0496
ENCODING 1174
SWIDTH 480 0
DWIDTH 10 0
BBX 9 15 1 -2
BITMAP
DB00
DB00
DB00
DB00
DB00
7E00
3C00
7E00
DB00
DB00
DB00
DB00
DB80
0180
0180
ENDCHAR
STARTCHAR uni0497
ENCODING 1175
SWIDTH 480 0
DWIDTH 10 0
BBX 9 10 1 -2
BITMAP
DB00
DB00
DB00
7E00
7E00
DB00
DB00
DB80
0180
0180
ENDCHAR
STARTCHAR uni0498
ENCODING 1176
SWIDTH 480 0
DWIDTH 10 0
BBX 8 16 1 -3
BITMAP
3C
66
C3
C3
03
06
1C
06
03
C3
C3
66
3C
18
18
30
ENDCHAR
STARTCHAR uni0499
ENCODING 1177
SWIDTH 480 0
DWIDTH 10 0
BBX 8 11 1 -3
BITMAP
7E
C3
03
3E
03
03
C3
7E
18
18
30
ENDCHAR
STARTCHAR uni049A
ENCODING 1178
SWIDTH 480 0
DWIDTH 10 0
BBX 9 15 1 -2
BITMAP
C100
C300
C600
C600
CC00
CC00
F800
CC00
CC00
C600
C600
C380
C380
0180
0180
ENDCHAR
STARTCHAR uni049B
ENCODING 1179
SWIDTH 480 0
DWIDTH 10 0
BBX 9 10 1 -2
BITMAP
C200
C600
CC00
F800
F800
CC00
C600
C380
0180
0180
ENDCHAR
STARTCHAR uni049C
ENCODING 1180
SWIDTH 480 0
DWIDTH 10 0
BBX 8 13 1 0
BITMAP
C3
C6
C6
D6
D6
D6
FC
D6
D6
D6
C6
C3
C3
ENDCHAR
STARTCHAR uni049D
ENCODING 1181
SWIDTH 480 0
DWIDTH 10 0
BBX 8 8 1 0
BITMAP
C3
D3
D6
FE
FE
D6
D3
C3
ENDCHAR
STARTCHAR uni049E
ENCODING 1182
SWIDTH 480 0
DWIDTH 10 0
BBX 9 13 0 0
BITMAP
6080
6180
FB00
6300
6600
6600
7C00
6600
6600
6300
6300
6180
6180
ENDCHAR
STARTCHAR uni049F
ENCODING 1183
SWIDTH 480 0
DWIDTH 10 0
BBX 9 13 0 0
BITMAP
6000
6000
6000
F800
6000
6300
6600
6C00
7800
7C00
6600
6300
6180
ENDCHAR
STARTCHAR uni04A0
ENCODING 1184
SWIDTH 480 0
DWIDTH 10 0
BBX 9 13 0 0
BITMAP
E080
6180
6300
6300
6600
6600
7C00
6600
6600
6300
6300
6180
6180
ENDCHAR
STARTCHAR uni04A1
ENCODING 1185
SWIDTH 480 0
DWIDTH 10 0
BBX 9 8 0 0
BITMAP
E180
6300
6600
7C00
7C00
6600
6300
6180
ENDCHAR
STARTCHAR uni04A2
ENCODING 1186
SWIDTH 480 0
DWIDTH 10 0
BBX 9 15 1 -2
BITMAP
C300
C300
C300
C300
C300
C300
FF00
C300
C300
C300
C300
C300
C380
0180
0180
ENDCHAR
STARTCHAR uni04A3
ENCODING 1187
SWIDTH 480 0
DWIDTH 10 0
BBX 9 10 1 -2
BITMAP
C300
C300
C300
FF00
C300
C300
C300
C380
0180
0180
ENDCHAR
STARTCHAR uni04A4
ENCODING 1188
SWIDTH 480 0
DWIDTH 10 0
BBX 10 13 0 0
BITMAP
CFC0
CC00
CC00
CC00
CC00
CC00
FC00
CC00
CC00
CC00
CC00
CC00
CC00
ENDCHAR
STARTCHAR uni04A5
ENCODING 1189
SWIDTH 480 0
DWIDTH 10 0
BBX 8 8 1 0
BITMAP
DF
D8
D8
F8
D8
D8
D8
D8
ENDCHAR
STARTCHAR uni04A6
ENCODING 1190
SWIDTH 480 0
DWIDTH 10 0
BBX 9 15 0 -2
BITMAP
FC00
CC00
CC00
CC00
CC00
CC00
CF00
CD80
CD80
CD80
CD80
CD80
CD80
0180
0300
ENDCHAR
STARTCHAR uni04A7
ENCODING 1191
SWIDTH 480 0
DWIDTH 10 0
BBX 8 10 1 -2
BITMAP
F8
D8
D8
DE
DB
DB
DB
DB
03
06
ENDCHAR
STARTCHAR uni04A8
ENCODING 1192
SWIDTH 480 0
DWIDTH 10 0
BBX 9 14 0 -1
BITMAP
3C00
6000
C000
C000
C000
C000
C600
CF00
D980
D980
CF00
6600
3F00
0180
ENDCHAR
STARTCHAR uni04A9
ENCODING 1193
SWIDTH 480 0
DWIDTH 10 0
BBX 8 10 1 -2
BITMAP
3C
60
C0
CE
DB
DB
7B
3E
0C
07
ENDCHAR
STARTCHAR uni04AA
ENCODING 1194
SWIDTH 480 0
DWIDTH 10 0
BBX 8 16 1 -3
BITMAP
3C
66
C3
C0
C0
C0
C0
C0
C0
C0
C3
66
3C
18
18
0C
ENDCHAR
STARTCHAR uni04AB
ENCODING 1195
SWIDTH 480 0
DWIDTH 10 0
BBX 8 11 1 -3
BITMAP
3E
63
C0
C0
C0
C0
63
3E
18
18
0C
ENDCHAR
STARTCHAR uni04AC
ENCODING 1196
SWIDTH 480 0
DWIDTH 10 0
BBX 8 15 1 -2
BITMAP
FF
18
18
18
18
18
18
18
18
18
18
18
1C
0C
0C
ENDCHAR
STARTCHAR uni04AD
ENCODING 1197
SWIDTH 480 0
DWIDTH 10 0
BBX 8 10 1 -2
BITMAP
FF
18
18
18
18
18
18
1C
0C
0C
ENDCHAR
STARTCHAR uni04AE
ENCODING 1198
SWIDTH 480 0
DWIDTH 10 0
BBX 8 13 1 0
BITMAP
C3
C3
66
66
3C
3C
18
18
18
18
18
18
18
ENDCHAR
STARTCHAR uni04AF
ENCODING 1199
SWIDTH 480 0
DWIDTH 10 0
BBX 8 11 1 -3
BITMAP
C3
C3
66
3C
18
18
18
18
18
18
18
ENDCHAR
STARTCHAR uni04B0
ENCODING 1200
SWIDTH 480 0
DWIDTH 10 0
BBX 8 13 1 0
BITMAP
C3
C3
66
66
3C
3C
18
7E
18
18
18
18
18
ENDCHAR
STARTCHAR uni04B1
ENCODING 1201
SWIDTH 480 0
DWIDTH 10 0
BBX 8 11 1 -3
BITMAP
C3
C3
66
3C
18
18
18
7E
18
18
18
ENDCHAR
STARTCHAR uni04B2
ENCODING 1202
SWIDTH 480 0
DWIDTH 10 0
BBX 9 15 1 -2
BITMAP
C300
C300
6600
6600
3C00
3C00
1800
3C00
3C00
6600
6600
C380
C380
0180
0180
ENDCHAR
STARTCHAR uni04B3
ENCODING 1203
SWIDTH 480 0
DWIDTH 10 0
BBX 9 10 1 -2
BITMAP
C300
6600
3C00
1800
1800
3C00
6600
C380
0180
0180
ENDCHAR
STARTCHAR uni04B4
ENCODING 1204
SWIDTH 480 0
DWIDTH 10 0
BBX 10 15 0 -2
BITMAP
FD80
3180
3180
3180
3180
3180
3180
3180
3180
3180
3180
3180
3FC0
00C0
00C0
ENDCHAR
STARTCHAR uni04B5
ENCODING 1205
SWIDTH 480 0
DWIDTH 10 0
BBX 10 10 0 -2
BITMAP
FD80
3180
3180
3180
3180
3180
3180
3FC0
00C0
00C0
ENDCHAR
STARTCHAR uni04B6
ENCODING 1206
SWIDTH 480 0
DWIDTH 10 0
BBX 9 15 1 -2
BITMAP
C300
C300
C300
C300
C300
C300
C300
7F00
0300
0300
0300
0380
0380
0180
0180
ENDCHAR
STARTCHAR uni04B7
ENCODING 1207
SWIDTH 480 0
DWIDTH 10 0
BBX 9 10 1 -2
BITMAP
C300
C300
C300
C300
7F00
0300
0300
0380
0180
0180
ENDCHAR
STARTCHAR uni04B8
ENCODING 1208
SWIDTH 480 0
DWIDTH 10 0
BBX 8 13 1 0
BITMAP
C3
C3
C3
C3
C3
D3
D3
7F
13
13
03
03
03
ENDCHAR
STARTCHAR uni04B9
ENCODING 1209
SWIDTH 480 0
DWIDTH 10 0
BBX 8 8 1 0
BITMAP
C3
C3
D3
D3
7F
13
13
03
ENDCHAR
STARTCHAR uni04BA
ENCODING 1210
SWIDTH 480 0
DWIDTH 10 0
BBX 8 13 1 0
BITMAP
C0
C0
C0
C0
C0
FE
C3
C3
C3
C3
C3
C3
C3
ENDCHAR
STARTCHAR uni04BB
ENCODING 1211
SWIDTH 480 0
DWIDTH 10 0
BBX 7 13 1 0
BITMAP
C0
C0
C0
C0
C0
D8
EC
C6
C6
C6
C6
C6
C6
ENDCHAR
STARTCHAR uni04BC
ENCODING 1212
SWIDTH 480 0
DWIDTH 10 0
BBX 9 13 0 0
BITMAP
0E00
1B00
3180
B180
B180
7F80
3000
3000
3000
3000
3180
1B00
0E00
ENDCHAR
STARTCHAR uni04BD
ENCODING 1213
SWIDTH 480 0
DWIDTH 10 0
BBX 9 8 0 0
BITMAP
0F00
9980
B180
7F80
3000
3000
1980
0F00
ENDCHAR
STARTCHAR uni04BE
ENCODING 1214
SWIDTH 480 0
DWIDTH 10 0
BBX 9 16 0 -3
BITMAP
0E00
1B00
3180
B180
B180
7F80
3000
3000
3000
3000
3180
1B00
0E00
0600
0680
0300
ENDCHAR
STARTCHAR uni04BF
ENCODING 1215
SWIDTH 480 0
DWIDTH 10 0
BBX 9 11 0 -3
BITMAP
0F00
9980
B180
7F80
3000
3000
1980
0F00
0600
0680
0300
ENDCHAR
STARTCHAR uni04C0
ENCODING 1216
SWIDTH 480 0
DWIDTH 10 0
BBX 8 13 1 0
BITMAP
FF
18
18
18
18
18
18
18
18
18
18
18
FF
ENDCHAR
STARTCHAR uni04C1
ENCODING 1217
SWIDTH 480 0
DWIDTH 10 0
BBX 8 15 1 0
BITMAP
66
3C
00
DB
DB
DB
DB
7E
3C
7E
DB
DB
DB
DB
DB
ENDCHAR
STARTCHAR uni04C2
ENCODING 1218
SWIDTH 480 0
DWIDTH 10 0
BBX 8 11 1 0
BITMAP
66
3C
00
DB
DB
DB
7E
7E
DB
DB
DB
ENDCHAR
STARTCHAR uni04C3
ENCODING 1219
SWIDTH 480 0
DWIDTH 10 0
BBX 8 15 1 -2
BITMAP
C1
C3
C6
C6
CC
CC
FC
C6
C3
C3
C3
C3
C3
06
3C
ENDCHAR
STARTCHAR uni04C4
ENCODING 1220
SWIDTH 480 0
DWIDTH 10 0
BBX 8 10 1 -2
BITMAP
C3
C6
CC
F8
FE
C3
C3
C3
03
3E
ENDCHAR
STARTCHAR uni04C5
ENCODING 1221
SWIDTH 480 0
DWIDTH 10 0
BBX 9 16 1 -3
BITMAP
1F00
3300
6300
6300
6300
6300
6300
6300
6300
6300
6300
E300
C380
0180
0300
0600
ENDCHAR
STARTCHAR uni04C6
ENCODING 1222
SWIDTH 480 0
DWIDTH 10 0
BBX 9 11 1 -3
BITMAP
1F00
3300
6300
6300
6300
6300
6300
C380
0180
0300
0600
ENDCHAR
STARTCHAR uni04C7
ENCODING 1223
SWIDTH 480 0
DWIDTH 10 0
BBX 8 15 1 -2
BITMAP
C3
C3
C3
C3
C3
C3
FF
C3
C3
C3
C3
C3
C3
03
3E
ENDCHAR
STARTCHAR uni04C8
ENCODING 1224
SWIDTH 480 0
DWIDTH 10 0
BBX 8 10 1 -2
BITMAP
C3
C3
C3
FF
C3
C3
C3
C3
03
3E
ENDCHAR
STARTCHAR uni04C9
ENCODING 1225
SWIDTH 480 0
DWIDTH 10 0
BBX 9 16 1 -3
BITMAP
C300
C300
C300
C300
C300
C300
FF00
C300
C300
C300
C300
C300
C380
0180
0300
0600
ENDCHAR
STARTCHAR uni04CA
ENCODING 1226
SWIDTH 480 0
DWIDTH 10 0
BBX 9 11 1 -3
BITMAP
C300
C300
C300
FF00
C300
C300
C300
C380
0180
0300
0600
ENDCHAR
STARTCHAR uni04CB
ENCODING 1227
SWIDTH 480 0
DWIDTH 10 0
BBX 8 15 1 -2
BITMAP
C3
C3
C3
C3
C3
C3
C3
7F
03
03
03
03
07
06
06
ENDCHAR
STARTCHAR uni04CC
ENCODING 1228
SWIDTH 480 0
DWIDTH 10 0
BBX 8 10 1 -2
BITMAP
C3
C3
C3
C3
7F
03
03
07
06
06
ENDCHAR
STARTCHAR uni04CD
ENCODING 1229
SWIDTH 480 0
DWIDTH 10 0
BBX 9 16 1 -3
BITMAP
C300
C300
E700
E700
FF00
DB00
DB00
DB00
DB00
C300
C300
C300
C380
0180
0300
0600
ENDCHAR
STARTCHAR uni04CE
ENCODING 1230
SWIDTH 480 0
DWIDTH 10 0
BBX 9 11 1 -3
BITMAP
C300
E700
FF00
DB00
DB00
DB00
C300
C380
0180
0300
0600
ENDCHAR
STARTCHAR uni04CF
ENCODING 1231
SWIDTH 480 0
DWIDTH 10 0
BBX 4 13 3 0
BITMAP
F0
60
60
60
60
60
60
60
60
60
60
60
F0
ENDCHAR
STARTCHAR uni04D0
ENCODING 1232
SWIDTH 480 0
DWIDTH 10 0
BBX 8 15 1 0
BITMAP
66
3C
00
18
3C
66
66
C3
C3
FF
C3
C3
C3
C3
C3
ENDCHAR
STARTCHAR uni04D1
ENCODING 1233
SWIDTH 480 0
DWIDTH 10 0
BBX 8 11 1 0
BITMAP
66
3C
00
3E
63
03
7F
C3
C3
C3
7D
ENDCHAR
STARTCHAR uni04D2
ENCODING 1234
SWIDTH 480 0
DWIDTH 10 0
BBX 8 15 1 0
BITMAP
66
66
00
18
3C
66
66
C3
C3
FF
C3
C3
C3
C3
C3
ENDCHAR
STARTCHAR uni04D3
ENCODING 1235
SWIDTH 480 0
DWIDTH 10 0
BBX 8 11 1 0
BITMAP
66
66
00
7E
C3
03
7F
C3
C3
C3
7D
ENDCHAR
STARTCHAR uni04D4
ENCODING 1236
SWIDTH 480 0
DWIDTH 10 0
BBX 8 13 1 0
BITMAP
1F
3C
6C
6C
CC
CC
FF
CC
CC
CC
CC
CC
CF
ENDCHAR
STARTCHAR uni04D5
ENCODING 1237
SWIDTH 480 0
DWIDTH 10 0
BBX 8 8 1 0
BITMAP
76
9B
1B
1E
78
D8
D9
6E
ENDCHAR
STARTCHAR uni04D6
ENCODING 1238
SWIDTH 480 0
DWIDTH 10 0
BBX 8 15 1 0
BITMAP
66
3C
00
FF
C0
C0
C0
C0
FC
C0
C0
C0
C0
C0
FF
ENDCHAR
STARTCHAR uni04D7
ENCODING 1239
SWIDTH 480 0
DWIDTH 10 0
BBX 8 11 1 0
BITMAP
66
3C
00
3C
66
C3
FF
C0
C0
63
3E
ENDCHAR
STARTCHAR uni04D8
ENCODING 1240
SWIDTH 480 0
DWIDTH 10 0
BBX 8 13 1 0
BITMAP
3C
66
C3
03
03
03
FF
C3
C3
C3
66
66
3C
ENDCHAR
STARTCHAR afii10846
ENCODING 1241
SWIDTH 480 0
DWIDTH 10 0
BBX 8 8 1 0
BITMAP
7C
C6
03
03
FF
C3
66
3C
ENDCHAR
STARTCHAR uni04DA
ENCODING 1242
SWIDTH 480 0
DWIDTH 10 0
BBX 8 15 1 0
BITMAP
66
66
00
3C
66
C3
03
03
FF
C3
C3
C3
66
66
3C
ENDCHAR
STARTCHAR uni04DB
ENCODING 1243
SWIDTH 480 0
DWIDTH 10 0
BBX 8 11 1 0
BITMAP
66
66
00
7C
C6
03
03
FF
C3
66
3C
ENDCHAR
STARTCHAR uni04DC
ENCODING 1244
SWIDTH 480 0
DWIDTH 10 0
BBX 8 15 1 0
BITMAP
66
66
00
DB
DB
DB
DB
7E
3C
7E
DB
DB
DB
DB
DB
ENDCHAR
STARTCHAR uni04DD
ENCODING 1245
SWIDTH 480 0
DWIDTH 10 0
BBX 8 11 1 0
BITMAP
66
66
00
DB
DB
DB
7E
7E
DB
DB
DB
ENDCHAR
STARTCHAR uni04DE
ENCODING 1246
SWIDTH 480 0
DWIDTH 10 0
BBX 8 15 1 0
BITMAP
66
66
00
3C
66
C3
C3
06
1C
06
03
C3
C3
66
3C
ENDCHAR
STARTCHAR uni04DF
ENCODING 1247
SWIDTH 480 0
DWIDTH 10 0
BBX 8 11 1 0
BITMAP
66
66
00
7E
C3
03
1E
0E
03
C3
7E
ENDCHAR
STARTCHAR uni04E0
ENCODING 1248
SWIDTH 480 0
DWIDTH 10 0
BBX 8 13 1 0
BITMAP
FF
03
06
06
0C
3C
06
03
03
C3
C3
66
3C
ENDCHAR
STARTCHAR uni04E1
ENCODING 1249
SWIDTH 480 0
DWIDTH 10 0
BBX 8 13 1 -4
BITMAP
FF
03
06
06
0C
3C
06
03
03
C3
C3
66
3C
ENDCHAR
STARTCHAR uni04E2
ENCODING 1250
SWIDTH 480 0
DWIDTH 10 0
BBX 8 15 1 0
BITMAP
FF
00
C3
C3
C3
C3
C7
CF
DF
FB
F3
E3
C3
C3
C3
ENDCHAR
STARTCHAR uni04E3
ENCODING 1251
SWIDTH 480 0
DWIDTH 10 0
BBX 8 10 1 0
BITMAP
FF
00
C3
C3
C7
CF
DB
F3
E3
C3
ENDCHAR
STARTCHAR uni04E4
ENCODING 1252
SWIDTH 480 0
DWIDTH 10 0
BBX 8 15 1 0
BITMAP
66
66
00
C3
C3
C3
C7
CF
DF
FB
F3
E3
C3
C3
C3
ENDCHAR
STARTCHAR uni04E5
ENCODING 1253
SWIDTH 480 0
DWIDTH 10 0
BBX 8 11 1 0
BITMAP
66
66
00
C3
C3
C7
CF
DB
F3
E3
C3
ENDCHAR
STARTCHAR uni04E6
ENCODING 1254
SWIDTH 480 0
DWIDTH 10 0
BBX 8 15 1 0
BITMAP
66
66
00
3C
66
C3
C3
C3
C3
C3
C3
C3
C3
66
3C
ENDCHAR
STARTCHAR uni04E7
ENCODING 1255
SWIDTH 480 0
DWIDTH 10 0
BBX 8 11 1 0
BITMAP
66
66
00
3C
66
C3
C3
C3
C3
66
3C
ENDCHAR
STARTCHAR uni04E8
ENCODING 1256
SWIDTH 480 0
DWIDTH 10 0
BBX 8 13 1 0
BITMAP
3C
66
C3
C3
C3
C3
FF
C3
C3
C3
C3
66
3C
ENDCHAR
STARTCHAR uni04E9
ENCODING 1257
SWIDTH 480 0
DWIDTH 10 0
BBX 8 8 1 0
BITMAP
3C
66
C3
FF
C3
C3
66
3C
ENDCHAR
STARTCHAR uni04EA
ENCODING 1258
SWIDTH 480 0
DWIDTH 10 0
BBX 8 15 1 0
BITMAP
66
66
00
3C
66
C3
C3
C3
FF
C3
C3
C3
C3
66
3C
ENDCHAR
STARTCHAR uni04EB
ENCODING 1259
SWIDTH 480 0
DWIDTH 10 0
BBX 8 11 1 0
BITMAP
66
66
00
3C
66
C3
FF
C3
C3
66
3C
ENDCHAR
STARTCHAR uni04EC
ENCODING 1260
SWIDTH 480 0
DWIDTH 10 0
BBX 8 15 1 0
BITMAP
66
66
00
3C
66
C3
03
03
7F
03
03
03
C3
66
3C
ENDCHAR
STARTCHAR uni04ED
ENCODING 1261
SWIDTH 480 0
DWIDTH 10 0
BBX 8 11 1 0
BITMAP
66
66
00
7E
C3
03
3F
03
03
C3
7E
ENDCHAR
STARTCHAR uni04EE
ENCODING 1262
SWIDTH 480 0
DWIDTH 10 0
BBX 8 15 1 0
BITMAP
FF
00
C3
C3
C3
C3
C3
C3
7F
03
03
03
03
C3
7E
ENDCHAR
STARTCHAR uni04EF
ENCODING 1263
SWIDTH 480 0
DWIDTH 10 0
BBX 8 14 1 -4
BITMAP
FF
00
C3
C3
C3
C3
C3
C3
67
3B
03
C3
66
3C
ENDCHAR
STARTCHAR uni04F0
ENCODING 1264
SWIDTH 480 0
DWIDTH 10 0
BBX 8 16 1 -1
BITMAP
66
66
00
C3
C3
C3
C3
C3
C3
7F
03
03
03
03
C3
7E
ENDCHAR
STARTCHAR uni04F1
ENCODING 1265
SWIDTH 480 0
DWIDTH 10 0
BBX 8 15 1 -4
BITMAP
66
66
00
C3
C3
C3
C3
C3
C3
67
3B
03
C3
66
3C
ENDCHAR
STARTCHAR uni04F2
ENCODING 1266
SWIDTH 480 0
DWIDTH 10 0
BBX 8 16 1 0
BITMAP
33
66
00
C3
C3
C3
C3
C3
C3
7F
03
03
03
03
C3
7E
ENDCHAR
STARTCHAR uni04F3
ENCODING 1267
SWIDTH 480 0
DWIDTH 10 0
BBX 8 15 1 -4
BITMAP
33
66
00
C3
C3
C3
C3
C3
C3
67
3B
03
C3
66
3C
ENDCHAR
STARTCHAR uni04F4
ENCODING 1268
SWIDTH 480 0
DWIDTH 10 0
BBX 8 15 1 0
BITMAP
66
66
00
C3
C3
C3
C3
C3
C3
7F
03
03
03
03
03
ENDCHAR
STARTCHAR uni04F5
ENCODING 1269
SWIDTH 480 0
DWIDTH 10 0
BBX 8 11 1 0
BITMAP
66
66
00
C3
C3
C3
C3
7F
03
03
03
ENDCHAR
STARTCHAR uni04F6
ENCODING 1270
SWIDTH 480 0
DWIDTH 10 0
BBX 8 15 1 -2
BITMAP
FF
C0
C0
C0
C0
C0
C0
C0
C0
C0
C0
C0
E0
60
60
ENDCHAR
STARTCHAR uni04F7
ENCODING 1271
SWIDTH 480 0
DWIDTH 10 0
BBX 8 10 1 -2
BITMAP
FF
C0
C0
C0
C0
C0
C0
E0
60
60
ENDCHAR
STARTCHAR uni04F8
ENCODING 1272
SWIDTH 480 0
DWIDTH 10 0
BBX 8 15 1 0
BITMAP
66
66
00
C3
C3
C3
C3
C3
F3
DB
DB
DB
DB
DB
F3
ENDCHAR
STARTCHAR uni04F9
ENCODING 1273
SWIDTH 480 0
DWIDTH 10 0
BBX 8 11 1 0
BITMAP
66
66
00
C3
C3
F3
DB
DB
DB
DB
F3
ENDCHAR
STARTCHAR uni04FA
ENCODING 1274
SWIDTH 480 0
DWIDTH 10 0
BBX 9 15 0 -2
BITMAP
1F80
1800
1800
1800
1800
1800
7E00
1800
1800
1800
1800
1800
1800
1800
F000
ENDCHAR
STARTCHAR uni04FB
ENCODING 1275
SWIDTH 480 0
DWIDTH 10 0
BBX 9 10 0 -2
BITMAP
1F80
1800
1800
1800
7F00
1800
1800
1800
1800
F000
ENDCHAR
STARTCHAR uni04FC
ENCODING 1276
SWIDTH 480 0
DWIDTH 10 0
BBX 8 15 1 -2
BITMAP
C3
C3
66
66
3C
3C
18
3C
3C
66
66
C3
C3
03
3E
ENDCHAR
STARTCHAR uni04FD
ENCODING 1277
SWIDTH 480 0
DWIDTH 10 0
BBX 8 10 1 -2
BITMAP
C3
66
3C
18
18
3C
66
C3
03
3E
ENDCHAR
STARTCHAR uni04FE
ENCODING 1278
SWIDTH 480 0
DWIDTH 10 0
BBX 8 13 1 0
BITMAP
C3
C3
66
66
3C
3C
FF
3C
3C
66
66
C3
C3
ENDCHAR
STARTCHAR uni04FF
ENCODING 1279
SWIDTH 480 0
DWIDTH 10 0
BBX 8 8 1 0
BITMAP
C3
66
3C
18
FF
3C
66
C3
ENDCHAR
STARTCHAR uni0500
ENCODING 1280
SWIDTH 480 0
DWIDTH 10 0
BBX 8 13 1 0
BITMAP
03
03
03
03
3F
63
C3
C3
C3
C3
C3
63
3F
ENDCHAR
STARTCHAR uni0501
ENCODING 1281
SWIDTH 480 0
DWIDTH 10 0
BBX 8 13 1 0
BITMAP
03
03
03
03
03
3B
67
C3
C3
C3
C3
67
3B
ENDCHAR
STARTCHAR uni0502
ENCODING 1282
SWIDTH 480 0
DWIDTH 10 0
BBX 9 13 0 0
BITMAP
0C00
0C00
0C00
0C00
3C00
6C00
CD80
CD80
CD80
CD80
CD80
6D80
3F00
ENDCHAR
STARTCHAR uni0503
ENCODING 1283
SWIDTH 480 0
DWIDTH 10 0
BBX 9 13 0 0
BITMAP
0C00
0C00
0C00
0C00
0C00
2C00
7C00
CD80
CD80
CD80
CD80
7D80
3700
ENDCHAR
STARTCHAR uni0504
ENCODING 1284
SWIDTH 480 0
DWIDTH 10 0
BBX 9 13 0 0
BITMAP
7000
D800
CC00
0C00
0C00
1800
7180
1980
0D80
0D80
0D80
0D80
0700
ENDCHAR
STARTCHAR uni0505
ENCODING 1285
SWIDTH 480 0
DWIDTH 10 0
BBX 9 8 0 0
BITMAP
7800
CC00
0C00
3800
0D80
0D80
0D80
0700
ENDCHAR
STARTCHAR uni0506
ENCODING 1286
SWIDTH 480 0
DWIDTH 10 0
BBX 9 16 0 -3
BITMAP
3C00
6600
C300
C300
0300
0600
1C00
0600
0300
0300
0300
0300
0380
0180
0300
0600
ENDCHAR
STARTCHAR uni0507
ENCODING 1287
SWIDTH 480 0
DWIDTH 10 0
BBX 9 11 0 -3
BITMAP
7E00
C300
0300
3E00
0600
0300
0300
0380
0180
0300
0600
ENDCHAR
STARTCHAR uni0508
ENCODING 1288
SWIDTH 480 0
DWIDTH 10 0
BBX 9 13 0 0
BITMAP
7C00
6C00
6C00
6C00
6C00
6C00
6D80
6D80
6D80
6D80
6D80
EF80
C700
ENDCHAR
STARTCHAR uni0509
ENCODING 1289
SWIDTH 480 0
DWIDTH 10 0
BBX 9 8 0 0
BITMAP
7C00
6C00
6C00
6D80
6D80
6D80
6D80
C700
ENDCHAR
STARTCHAR uni050A
ENCODING 1290
SWIDTH 480 0
DWIDTH 10 0
BBX 8 13 1 0
BITMAP
D8
D8
D8
D8
D8
D8
FB
DB
DB
DB
DB
DB
CE
ENDCHAR
STARTCHAR uni050B
ENCODING 1291
SWIDTH 480 0
DWIDTH 10 0
BBX 8 8 1 0
BITMAP
D8
D8
D8
FB
DB
DB
DB
CE
ENDCHAR
STARTCHAR uni050C
ENCODING 1292
SWIDTH 480 0
DWIDTH 10 0
BBX 8 13 1 0
BITMAP
3C
66
C3
C0
C0
C0
CF
C3
C3
C3
C3
66
3C
ENDCHAR
STARTCHAR uni050D
ENCODING 1293
SWIDTH 480 0
DWIDTH 10 0
BBX 8 8 1 0
BITMAP
3C
66
C3
C0
CF
C3
66
3C
ENDCHAR
STARTCHAR uni050E
ENCODING 1294
SWIDTH 480 0
DWIDTH 10 0
BBX 8 13 1 0
BITMAP
FF
18
18
18
18
18
1B
1B
1B
1B
1B
1B
0E
ENDCHAR
STARTCHAR uni050F
ENCODING 1295
SWIDTH 480 0
DWIDTH 10 0
BBX 8 8 1 0
BITMAP
FF
18
18
1B
1B
1B
1B
0E
ENDCHAR
STARTCHAR uni0510
ENCODING 1296
SWIDTH 480 0
DWIDTH 10 0
BBX 8 13 1 0
BITMAP
3C
66
C3
C3
C0
60
38
60
C0
C3
C3
66
3C
ENDCHAR
STARTCHAR uni0511
ENCODING 1297
SWIDTH 480 0
DWIDTH 10 0
BBX 8 8 1 0
BITMAP
7E
C3
C0
7C
60
C0
C3
7E
ENDCHAR
STARTCHAR uni0512
ENCODING 1298
SWIDTH 480 0
DWIDTH 10 0
BBX 8 15 1 -2
BITMAP
1F
33
63
63
63
63
63
63
63
63
63
E3
C3
03
3E
ENDCHAR
STARTCHAR uni0513
ENCODING 1299
SWIDTH 480 0
DWIDTH 10 0
BBX 8 10 1 -2
BITMAP
1F
33
63
63
63
63
63
C3
03
3E
ENDCHAR
STARTCHAR uni0514
ENCODING 1300
SWIDTH 480 0
DWIDTH 10 0
BBX 9 13 0 0
BITMAP
FD80
6D80
6D80
6D80
6D80
6D80
6700
6D80
6D80
6D80
6D80
ED80
CD80
ENDCHAR
STARTCHAR uni0515
ENCODING 1301
SWIDTH 480 0
DWIDTH 10 0
BBX 9 8 0 0
BITMAP
FD80
6D80
6D80
6700
6700
6D80
ED80
CD80
ENDCHAR
STARTCHAR uni0516
ENCODING 1302
SWIDTH 480 0
DWIDTH 10 0
BBX 9 13 1 0
BITMAP
F180
D980
CD80
CD80
CD80
CF00
DE00
F300
C180
C180
C180
C180
C180
ENDCHAR
STARTCHAR uni0517
ENCODING 1303
SWIDTH 480 0
DWIDTH 10 0
BBX 9 12 1 -4
BITMAP
D980
ED80
CD80
CF00
CF00
CD80
ED80
D980
C000
C000
C000
C000
ENDCHAR
STARTCHAR uni0518
ENCODING 1304
SWIDTH 480 0
DWIDTH 10 0
BBX 8 13 1 0
BITMAP
3F
6C
CC
CC
CC
CC
6C
3F
6C
6C
CC
CC
CF
ENDCHAR
STARTCHAR uni0519
ENCODING 1305
SWIDTH 480 0
DWIDTH 10 0
BBX 8 8 1 0
BITMAP
7E
DB
DB
FF
78
D8
DB
CE
ENDCHAR
STARTCHAR uni051A
ENCODING 1306
SWIDTH 480 0
DWIDTH 10 0
BBX 8 14 1 -1
BITMAP
3C
66
C3
C3
C3
C3
C3
C3
C3
DB
CF
66
3E
03
ENDCHAR
STARTCHAR uni051B
ENCODING 1307
SWIDTH 480 0
DWIDTH 10 0
BBX 8 12 1 -4
BITMAP
3B
67
C3
C3
C3
C3
67
3B
03
03
03
03
ENDCHAR
STARTCHAR uni051C
ENCODING 1308
SWIDTH 480 0
DWIDTH 10 0
BBX 8 13 1 0
BITMAP
C3
C3
C3
C3
C3
DB
DB
DB
DB
E7
E7
C3
C3
ENDCHAR
STARTCHAR uni051D
ENCODING 1309
SWIDTH 480 0
DWIDTH 10 0
BBX 8 8 1 0
BITMAP
C3
C3
C3
DB
DB
DB
FF
66
ENDCHAR
STARTCHAR uni051E
ENCODING 1310
SWIDTH 480 0
DWIDTH 10 0
BBX 8 13 1 0
BITMAP
C3
CB
C6
C6
CD
CC
F8
CC
CC
C6
C6
C3
C3
ENDCHAR
STARTCHAR uni051F
ENCODING 1311
SWIDTH 480 0
DWIDTH 10 0
BBX 8 8 1 0
BITMAP
CB
C6
CE
F9
F8
CC
C6
C3
ENDCHAR
STARTCHAR uni0520
ENCODING 1312
SWIDTH 480 0
DWIDTH 10 0
BBX 9 15 0 -2
BITMAP
1C00
3C00
6C00
6C00
6C00
6C00
6F00
6D80
6D80
6D80
6D80
ED80
CD80
0180
1F00
ENDCHAR
STARTCHAR uni0521
ENCODING 1313
SWIDTH 480 0
DWIDTH 10 0
BBX 9 10 0 -2
BITMAP
1C00
3C00
6C00
6F00
6D80
6D80
6D80
CD80
0180
1F00
ENDCHAR
STARTCHAR uni0522
ENCODING 1314
SWIDTH 480 0
DWIDTH 10 0
BBX 8 15 1 -2
BITMAP
D8
D8
D8
D8
D8
D8
FE
DB
DB
DB
DB
DB
DB
03
3E
ENDCHAR
STARTCHAR uni0523
ENCODING 1315
SWIDTH 480 0
DWIDTH 10 0
BBX 8 10 1 -2
BITMAP
D8
D8
D8
FE
DB
DB
DB
DB
03
3E
ENDCHAR
STARTCHAR uni0531
ENCODING 1329
SWIDTH 480 0
DWIDTH 10 0
BBX 8 13 1 0
BITMAP
CC
CC
CC
CC
CC
CC
CC
CC
CC
CE
CF
CD
79
ENDCHAR
STARTCHAR uni0532
ENCODING 1330
SWIDTH 480 0
DWIDTH 10 0
BBX 8 13 1 0
BITMAP
7E
E7
C3
C0
C0
FC
C6
C0
C0
C0
C0
C0
C0
ENDCHAR
STARTCHAR uni0533
ENCODING 1331
SWIDTH 480 0
DWIDTH 10 0
BBX 8 13 1 0
BITMAP
38
6C
CC
CC
CC
6C
3E
0F
0D
0C
0C
0C
0C
ENDCHAR
STARTCHAR uni0534
ENCODING 1332
SWIDTH 480 0
DWIDTH 10 0
BBX 8 13 1 0
BITMAP
78
CC
CC
0C
0C
0E
0F
0D
0C
0C
0C
0C
0C
ENDCHAR
STARTCHAR uni0535
ENCODING 1333
SWIDTH 480 0
DWIDTH 10 0
BBX 8 13 1 0
BITMAP
C0
C0
C0
FC
C6
C2
C0
C0
C0
C0
C1
63
3E
ENDCHAR
STARTCHAR uni0536
ENCODING 1334
SWIDTH 480 0
DWIDTH 10 0
BBX 8 13 1 0
BITMAP
3C
66
C3
C3
C3
6F
3B
02
06
7C
CE
DB
71
ENDCHAR
STARTCHAR uni0537
ENCODING 1335
SWIDTH 480 0
DWIDTH 10 0
BBX 8 16 1 -3
BITMAP
C0
C0
C0
C0
C0
FC
C6
C6
C0
C0
C0
C0
7F
03
03
0E
ENDCHAR
STARTCHAR uni0538
ENCODING 1336
SWIDTH 480 0
DWIDTH 10 0
BBX 8 15 1 -2
BITMAP
7C
C6
C6
C6
C0
C0
C0
C0
C0
C0
C0
C0
7E
03
03
ENDCHAR
STARTCHAR uni0539
ENCODING 1337
SWIDTH 480 0
DWIDTH 10 0
BBX 9 13 0 0
BITMAP
7C00
C600
C600
C600
CF80
D600
D600
CC00
C000
C000
C000
C000
C000
ENDCHAR
STARTCHAR uni053A
ENCODING 1338
SWIDTH 480 0
DWIDTH 10 0
BBX 8 13 1 0
BITMAP
06
06
06
06
06
7F
FF
C6
C6
C6
C6
FE
7C
ENDCHAR
STARTCHAR uni053B
ENCODING 1339
SWIDTH 480 0
DWIDTH 10 0
BBX 8 13 1 0
BITMAP
C0
C0
C0
C0
C0
FE
C3
C3
C0
C0
C0
C0
C0
ENDCHAR
STARTCHAR uni053C
ENCODING 1340
SWIDTH 480 0
DWIDTH 10 0
BBX 8 15 1 -2
BITMAP
C0
C0
C0
C0
C0
C0
C0
C0
C0
C0
C0
C0
7E
03
06
ENDCHAR
STARTCHAR uni053D
ENCODING 1341
SWIDTH 480 0
DWIDTH 10 0
BBX 8 13 1 0
BITMAP
C0
C0
C0
C0
C0
FB
DB
DB
DB
CE
C0
C0
C0
ENDCHAR
STARTCHAR uni053E
ENCODING 1342
SWIDTH 480 0
DWIDTH 10 0
BBX 8 13 1 0
BITMAP
FF
18
18
3C
66
C3
C3
C3
C3
C3
C3
66
3C
ENDCHAR
STARTCHAR uni053F
ENCODING 1343
SWIDTH 480 0
DWIDTH 10 0
BBX 8 13 1 0
BITMAP
C0
C0
C0
C0
C3
C3
C3
C3
7F
03
03
03
03
ENDCHAR
STARTCHAR uni0540
ENCODING 1344
SWIDTH 480 0
DWIDTH 10 0
BBX 8 13 1 0
BITMAP
18
30
30
18
0C
18
30
60
C0
C0
70
1C
07
ENDCHAR
STARTCHAR uni0541
ENCODING 1345
SWIDTH 480 0
DWIDTH 10 0
BBX 8 13 1 0
BITMAP
7C
C6
C6
C6
C6
CE
76
06
06
7C
CC
CE
7B
ENDCHAR
STARTCHAR uni0542
ENCODING 1346
SWIDTH 480 0
DWIDTH 10 0
BBX 8 15 1 -2
BITMAP
78
CC
CC
CC
0C
0C
0C
0C
0C
0C
0C
0C
0C
06
03
ENDCHAR
STARTCHAR uni0543
ENCODING 1347
SWIDTH 480 0
DWIDTH 10 0
BBX 8 13 1 0
BITMAP
0C
06
03
C3
66
3C
66
66
66
C3
C3
C3
FF
ENDCHAR
STARTCHAR uni0544
ENCODING 1348
SWIDTH 480 0
DWIDTH 10 0
BBX 8 13 1 0
BITMAP
CF
CD
CD
CC
CC
CC
CC
CC
CC
CC
CC
CC
78
ENDCHAR
STARTCHAR uni0545
ENCODING 1349
SWIDTH 480 0
DWIDTH 10 0
BBX 8 13 1 0
BITMAP
7C
C6
03
03
03
32
3C
32
03
03
03
C6
7C
ENDCHAR
STARTCHAR uni0546
ENCODING 1350
SWIDTH 480 0
DWIDTH 10 0
BBX 8 13 1 0
BITMAP
70
F0
C0
C0
F0
30
30
30
30
30
33
33
1E
ENDCHAR
STARTCHAR uni0547
ENCODING 1351
SWIDTH 480 0
DWIDTH 10 0
BBX 8 13 1 0
BITMAP
03
FE
30
60
C3
C3
C3
C3
C3
C3
C3
66
3C
ENDCHAR
STARTCHAR uni0548
ENCODING 1352
SWIDTH 480 0
DWIDTH 10 0
BBX 8 13 1 0
BITMAP
3C
66
C3
C3
C3
C3
C3
C3
C3
C3
C3
C3
C3
ENDCHAR
STARTCHAR uni0549
ENCODING 1353
SWIDTH 480 0
DWIDTH 10 0
BBX 8 13 1 0
BITMAP
3E
63
63
63
63
63
63
3E
0C
08
18
30
FF
ENDCHAR
STARTCHAR uni054A
ENCODING 1354
SWIDTH 480 0
DWIDTH 10 0
BBX 8 13 1 0
BITMAP
7E
DB
DB
DB
DB
1B
1B
1B
03
03
03
03
03
ENDCHAR
STARTCHAR uni054B
ENCODING 1355
SWIDTH 480 0
DWIDTH 10 0
BBX 8 13 1 0
BITMAP
7C
C6
C3
C3
63
33
1B
0E
06
7C
CE
DB
71
ENDCHAR
STARTCHAR uni054C
ENCODING 1356
SWIDTH 480 0
DWIDTH 10 0
BBX 8 13 1 0
BITMAP
70
D8
D8
D8
D8
DF
DB
DB
D8
D8
D8
D8
D8
ENDCHAR
STARTCHAR uni054D
ENCODING 1357
SWIDTH 480 0
DWIDTH 10 0
BBX 8 13 1 0
BITMAP
C3
C3
C3
C3
C3
C3
C3
C3
C3
C3
C3
66
3C
ENDCHAR
STARTCHAR uni054E
ENCODING 1358
SWIDTH 480 0
DWIDTH 10 0
BBX 9 14 1 -1
BITMAP
CC00
CC00
CC00
CC00
CC00
CC00
CC00
CC00
CC00
7C00
0C00
0C00
0F00
0180
ENDCHAR
STARTCHAR uni054F
ENCODING 1359
SWIDTH 480 0
DWIDTH 10 0
BBX 8 13 1 0
BITMAP
3E
63
C0
C0
C0
60
3C
06
03
03
03
C6
7C
ENDCHAR
STARTCHAR uni0550
ENCODING 1360
SWIDTH 480 0
DWIDTH 10 0
BBX 8 13 1 0
BITMAP
7E
C3
C3
C3
C0
C0
C0
C0
C0
C0
C0
C0
C0
ENDCHAR
STARTCHAR uni0551
ENCODING 1361
SWIDTH 480 0
DWIDTH 10 0
BBX 8 13 1 0
BITMAP
3C
66
C3
C3
66
3C
66
C3
03
03
C3
66
3C
ENDCHAR
STARTCHAR uni0552
ENCODING 1362
SWIDTH 480 0
DWIDTH 10 0
BBX 9 13 1 0
BITMAP
C000
C000
C000
C000
DC00
E600
C600
C600
C380
C000
C000
C000
C000
ENDCHAR
STARTCHAR uni0553
ENCODING 1363
SWIDTH 480 0
DWIDTH 10 0
BBX 8 11 1 1
BITMAP
18
7E
DB
DB
DB
DB
DB
DB
DB
7E
18
ENDCHAR
STARTCHAR uni0554
ENCODING 1364
SWIDTH 480 0
DWIDTH 10 0
BBX 9 13 0 0
BITMAP
0F00
1980
1980
1980
1F00
1800
1800
D800
3C00
1B00
1800
1800
1800
ENDCHAR
STARTCHAR uni0555
ENCODING 1365
SWIDTH 480 0
DWIDTH 10 0
BBX 8 13 1 0
BITMAP
3C
66
C3
C3
C3
C3
C3
C3
C3
C3
C3
66
3C
ENDCHAR
STARTCHAR uni0556
ENCODING 1366
SWIDTH 480 0
DWIDTH 10 0
BBX 8 13 1 0
BITMAP
70
D8
D8
D8
D8
7E
1B
1B
1B
1B
DB
DB
7E
ENDCHAR
STARTCHAR uni0559
ENCODING 1369
SWIDTH 480 0
DWIDTH 10 0
BBX 3 4 1 9
BITMAP
60
C0
C0
60
ENDCHAR
STARTCHAR uni055A
ENCODING 1370
SWIDTH 480 0
DWIDTH 10 0
BBX 3 4 1 9
BITMAP
C0
60
60
C0
ENDCHAR
STARTCHAR uni055B
ENCODING 1371
SWIDTH 480 0
DWIDTH 10 0
BBX 2 3 3 10
BITMAP
40
C0
80
ENDCHAR
STARTCHAR uni055C
ENCODING 1372
SWIDTH 480 0
DWIDTH 10 0
BBX 6 4 1 9
BITMAP
04
7C
F8
80
ENDCHAR
STARTCHAR uni055D
ENCODING 1373
SWIDTH 480 0
DWIDTH 10 0
BBX 2 3 3 10
BITMAP
80
C0
40
ENDCHAR
STARTCHAR uni055E
ENCODING 1374
SWIDTH 480 0
DWIDTH 10 0
BBX 8 8 1 3
BITMAP
3C
66
C3
DB
DB
DB
DB
4E
ENDCHAR
STARTCHAR uni055F
ENCODING 1375
SWIDTH 480 0
DWIDTH 10 0
BBX 7 5 1 7
BITMAP
E0
C0
C6
C6
7C
ENDCHAR
STARTCHAR uni0561
ENCODING 1377
SWIDTH 480 0
DWIDTH 10 0
BBX 8 8 1 0
BITMAP
C3
C3
C3
DB
DB
DB
7F
27
ENDCHAR
STARTCHAR uni0562
ENCODING 1378
SWIDTH 480 0
DWIDTH 10 0
BBX 8 11 1 -3
BITMAP
DE
E3
C3
C3
C0
C0
C0
FF
C0
C0
C0
ENDCHAR
STARTCHAR uni0563
ENCODING 1379
SWIDTH 480 0
DWIDTH 10 0
BBX 10 12 0 -4
BITMAP
3B00
6700
C300
C300
C300
C300
6300
3FC0
0300
0300
0300
0300
ENDCHAR
STARTCHAR uni0564
ENCODING 1380
SWIDTH 480 0
DWIDTH 10 0
BBX 10 12 0 -4
BITMAP
DC00
E600
C300
C300
C300
C300
C300
C3C0
0300
0300
0300
0300
ENDCHAR
STARTCHAR uni0565
ENCODING 1381
SWIDTH 480 0
DWIDTH 10 0
BBX 9 11 0 0
BITMAP
6000
6000
6000
7F80
6000
6000
6180
6180
6180
5180
CF00
ENDCHAR
STARTCHAR uni0566
ENCODING 1382
SWIDTH 480 0
DWIDTH 10 0
BBX 10 12 0 -4
BITMAP
3B00
6700
C300
C300
C300
C300
6700
3B00
0300
0300
0300
03C0
ENDCHAR
STARTCHAR uni0567
ENCODING 1383
SWIDTH 480 0
DWIDTH 10 0
BBX 8 14 1 -3
BITMAP
C0
C0
C0
FE
C0
C0
C0
C0
C0
C0
7C
06
03
03
ENDCHAR
STARTCHAR uni0568
ENCODING 1384
SWIDTH 480 0
DWIDTH 10 0
BBX 8 12 1 -4
BITMAP
DC
E6
C3
C3
C3
C3
C3
C3
C0
C0
C0
FF
ENDCHAR
STARTCHAR uni0569
ENCODING 1385
SWIDTH 480 0
DWIDTH 10 0
BBX 9 12 1 -4
BITMAP
DC00
E600
C300
C300
CF80
D300
D200
CC00
C000
C000
C000
C000
ENDCHAR
STARTCHAR uni056A
ENCODING 1386
SWIDTH 480 0
DWIDTH 10 0
BBX 10 13 0 0
BITMAP
0300
0300
0300
0300
0300
3FC0
6300
C300
C300
C300
C300
6600
3C00
ENDCHAR
STARTCHAR uni056B
ENCODING 1387
SWIDTH 480 0
DWIDTH 10 0
BBX 8 17 1 -4
BITMAP
C0
C0
C0
C0
C0
DC
E6
C3
C3
C3
C3
C3
C3
C0
C0
C0
C0
ENDCHAR
STARTCHAR uni056C
ENCODING 1388
SWIDTH 480 0
DWIDTH 10 0
BBX 7 12 2 -4
BITMAP
F0
30
30
30
30
30
30
30
30
30
18
0E
ENDCHAR
STARTCHAR uni056D
ENCODING 1389
SWIDTH 480 0
DWIDTH 10 0
BBX 9 16 0 -3
BITMAP
C000
C000
C000
C000
C000
D980
ED80
CD80
CD80
CD80
CD80
CD80
C700
C000
C000
C000
ENDCHAR
STARTCHAR uni056E
ENCODING 1390
SWIDTH 480 0
DWIDTH 10 0
BBX 8 12 1 0
BITMAP
60
30
18
0C
3F
66
C6
C6
C6
C6
6C
38
ENDCHAR
STARTCHAR uni056F
ENCODING 1391
SWIDTH 480 0
DWIDTH 10 0
BBX 8 17 1 -4
BITMAP
C0
C0
C0
C0
C0
C3
C3
C3
C3
C3
C3
63
3F
03
03
03
03
ENDCHAR
STARTCHAR uni0570
ENCODING 1392
SWIDTH 480 0
DWIDTH 10 0
BBX 8 13 1 0
BITMAP
C0
C0
C0
C0
C0
DE
E3
C3
C3
C3
C3
C3
C3
ENDCHAR
STARTCHAR uni0571
ENCODING 1393
SWIDTH 480 0
DWIDTH 10 0
BBX 8 12 1 0
BITMAP
0C
18
0C
00
3F
63
C3
C3
C3
C3
63
3F
ENDCHAR
STARTCHAR uni0572
ENCODING 1394
SWIDTH 480 0
DWIDTH 10 0
BBX 10 12 0 -4
BITMAP
DC00
E600
C300
C300
C300
C300
C300
C300
0300
0300
0300
03C0
ENDCHAR
STARTCHAR uni0573
ENCODING 1395
SWIDTH 480 0
DWIDTH 10 0
BBX 8 13 1 0
BITMAP
1E
33
60
60
60
FF
63
63
63
63
63
37
1B
ENDCHAR
STARTCHAR uni0574
ENCODING 1396
SWIDTH 480 0
DWIDTH 10 0
BBX 8 12 1 0
BITMAP
03
06
06
06
C6
C6
C6
C6
C6
C6
CE
76
ENDCHAR
STARTCHAR uni0575
ENCODING 1397
SWIDTH 480 0
DWIDTH 10 0
BBX 7 11 1 -3
BITMAP
1E
06
06
06
06
06
06
06
06
C6
7C
ENDCHAR
STARTCHAR uni0576
ENCODING 1398
SWIDTH 480 0
DWIDTH 10 0
BBX 8 13 1 0
BITMAP
3C
66
C0
C0
C0
C3
C3
C3
C3
C3
C3
67
3D
ENDCHAR
STARTCHAR uni0577
ENCODING 1399
SWIDTH 480 0
DWIDTH 10 0
BBX 8 12 1 -4
BITMAP
7C
C6
C3
C3
03
06
0C
18
30
60
C0
FF
ENDCHAR
STARTCHAR uni0578
ENCODING 1400
SWIDTH 480 0
DWIDTH 10 0
BBX 8 8 1 0
BITMAP
DC
E6
C3
C3
C3
C3
C3
C3
ENDCHAR
STARTCHAR uni0579
ENCODING 1401
SWIDTH 480 0
DWIDTH 10 0
BBX 6 10 2 -2
BITMAP
30
60
60
30
18
30
60
C0
C0
7C
ENDCHAR
STARTCHAR uni057A
ENCODING 1402
SWIDTH 480 0
DWIDTH 10 0
BBX 8 12 1 -4
BITMAP
C3
C3
C3
DB
DB
DB
7F
27
03
03
03
03
ENDCHAR
STARTCHAR uni057B
ENCODING 1403
SWIDTH 480 0
DWIDTH 10 0
BBX 8 12 1 -4
BITMAP
3C
66
C3
C3
C3
63
36
0C
18
30
30
3F
ENDCHAR
STARTCHAR uni057C
ENCODING 1404
SWIDTH 480 0
DWIDTH 10 0
BBX 10 8 0 0
BITMAP
DC00
E600
C300
C300
C300
C300
C300
C1C0
ENDCHAR
STARTCHAR uni057D
ENCODING 1405
SWIDTH 480 0
DWIDTH 10 0
BBX 8 8 1 0
BITMAP
C3
C3
C3
C3
C3
C3
67
3B
ENDCHAR
STARTCHAR uni057E
ENCODING 1406
SWIDTH 480 0
DWIDTH 10 0
BBX 9 17 1 -4
BITMAP
0600
0600
0600
0600
0600
C600
C600
C600
C600
C600
C600
CE00
7600
0600
0600
0600
0780
ENDCHAR
STARTCHAR uni057F
ENCODING 1407
SWIDTH 480 0
DWIDTH 10 0
BBX 10 8 0 0
BITMAP
CD80
CEC0
CCC0
CCC0
CCC0
CCC0
DCC0
6CC0
ENDCHAR
STARTCHAR uni0580
ENCODING 1408
SWIDTH 480 0
DWIDTH 10 0
BBX 8 12 1 -4
BITMAP
DC
E6
C3
C3
C3
C3
C3
C3
C0
C0
C0
C0
ENDCHAR
STARTCHAR uni0581
ENCODING 1409
SWIDTH 480 0
DWIDTH 10 0
BBX 8 12 1 -4
BITMAP
3E
63
C3
C3
C3
C3
63
3F
03
03
C3
7E
ENDCHAR
STARTCHAR uni0582
ENCODING 1410
SWIDTH 480 0
DWIDTH 10 0
BBX 7 8 1 0
BITMAP
F0
30
30
30
30
30
18
0E
ENDCHAR
STARTCHAR uni0583
ENCODING 1411
SWIDTH 480 0
DWIDTH 10 0
BBX 10 17 0 -4
BITMAP
0C00
0C00
0C00
0C00
0C00
0C00
0D80
CEC0
CCC0
CCC0
CCC0
DCC0
6CC0
0C00
0C00
0C00
0C00
ENDCHAR
STARTCHAR uni0584
ENCODING 1412
SWIDTH 480 0
DWIDTH 10 0
BBX 8 13 1 0
BITMAP
0F
19
19
18
18
FF
18
18
18
18
18
18
18
ENDCHAR
STARTCHAR uni0585
ENCODING 1413
SWIDTH 480 0
DWIDTH 10 0
BBX 8 8 1 0
BITMAP
3C
66
C3
C3
C3
C3
66
3C
ENDCHAR
STARTCHAR uni0586
ENCODING 1414
SWIDTH 480 0
DWIDTH 10 0
BBX 8 17 1 -4
BITMAP
78
D8
D8
D8
D8
7F
1B
1B
1B
DB
DB
DB
7E
18
18
18
18
ENDCHAR
STARTCHAR uni0587
ENCODING 1415
SWIDTH 480 0
DWIDTH 10 0
BBX 9 13 1 0
BITMAP
C000
C000
C000
C000
C000
C600
C600
C600
C600
C600
C600
6600
3980
ENDCHAR
STARTCHAR uni0589
ENCODING 1417
SWIDTH 480 0
DWIDTH 10 0
BBX 3 7 3 3
BITMAP
40
E0
40
00
40
E0
40
ENDCHAR
STARTCHAR uni058A
ENCODING 1418
SWIDTH 480 0
DWIDTH 10 0
BBX 6 2 2 6
BITMAP
C0
3C
ENDCHAR
STARTCHAR afii57799
ENCODING 1456
SWIDTH 480 0
DWIDTH 10 0
BBX 2 3 4 -4
BITMAP
C0
00
C0
ENDCHAR
STARTCHAR afii57801
ENCODING 1457
SWIDTH 480 0
DWIDTH 10 0
BBX 8 3 1 -4
BITMAP
DB
00
63
ENDCHAR
STARTCHAR afii57800
ENCODING 1458
SWIDTH 480 0
DWIDTH 10 0
BBX 8 3 1 -4
BITMAP
03
F8
03
ENDCHAR
STARTCHAR afii57802
ENCODING 1459
SWIDTH 480 0
DWIDTH 10 0
BBX 9 3 0 -4
BITMAP
FD80
3000
3180
ENDCHAR
STARTCHAR afii57793
ENCODING 1460
SWIDTH 480 0
DWIDTH 10 0
BBX 2 2 3 -3
BITMAP
C0
C0
ENDCHAR
STARTCHAR afii57794
ENCODING 1461
SWIDTH 480 0
DWIDTH 10 0
BBX 5 2 2 -3
BITMAP
D8
D8
ENDCHAR
STARTCHAR afii57795
ENCODING 1462
SWIDTH 480 0
DWIDTH 10 0
BBX 6 3 1 -4
BITMAP
CC
00
30
ENDCHAR
STARTCHAR afii57798
ENCODING 1463
SWIDTH 480 0
DWIDTH 10 0
BBX 6 1 1 -2
BITMAP
FC
ENDCHAR
STARTCHAR afii57797
ENCODING 1464
SWIDTH 480 0
DWIDTH 10 0
BBX 6 3 1 -4
BITMAP
FC
30
30
ENDCHAR
STARTCHAR afii57806
ENCODING 1465
SWIDTH 480 0
DWIDTH 10 0
BBX 2 2 1 13
BITMAP
C0
C0
ENDCHAR
STARTCHAR uni05BA
ENCODING 1466
SWIDTH 480 0
DWIDTH 10 0
BBX 3 3 1 12
BITMAP
E0
E0
E0
ENDCHAR
STARTCHAR afii57796
ENCODING 1467
SWIDTH 480 0
DWIDTH 10 0
BBX 8 4 0 -4
BITMAP
C0
D8
1B
03
ENDCHAR
STARTCHAR afii57807
ENCODING 1468
SWIDTH 480 0
DWIDTH 10 0
BBX 2 2 4 4
BITMAP
C0
C0
ENDCHAR
STARTCHAR afii57839
ENCODING 1469
SWIDTH 480 0
DWIDTH 10 0
BBX 1 3 4 -4
BITMAP
80
80
80
ENDCHAR
STARTCHAR afii57645
ENCODING 1470
SWIDTH 480 0
DWIDTH 10 0
BBX 9 2 0 7
BITMAP
7F80
FF00
ENDCHAR
STARTCHAR afii57841
ENCODING 1471
SWIDTH 480 0
DWIDTH 10 0
BBX 7 1 1 11
BITMAP
FE
ENDCHAR
STARTCHAR afii57842
ENCODING 1472
SWIDTH 480 0
DWIDTH 10 0
BBX 2 10 2 0
BITMAP
C0
C0
C0
C0
C0
C0
C0
C0
C0
C0
ENDCHAR
STARTCHAR afii57804
ENCODING 1473
SWIDTH 480 0
DWIDTH 10 0
BBX 2 2 7 11
BITMAP
C0
C0
ENDCHAR
STARTCHAR afii57803
ENCODING 1474
SWIDTH 480 0
DWIDTH 10 0
BBX 2 2 0 11
BITMAP
C0
C0
ENDCHAR
STARTCHAR afii57658
ENCODING 1475
SWIDTH 480 0
DWIDTH 10 0
BBX 3 7 2 0
BITMAP
40
E0
40
00
40
E0
40
ENDCHAR
STARTCHAR uni05C4
ENCODING 1476
SWIDTH 480 0
DWIDTH 10 0
BBX 2 2 4 11
BITMAP
C0
C0
ENDCHAR
STARTCHAR uni05C5
ENCODING 1477
SWIDTH 480 0
DWIDTH 10 0
BBX 3 3 2 -4
BITMAP
E0
E0
E0
ENDCHAR
STARTCHAR uni05C6
ENCODING 1478
SWIDTH 480 0
DWIDTH 10 0
BBX 6 10 1 0
BITMAP
3C
7C
60
60
60
60
60
60
FC
FC
ENDCHAR
STARTCHAR uni05C7
ENCODING 1479
SWIDTH 480 0
DWIDTH 10 0
BBX 6 4 1 -4
BITMAP
FC
30
30
30
ENDCHAR
STARTCHAR afii57664
ENCODING 1488
SWIDTH 480 0
DWIDTH 10 0
BBX 9 10 0 0
BITMAP
C380
C380
6380
3600
7C00
EC00
C600
C300
6180
E180
ENDCHAR
STARTCHAR afii57665
ENCODING 1489
SWIDTH 480 0
DWIDTH 10 0
BBX 9 10 0 0
BITMAP
FE00
FF00
0300
0300
0300
0300
0300
0300
FF80
FF80
ENDCHAR
STARTCHAR afii57666
ENCODING 1490
SWIDTH 480 0
DWIDTH 10 0
BBX 6 10 1 0
BITMAP
F0
F8
18
18
18
18
18
18
FC
CC
ENDCHAR
STARTCHAR afii57667
ENCODING 1491
SWIDTH 480 0
DWIDTH 10 0
BBX 9 10 0 0
BITMAP
FF80
FF80
0300
0300
0300
0300
0300
0300
0300
0300
ENDCHAR
STARTCHAR afii57668
ENCODING 1492
SWIDTH 480 0
DWIDTH 10 0
BBX 9 10 0 0
BITMAP
FF00
FF80
0180
0180
0180
6180
6180
6180
6180
6180
ENDCHAR
STARTCHAR afii57669
ENCODING 1493
SWIDTH 480 0
DWIDTH 10 0
BBX 4 10 2 0
BITMAP
E0
F0
30
30
30
30
30
30
30
30
ENDCHAR
STARTCHAR afii57670
ENCODING 1494
SWIDTH 480 0
DWIDTH 10 0
BBX 6 10 2 0
BITMAP
E0
F8
3C
3C
30
30
30
30
30
30
ENDCHAR
STARTCHAR afii57671
ENCODING 1495
SWIDTH 480 0
DWIDTH 10 0
BBX 9 10 0 0
BITMAP
FF00
FF80
6180
6180
6180
6180
6180
6180
6180
6180
ENDCHAR
STARTCHAR afii57672
ENCODING 1496
SWIDTH 480 0
DWIDTH 10 0
BBX 9 10 0 0
BITMAP
C300
E380
7180
7180
6180
6180
6180
6380
7F00
7E00
ENDCHAR
STARTCHAR afii57673
ENCODING 1497
SWIDTH 480 0
DWIDTH 10 0
BBX 4 6 2 4
BITMAP
E0
F0
30
30
30
30
ENDCHAR
STARTCHAR afii57674
ENCODING 1498
SWIDTH 480 0
DWIDTH 10 0
BBX 8 13 0 -3
BITMAP
FF
FF
06
06
06
06
06
06
06
06
06
06
06
ENDCHAR
STARTCHAR afii57675
ENCODING 1499
SWIDTH 480 0
DWIDTH 10 0
BBX 9 10 0 0
BITMAP
FF00
FF80
0180
0180
0180
0180
0180
0180
FF80
FF00
ENDCHAR
STARTCHAR afii57676
ENCODING 1500
SWIDTH 480 0
DWIDTH 10 0
BBX 9 14 0 0
BITMAP
C000
C000
C000
C000
FF00
FF80
0180
0180
0180
0180
0100
0300
0600
0C00
ENDCHAR
STARTCHAR afii57677
ENCODING 1501
SWIDTH 480 0
DWIDTH 10 0
BBX 9 10 0 0
BITMAP
FF00
FF80
4180
C180
C180
C180
C180
C180
FF80
FF80
ENDCHAR
STARTCHAR afii57678
ENCODING 1502
SWIDTH 480 0
DWIDTH 10 0
BBX 9 10 0 0
BITMAP
DF00
DF80
7F80
6180
C180
C180
C180
C180
CF80
DF00
ENDCHAR
STARTCHAR afii57679
ENCODING 1503
SWIDTH 480 0
DWIDTH 10 0
BBX 4 13 2 -3
BITMAP
E0
F0
30
30
30
30
30
30
30
30
30
30
30
ENDCHAR
STARTCHAR afii57680
ENCODING 1504
SWIDTH 480 0
DWIDTH 10 0
BBX 4 10 2 0
BITMAP
E0
F0
30
30
30
30
30
30
F0
E0
ENDCHAR
STARTCHAR afii57681
ENCODING 1505
SWIDTH 480 0
DWIDTH 10 0
BBX 9 10 0 0
BITMAP
FF00
FF80
6180
6180
6180
6180
6180
6180
7F00
3E00
ENDCHAR
STARTCHAR afii57682
ENCODING 1506
SWIDTH 480 0
DWIDTH 10 0
BBX 9 10 0 0
BITMAP
E700
E780
C180
C180
6180
3180
1980
0D80
7F80
7F00
ENDCHAR
STARTCHAR afii57683
ENCODING 1507
SWIDTH 480 0
DWIDTH 10 0
BBX 8 13 0 -3
BITMAP
FF
FF
C3
C3
E3
E3
03
03
03
03
03
03
03
ENDCHAR
STARTCHAR afii57684
ENCODING 1508
SWIDTH 480 0
DWIDTH 10 0
BBX 9 10 0 0
BITMAP
FF00
FF80
6180
6180
7180
7180
0180
0180
FF80
FF00
ENDCHAR
STARTCHAR afii57685
ENCODING 1509
SWIDTH 480 0
DWIDTH 10 0
BBX 9 13 0 -3
BITMAP
E380
E380
6300
6600
6C00
7800
7000
6000
6000
6000
6000
6000
6000
ENDCHAR
STARTCHAR afii57686
ENCODING 1510
SWIDTH 480 0
DWIDTH 10 0
BBX 9 10 0 0
BITMAP
E380
E380
7180
3300
1E00
0C00
0600
0300
FF80
FF80
ENDCHAR
STARTCHAR afii57687
ENCODING 1511
SWIDTH 480 0
DWIDTH 10 0
BBX 9 13 0 -3
BITMAP
FF00
FF80
6180
6180
6180
6180
6300
6600
6C00
6800
6000
6000
6000
ENDCHAR
STARTCHAR afii57688
ENCODING 1512
SWIDTH 480 0
DWIDTH 10 0
BBX 9 10 0 0
BITMAP
FF00
FF80
0180
0180
0180
0180
0180
0180
0180
0180
ENDCHAR
STARTCHAR afii57689
ENCODING 1513
SWIDTH 480 0
DWIDTH 10 0
BBX 9 10 0 0
BITMAP
CD80
CD80
CD80
CD80
CD80
DD80
F980
E180
FF00
FE00
ENDCHAR
STARTCHAR afii57690
ENCODING 1514
SWIDTH 480 0
DWIDTH 10 0
BBX 9 10 0 0
BITMAP
FF00
FF80
6180
6180
6180
6180
6180
6180
E180
E180
ENDCHAR
STARTCHAR afii57716
ENCODING 1520
SWIDTH 480 0
DWIDTH 10 0
BBX 9 10 0 0
BITMAP
E700
F780
3180
3180
3180
3180
3180
3180
3180
3180
ENDCHAR
STARTCHAR afii57717
ENCODING 1521
SWIDTH 480 0
DWIDTH 10 0
BBX 9 10 0 0
BITMAP
E700
F780
3180
3180
3180
3180
0180
0180
0180
0180
ENDCHAR
STARTCHAR afii57718
ENCODING 1522
SWIDTH 480 0
DWIDTH 10 0
BBX 9 6 0 4
BITMAP
E700
F780
3180
3180
3180
3180
ENDCHAR
STARTCHAR uni05F3
ENCODING 1523
SWIDTH 480 0
DWIDTH 10 0
BBX 3 2 4 10
BITMAP
60
C0
ENDCHAR
STARTCHAR uni05F4
ENCODING 1524
SWIDTH 480 0
DWIDTH 10 0
BBX 7 2 2 10
BITMAP
66
CC
ENDCHAR
STARTCHAR uni0600
ENCODING 1536
SWIDTH 480 0
DWIDTH 10 0
BBX 10 5 0 -2
BITMAP
0040
0080
0080
FFC0
FFC0
ENDCHAR
STARTCHAR uni0601
ENCODING 1537
SWIDTH 480 0
DWIDTH 10 0
BBX 10 3 0 -2
BITMAP
4840
A880
9700
ENDCHAR
STARTCHAR uni0602
ENCODING 1538
SWIDTH 480 0
DWIDTH 10 0
BBX 10 4 0 -2
BITMAP
6000
E000
FFC0
7F80
ENDCHAR
STARTCHAR uni0603
ENCODING 1539
SWIDTH 480 0
DWIDTH 10 0
BBX 10 3 0 -2
BITMAP
01C0
8640
7B80
ENDCHAR
STARTCHAR afii57388
ENCODING 1548
SWIDTH 480 0
DWIDTH 10 0
BBX 3 7 3 2
BITMAP
20
60
C0
C0
E0
E0
40
ENDCHAR
STARTCHAR uni060D
ENCODING 1549
SWIDTH 480 0
DWIDTH 10 0
BBX 5 5 3 0
BITMAP
18
38
78
C0
80
ENDCHAR
STARTCHAR uni060E
ENCODING 1550
SWIDTH 480 0
DWIDTH 10 0
BBX 10 5 0 -2
BITMAP
6000
9040
D0C0
7F80
3E00
ENDCHAR
STARTCHAR uni060F
ENCODING 1551
SWIDTH 480 0
DWIDTH 10 0
BBX 9 12 1 -3
BITMAP
1C00
3C00
3000
3600
1C00
3800
7000
6F00
7D80
7180
FF00
DE00
ENDCHAR
STARTCHAR uni0610
ENCODING 1552
SWIDTH 480 0
DWIDTH 10 0
BBX 7 5 0 11
BITMAP
0C
52
7E
40
80
ENDCHAR
STARTCHAR uni0611
ENCODING 1553
SWIDTH 480 0
DWIDTH 10 0
BBX 6 5 0 11
BITMAP
0C
50
70
5C
80
ENDCHAR
STARTCHAR uni0612
ENCODING 1554
SWIDTH 480 0
DWIDTH 10 0
BBX 7 5 0 11
BITMAP
F8
22
42
42
1C
ENDCHAR
STARTCHAR uni0613
ENCODING 1555
SWIDTH 480 0
DWIDTH 10 0
BBX 8 6 0 10
BITMAP
10
18
A5
FD
81
0E
ENDCHAR
STARTCHAR uni0614
ENCODING 1556
SWIDTH 480 0
DWIDTH 10 0
BBX 9 3 0 12
BITMAP
0080
0480
FB00
ENDCHAR
STARTCHAR uni0615
ENCODING 1557
SWIDTH 480 0
DWIDTH 10 0
BBX 5 5 0 11
BITMAP
40
40
58
68
F0
ENDCHAR
STARTCHAR afii57403
ENCODING 1563
SWIDTH 480 0
DWIDTH 10 0
BBX 3 11 4 1
BITMAP
20
60
C0
C0
E0
E0
40
00
40
E0
40
ENDCHAR
STARTCHAR afii57407
ENCODING 1567
SWIDTH 480 0
DWIDTH 10 0
BBX 7 13 1 0
BITMAP
3C
66
C2
C0
C0
60
30
18
18
18
00
18
18
ENDCHAR
STARTCHAR afii57409
ENCODING 1569
SWIDTH 480 0
DWIDTH 10 0
BBX 6 6 2 2
BITMAP
38
78
60
7C
FC
E0
ENDCHAR
STARTCHAR afii57410
ENCODING 1570
SWIDTH 480 0
DWIDTH 10 0
BBX 8 13 1 2
BITMAP
63
FF
DE
00
18
18
18
18
18
18
18
18
18
ENDCHAR
STARTCHAR afii57411
ENCODING 1571
SWIDTH 480 0
DWIDTH 10 0
BBX 4 12 3 2
BITMAP
70
C0
70
C0
20
60
60
60
60
60
60
60
ENDCHAR
STARTCHAR afii57412
ENCODING 1572
SWIDTH 480 0
DWIDTH 10 0
BBX 8 16 1 -4
BITMAP
1C
30
1C
30
00
1C
3E
33
3F
1F
03
07
0E
3C
F8
E0
ENDCHAR
STARTCHAR afii57413
ENCODING 1573
SWIDTH 480 0
DWIDTH 10 0
BBX 4 16 3 -3
BITMAP
60
60
60
60
60
60
60
60
60
60
60
00
70
C0
70
C0
ENDCHAR
STARTCHAR afii57414
ENCODING 1574
SWIDTH 480 0
DWIDTH 10 0
BBX 10 12 0 -1
BITMAP
3800
6000
3800
61C0
03C0
0600
C780
C3C0
C0C0
E0C0
7F80
3F00
ENDCHAR
STARTCHAR afii57415
ENCODING 1575
SWIDTH 480 0
DWIDTH 10 0
BBX 2 11 4 2
BITMAP
C0
C0
C0
C0
C0
C0
C0
C0
C0
C0
C0
ENDCHAR
STARTCHAR afii57416
ENCODING 1576
SWIDTH 480 0
DWIDTH 10 0
BBX 9 7 0 -1
BITMAP
C180
C180
FF80
7F00
0000
0C00
0C00
ENDCHAR
STARTCHAR afii57417
ENCODING 1577
SWIDTH 480 0
DWIDTH 10 0
BBX 6 10 2 2
BITMAP
D8
D8
00
70
F8
DC
CC
CC
FC
78
ENDCHAR
STARTCHAR afii57418
ENCODING 1578
SWIDTH 480 0
DWIDTH 10 0
BBX 9 7 0 2
BITMAP
3600
3600
0000
C180
C180
FF80
7F00
ENDCHAR
STARTCHAR afii57419
ENCODING 1579
SWIDTH 480 0
DWIDTH 10 0
BBX 9 10 0 2
BITMAP
1800
1800
0000
3600
3600
0000
C180
C180
FF80
7F00
ENDCHAR
STARTCHAR afii57420
ENCODING 1580
SWIDTH 480 0
DWIDTH 10 0
BBX 9 12 0 -4
BITMAP
3800
7F80
4F80
1800
3000
6000
C600
C600
C000
E000
7F80
3F80
ENDCHAR
STARTCHAR afii57421
ENCODING 1581
SWIDTH 480 0
DWIDTH 10 0
BBX 9 12 0 -4
BITMAP
3800
7F80
4F80
1800
3000
6000
C000
C000
C000
E000
7F80
3F80
ENDCHAR
STARTCHAR afii57422
ENCODING 1582
SWIDTH 480 0
DWIDTH 10 0
BBX 9 15 0 -4
BITMAP
0C00
0C00
0000
3800
7F80
4F80
1800
3000
6000
C000
C000
C000
E000
7F80
3F80
ENDCHAR
STARTCHAR afii57423
ENCODING 1583
SWIDTH 480 0
DWIDTH 10 0
BBX 6 7 2 2
BITMAP
30
38
1C
0C
0C
FC
F8
ENDCHAR
STARTCHAR afii57424
ENCODING 1584
SWIDTH 480 0
DWIDTH 10 0
BBX 6 10 2 2
BITMAP
30
30
00
30
38
1C
0C
0C
FC
F8
ENDCHAR
STARTCHAR afii57425
ENCODING 1585
SWIDTH 480 0
DWIDTH 10 0
BBX 8 9 0 -3
BITMAP
06
07
03
03
07
0E
3C
F8
E0
ENDCHAR
STARTCHAR afii57426
ENCODING 1586
SWIDTH 480 0
DWIDTH 10 0
BBX 8 12 0 -3
BITMAP
06
06
00
06
07
03
03
07
0E
3C
F8
E0
ENDCHAR
STARTCHAR afii57427
ENCODING 1587
SWIDTH 480 0
DWIDTH 10 0
BBX 10 8 0 -2
BITMAP
0940
0D40
8FC0
8780
8400
CC00
FC00
7800
ENDCHAR
STARTCHAR afii57428
ENCODING 1588
SWIDTH 480 0
DWIDTH 10 0
BBX 10 14 0 -2
BITMAP
0300
0300
0000
06C0
06C0
0000
0940
0D40
8FC0
8780
8600
CC00
FC00
7800
ENDCHAR
STARTCHAR afii57429
ENCODING 1589
SWIDTH 480 0
DWIDTH 10 0
BBX 10 9 0 -2
BITMAP
0180
0BC0
0E40
8FC0
8780
8400
CC00
FC00
7800
ENDCHAR
STARTCHAR afii57430
ENCODING 1590
SWIDTH 480 0
DWIDTH 10 0
BBX 10 12 0 -2
BITMAP
0180
0180
0000
0180
0BC0
0E40
8FC0
8780
8400
CC00
FC00
7800
ENDCHAR
STARTCHAR afii57431
ENCODING 1591
SWIDTH 480 0
DWIDTH 10 0
BBX 10 11 0 2
BITMAP
3000
3000
3000
3000
3000
3380
37C0
3CC0
38C0
FFC0
7F80
ENDCHAR
STARTCHAR afii57432
ENCODING 1592
SWIDTH 480 0
DWIDTH 10 0
BBX 10 11 0 2
BITMAP
3000
3000
3300
3300
3000
3380
37C0
3CC0
38C0
FFC0
7F80
ENDCHAR
STARTCHAR afii57433
ENCODING 1593
SWIDTH 480 0
DWIDTH 10 0
BBX 8 12 1 -4
BITMAP
38
78
60
6C
38
70
E0
C0
C0
E0
7F
3E
ENDCHAR
STARTCHAR afii57434
ENCODING 1594
SWIDTH 480 0
DWIDTH 10 0
BBX 8 15 1 -4
BITMAP
30
30
00
38
78
60
6C
38
70
E0
C0
C0
E0
7F
3E
ENDCHAR
STARTCHAR afii57440
ENCODING 1600
SWIDTH 480 0
DWIDTH 10 0
BBX 10 2 0 2
BITMAP
FFC0
FFC0
ENDCHAR
STARTCHAR afii57441
ENCODING 1601
SWIDTH 480 0
DWIDTH 10 0
BBX 9 10 0 2
BITMAP
0600
0600
0000
0700
0D80
4D80
C780
C180
FF80
7F00
ENDCHAR
STARTCHAR afii57442
ENCODING 1602
SWIDTH 480 0
DWIDTH 10 0
BBX 9 13 0 -2
BITMAP
1B00
1B00
0000
0600
0F00
0980
C980
CF80
C780
C180
E300
7E00
3C00
ENDCHAR
STARTCHAR afii57443
ENCODING 1603
SWIDTH 480 0
DWIDTH 10 0
BBX 8 10 1 2
BITMAP
03
13
33
63
33
63
03
C3
FF
7E
ENDCHAR
STARTCHAR afii57444
ENCODING 1604
SWIDTH 480 0
DWIDTH 10 0
BBX 8 14 1 -1
BITMAP
03
03
03
03
03
03
03
03
C3
C3
C3
E7
7E
3C
ENDCHAR
STARTCHAR afii57445
ENCODING 1605
SWIDTH 480 0
DWIDTH 10 0
BBX 7 11 1 -4
BITMAP
1C
3E
22
7E
FE
C0
C0
C0
C0
C0
C0
ENDCHAR
STARTCHAR afii57446
ENCODING 1606
SWIDTH 480 0
DWIDTH 10 0
BBX 9 9 0 -2
BITMAP
1800
1980
C180
C180
C180
C180
E380
7F00
3E00
ENDCHAR
STARTCHAR afii57470
ENCODING 1607
SWIDTH 480 0
DWIDTH 10 0
BBX 6 7 2 1
BITMAP
70
F8
DC
CC
CC
FC
78
ENDCHAR
STARTCHAR afii57448
ENCODING 1608
SWIDTH 480 0
DWIDTH 10 0
BBX 8 11 0 -4
BITMAP
1C
3E
33
3F
1F
03
07
0E
3C
F8
E0
ENDCHAR
STARTCHAR afii57449
ENCODING 1609
SWIDTH 480 0
DWIDTH 10 0
BBX 10 9 0 -1
BITMAP
01C0
03C0
0600
C780
C3C0
C0C0
E0C0
7F80
3F00
ENDCHAR
STARTCHAR afii57450
ENCODING 1610
SWIDTH 480 0
DWIDTH 10 0
BBX 10 12 0 -4
BITMAP
01C0
03C0
0600
C780
C3C0
C0C0
E0C0
7F80
3F00
0000
1B00
1B00
ENDCHAR
STARTCHAR afii57451
ENCODING 1611
SWIDTH 480 0
DWIDTH 10 0
BBX 5 5 0 11
BITMAP
30
60
D8
30
60
ENDCHAR
STARTCHAR afii57452
ENCODING 1612
SWIDTH 480 0
DWIDTH 10 0
BBX 6 6 0 8
BITMAP
0C
54
DC
5C
70
60
ENDCHAR
STARTCHAR afii57453
ENCODING 1613
SWIDTH 480 0
DWIDTH 10 0
BBX 4 5 0 -4
BITMAP
60
C0
B0
60
C0
ENDCHAR
STARTCHAR afii57454
ENCODING 1614
SWIDTH 480 0
DWIDTH 10 0
BBX 4 3 0 13
BITMAP
30
60
C0
ENDCHAR
STARTCHAR afii57455
ENCODING 1615
SWIDTH 480 0
DWIDTH 10 0
BBX 4 5 0 11
BITMAP
70
50
70
20
C0
ENDCHAR
STARTCHAR afii57456
ENCODING 1616
SWIDTH 480 0
DWIDTH 10 0
BBX 3 3 0 -4
BITMAP
60
C0
80
ENDCHAR
STARTCHAR afii57457
ENCODING 1617
SWIDTH 480 0
DWIDTH 10 0
BBX 5 3 0 10
BITMAP
A8
A8
70
ENDCHAR
STARTCHAR afii57458
ENCODING 1618
SWIDTH 480 0
DWIDTH 10 0
BBX 4 3 0 11
BITMAP
60
90
60
ENDCHAR
STARTCHAR uni0653
ENCODING 1619
SWIDTH 480 0
DWIDTH 10 0
BBX 8 3 1 12
BITMAP
63
FF
DE
ENDCHAR
STARTCHAR uni0654
ENCODING 1620
SWIDTH 480 0
DWIDTH 10 0
BBX 4 4 3 10
BITMAP
70
C0
70
C0
ENDCHAR
STARTCHAR uni0655
ENCODING 1621
SWIDTH 480 0
DWIDTH 10 0
BBX 4 4 3 -3
BITMAP
70
C0
70
C0
ENDCHAR
STARTCHAR uni0656
ENCODING 1622
SWIDTH 480 0
DWIDTH 10 0
BBX 1 3 4 -4
BITMAP
80
80
80
ENDCHAR
STARTCHAR uni0657
ENCODING 1623
SWIDTH 480 0
DWIDTH 10 0
BBX 4 5 3 9
BITMAP
30
40
E0
A0
E0
ENDCHAR
STARTCHAR uni0658
ENCODING 1624
SWIDTH 480 0
DWIDTH 10 0
BBX 4 3 2 6
BITMAP
90
90
60
ENDCHAR
STARTCHAR afii57392
ENCODING 1632
SWIDTH 480 0
DWIDTH 10 0
BBX 4 4 2 3
BITMAP
60
F0
F0
60
ENDCHAR
STARTCHAR afii57393
ENCODING 1633
SWIDTH 480 0
DWIDTH 10 0
BBX 4 12 1 1
BITMAP
C0
C0
E0
60
60
30
30
30
30
30
30
30
ENDCHAR
STARTCHAR afii57394
ENCODING 1634
SWIDTH 480 0
DWIDTH 10 0
BBX 8 12 1 1
BITMAP
C3
C3
E3
7F
7E
30
30
30
30
30
30
30
ENDCHAR
STARTCHAR afii57395
ENCODING 1635
SWIDTH 480 0
DWIDTH 10 0
BBX 9 12 1 1
BITMAP
CD80
CD80
ED80
7F80
7F00
3000
3000
3000
3000
3000
3000
3000
ENDCHAR
STARTCHAR afii57396
ENCODING 1636
SWIDTH 480 0
DWIDTH 10 0
BBX 6 12 2 1
BITMAP
38
78
E0
C0
78
38
70
E0
C0
C0
FC
7C
ENDCHAR
STARTCHAR afii57397
ENCODING 1637
SWIDTH 480 0
DWIDTH 10 0
BBX 8 11 1 1
BITMAP
30
38
1C
3E
66
63
C3
C3
C3
FF
7E
ENDCHAR
STARTCHAR afii57398
ENCODING 1638
SWIDTH 480 0
DWIDTH 10 0
BBX 8 12 1 1
BITMAP
C6
FE
7E
06
06
06
06
06
06
07
07
03
ENDCHAR
STARTCHAR afii57399
ENCODING 1639
SWIDTH 480 0
DWIDTH 10 0
BBX 8 12 1 1
BITMAP
C3
C3
E7
66
66
66
3C
3C
3C
18
18
18
ENDCHAR
STARTCHAR afii57400
ENCODING 1640
SWIDTH 480 0
DWIDTH 10 0
BBX 8 12 1 1
BITMAP
18
18
18
3C
3C
3C
66
66
66
E7
C3
C3
ENDCHAR
STARTCHAR afii57401
ENCODING 1641
SWIDTH 480 0
DWIDTH 10 0
BBX 7 12 2 1
BITMAP
78
CC
CC
CC
FC
7C
0C
0C
0C
0E
0E
06
ENDCHAR
STARTCHAR afii57381
ENCODING 1642
SWIDTH 480 0
DWIDTH 10 0
BBX 9 10 1 1
BITMAP
6080
F180
F300
6600
0C00
1800
3300
6780
C780
8300
ENDCHAR
STARTCHAR uni066B
ENCODING 1643
SWIDTH 480 0
DWIDTH 10 0
BBX 5 8 2 -2
BITMAP
18
18
30
30
60
60
C0
C0
ENDCHAR
STARTCHAR uni066C
ENCODING 1644
SWIDTH 480 0
DWIDTH 10 0
BBX 2 5 4 8
BITMAP
C0
C0
40
C0
80
ENDCHAR
STARTCHAR afii63167
ENCODING 1645
SWIDTH 480 0
DWIDTH 10 0
BBX 7 8 1 5
BITMAP
10
10
10
FE
7C
38
6C
44
ENDCHAR
STARTCHAR uni066E
ENCODING 1646
SWIDTH 480 0
DWIDTH 10 0
BBX 9 4 0 2
BITMAP
C180
C180
FF80
7F00
ENDCHAR
STARTCHAR uni066F
ENCODING 1647
SWIDTH 480 0
DWIDTH 10 0
BBX 9 10 0 -2
BITMAP
0600
0F00
0980
C980
CF80
C780
C180
E300
7E00
3C00
ENDCHAR
STARTCHAR uni0670
ENCODING 1648
SWIDTH 480 0
DWIDTH 10 0
BBX 2 5 1 10
BITMAP
C0
C0
C0
C0
C0
ENDCHAR
STARTCHAR uni0671
ENCODING 1649
SWIDTH 480 0
DWIDTH 10 0
BBX 6 12 2 2
BITMAP
1C
74
BC
00
10
30
30
30
30
30
30
30
ENDCHAR
STARTCHAR uni0672
ENCODING 1650
SWIDTH 480 0
DWIDTH 10 0
BBX 5 13 2 2
BITMAP
30
20
B8
E0
80
10
30
30
30
30
30
30
30
ENDCHAR
STARTCHAR uni0673
ENCODING 1651
SWIDTH 480 0
DWIDTH 10 0
BBX 5 17 2 -4
BITMAP
30
30
30
30
30
30
30
30
30
30
30
00
30
20
B8
E0
80
ENDCHAR
STARTCHAR uni0674
ENCODING 1652
SWIDTH 480 0
DWIDTH 10 0
BBX 4 4 3 10
BITMAP
70
C0
70
C0
ENDCHAR
STARTCHAR uni0675
ENCODING 1653
SWIDTH 480 0
DWIDTH 10 0
BBX 7 11 3 2
BITMAP
CE
D8
CE
D8
C0
C0
C0
C0
C0
C0
C0
ENDCHAR
STARTCHAR uni0676
ENCODING 1654
SWIDTH 480 0
DWIDTH 10 0
BBX 9 16 0 -4
BITMAP
0380
0600
0380
0600
0000
1C00
3E00
3300
3F00
1F00
0300
0700
0E00
3C00
F800
E000
ENDCHAR
STARTCHAR uni0677
ENCODING 1655
SWIDTH 480 0
DWIDTH 10 0
BBX 9 17 0 -4
BITMAP
7000
5380
7600
2380
C600
0000
1C00
3E00
3300
3F00
1F00
0300
0700
0E00
3C00
F800
E000
ENDCHAR
STARTCHAR uni0678
ENCODING 1656
SWIDTH 480 0
DWIDTH 10 0
BBX 10 14 0 -1
BITMAP
01C0
0300
01C0
0300
0000
0380
0780
0C00
CF00
C780
C180
C180
FF00
7E00
ENDCHAR
STARTCHAR afii57511
ENCODING 1657
SWIDTH 480 0
DWIDTH 10 0
BBX 9 10 0 2
BITMAP
2000
2000
2C00
3400
7800
0000
C180
C180
FF80
7F00
ENDCHAR
STARTCHAR uni067A
ENCODING 1658
SWIDTH 480 0
DWIDTH 10 0
BBX 9 9 0 2
BITMAP
1800
1800
0000
1800
1800
C180
C180
FF80
7F00
ENDCHAR
STARTCHAR uni067B
ENCODING 1659
SWIDTH 480 0
DWIDTH 10 0
BBX 9 10 0 -4
BITMAP
C180
C180
FF80
7F00
0000
0C00
0C00
0000
0C00
0C00
ENDCHAR
STARTCHAR uni067C
ENCODING 1660
SWIDTH 480 0
DWIDTH 10 0
BBX 9 10 0 -1
BITMAP
3600
3600
0000
C180
C180
FF80
7F00
0800
1400
0800
ENDCHAR
STARTCHAR uni067D
ENCODING 1661
SWIDTH 480 0
DWIDTH 10 0
BBX 9 8 0 2
BITMAP
3600
3600
0000
1800
D980
C180
FF80
7F00
ENDCHAR
STARTCHAR afii57506
ENCODING 1662
SWIDTH 480 0
DWIDTH 10 0
BBX 9 10 0 -4
BITMAP
C180
C180
FF80
7F00
0000
3600
3600
0000
1800
1800
ENDCHAR
STARTCHAR uni067F
ENCODING 1663
SWIDTH 480 0
DWIDTH 10 0
BBX 9 9 0 2
BITMAP
3600
3600
0000
3600
3600
C180
C180
FF80
7F00
ENDCHAR
STARTCHAR uni0680
ENCODING 1664
SWIDTH 480 0
DWIDTH 10 0
BBX 9 10 0 -4
BITMAP
C180
C180
FF80
7F00
0000
3600
3600
0000
3600
3600
ENDCHAR
STARTCHAR uni0681
ENCODING 1665
SWIDTH 480 0
DWIDTH 10 0
BBX 9 17 0 -4
BITMAP
1C00
3000
1C00
3000
0000
3800
7F80
4F80
1800
3000
6000
C000
C000
C000
E000
7F80
3F80
ENDCHAR
STARTCHAR uni0682
ENCODING 1666
SWIDTH 480 0
DWIDTH 10 0
BBX 9 18 0 -4
BITMAP
0C00
0C00
0000
0C00
0C00
0000
3800
7F80
4F80
1800
3000
6000
C000
C000
C000
E000
7F80
3F80
ENDCHAR
STARTCHAR uni0683
ENCODING 1667
SWIDTH 480 0
DWIDTH 10 0
BBX 9 12 0 -4
BITMAP
3800
7F80
4F80
1800
3000
6000
DB00
DB00
C000
E000
7F80
3F80
ENDCHAR
STARTCHAR uni0684
ENCODING 1668
SWIDTH 480 0
DWIDTH 10 0
BBX 9 12 0 -4
BITMAP
3800
7F80
4F80
1800
3600
6600
C000
C600
C600
E000
7F80
3F80
ENDCHAR
STARTCHAR uni0685
ENCODING 1669
SWIDTH 480 0
DWIDTH 10 0
BBX 9 18 0 -4
BITMAP
1800
1800
0000
3600
3600
0000
3800
7F80
4F80
1800
3000
6000
C000
C000
C000
E000
7F80
3F80
ENDCHAR
STARTCHAR afii57507
ENCODING 1670
SWIDTH 480 0
DWIDTH 10 0
BBX 9 12 0 -4
BITMAP
3800
7F80
4F80
1800
3000
7B00
DB00
C000
CC00
EC00
7F80
3F80
ENDCHAR
STARTCHAR uni0687
ENCODING 1671
SWIDTH 480 0
DWIDTH 10 0
BBX 9 12 0 -4
BITMAP
3800
7F80
4F80
1800
3D80
6D80
C000
CD80
CD80
E000
7F80
3F80
ENDCHAR
STARTCHAR afii57512
ENCODING 1672
SWIDTH 480 0
DWIDTH 10 0
BBX 6 13 2 2
BITMAP
40
40
58
68
F0
00
30
38
1C
0C
0C
FC
F8
ENDCHAR
STARTCHAR uni0689
ENCODING 1673
SWIDTH 480 0
DWIDTH 10 0
BBX 6 10 2 -1
BITMAP
30
38
1C
0C
0C
FC
F8
10
28
10
ENDCHAR
STARTCHAR uni068A
ENCODING 1674
SWIDTH 480 0
DWIDTH 10 0
BBX 6 10 2 -1
BITMAP
30
38
1C
0C
0C
FC
F8
00
30
30
ENDCHAR
STARTCHAR uni068B
ENCODING 1675
SWIDTH 480 0
DWIDTH 10 0
BBX 6 16 2 -1
BITMAP
40
40
58
68
F0
00
30
38
1C
0C
0C
FC
F8
00
30
30
ENDCHAR
STARTCHAR uni068C
ENCODING 1676
SWIDTH 480 0
DWIDTH 10 0
BBX 6 10 2 2
BITMAP
6C
6C
00
30
38
1C
0C
0C
FC
F8
ENDCHAR
STARTCHAR uni068D
ENCODING 1677
SWIDTH 480 0
DWIDTH 10 0
BBX 6 10 2 -1
BITMAP
30
38
1C
0C
0C
FC
F8
00
6C
6C
ENDCHAR
STARTCHAR uni068E
ENCODING 1678
SWIDTH 480 0
DWIDTH 10 0
BBX 6 13 2 2
BITMAP
60
60
00
D8
D8
00
30
38
1C
0C
0C
FC
F8
ENDCHAR
STARTCHAR uni068F
ENCODING 1679
SWIDTH 480 0
DWIDTH 10 0
BBX 6 13 2 2
BITMAP
6C
6C
00
30
30
00
30
38
1C
0C
0C
FC
F8
ENDCHAR
STARTCHAR uni0690
ENCODING 1680
SWIDTH 480 0
DWIDTH 10 0
BBX 6 13 2 2
BITMAP
6C
6C
00
6C
6C
00
30
38
1C
0C
0C
FC
F8
ENDCHAR
STARTCHAR afii57513
ENCODING 1681
SWIDTH 480 0
DWIDTH 10 0
BBX 8 15 0 -3
BITMAP
10
10
16
1A
3C
00
06
07
03
03
07
0E
3C
F8
E0
ENDCHAR
STARTCHAR uni0692
ENCODING 1682
SWIDTH 480 0
DWIDTH 10 0
BBX 8 14 0 -3
BITMAP
0A
0A
04
04
00
06
07
03
03
07
0E
3C
F8
E0
ENDCHAR
STARTCHAR uni0693
ENCODING 1683
SWIDTH 480 0
DWIDTH 10 0
BBX 8 10 0 -4
BITMAP
06
07
03
03
07
0E
3C
FC
EA
04
ENDCHAR
STARTCHAR uni0694
ENCODING 1684
SWIDTH 480 0
DWIDTH 10 0
BBX 9 9 0 -3
BITMAP
0600
0700
0300
0300
0700
0E00
3C00
F980
E180
ENDCHAR
STARTCHAR uni0695
ENCODING 1685
SWIDTH 480 0
DWIDTH 10 0
BBX 9 10 0 -4
BITMAP
0600
0700
0300
0300
0700
0E00
3E80
FA80
E100
0100
ENDCHAR
STARTCHAR uni0696
ENCODING 1686
SWIDTH 480 0
DWIDTH 10 0
BBX 8 9 0 -3
BITMAP
06
07
03
33
37
0E
3C
FB
E3
ENDCHAR
STARTCHAR uni0697
ENCODING 1687
SWIDTH 480 0
DWIDTH 10 0
BBX 8 12 0 -3
BITMAP
1B
1B
00
06
07
03
03
07
0E
3C
F8
E0
ENDCHAR
STARTCHAR afii57508
ENCODING 1688
SWIDTH 480 0
DWIDTH 10 0
BBX 8 15 0 -3
BITMAP
0C
0C
00
1B
1B
00
06
07
03
03
07
0E
3C
F8
E0
ENDCHAR
STARTCHAR uni0699
ENCODING 1689
SWIDTH 480 0
DWIDTH 10 0
BBX 8 15 0 -3
BITMAP
1B
1B
00
1B
1B
00
06
07
03
03
07
0E
3C
F8
E0
ENDCHAR
STARTCHAR uni069A
ENCODING 1690
SWIDTH 480 0
DWIDTH 10 0
BBX 10 11 0 -2
BITMAP
0300
0300
0000
0940
0D40
8FC0
8780
8400
CD80
FD80
7800
ENDCHAR
STARTCHAR uni069B
ENCODING 1691
SWIDTH 480 0
DWIDTH 10 0
BBX 10 10 0 -4
BITMAP
0940
0D40
8FC0
8F80
8800
CEC0
FEC0
7000
0300
0300
ENDCHAR
STARTCHAR uni069C
ENCODING 1692
SWIDTH 480 0
DWIDTH 10 0
BBX 10 16 0 -4
BITMAP
0600
0600
0000
0D80
0D80
0000
0940
0D40
8FC0
8F80
8800
CEC0
FEC0
7000
0300
0300
ENDCHAR
STARTCHAR uni069D
ENCODING 1693
SWIDTH 480 0
DWIDTH 10 0
BBX 10 9 0 -2
BITMAP
0180
0BC0
0E40
8FC0
8F80
8800
CEC0
FEC0
7000
ENDCHAR
STARTCHAR uni069E
ENCODING 1694
SWIDTH 480 0
DWIDTH 10 0
BBX 10 15 0 -2
BITMAP
0600
0600
0000
0D80
0D80
0000
0180
0BC0
0E40
8FC0
8780
8400
CC00
FC00
7800
ENDCHAR
STARTCHAR uni069F
ENCODING 1695
SWIDTH 480 0
DWIDTH 10 0
BBX 10 12 0 2
BITMAP
0300
3300
3000
36C0
36C0
3000
3380
37C0
3CC0
38C0
FFC0
7F80
ENDCHAR
STARTCHAR uni06A0
ENCODING 1696
SWIDTH 480 0
DWIDTH 10 0
BBX 7 18 0 -4
BITMAP
30
30
00
6C
6C
00
38
78
60
6C
38
70
E0
C0
C0
E6
7E
3C
ENDCHAR
STARTCHAR uni06A1
ENCODING 1697
SWIDTH 480 0
DWIDTH 10 0
BBX 9 7 0 2
BITMAP
0700
0D80
4D80
C780
C180
FF80
7F00
ENDCHAR
STARTCHAR uni06A2
ENCODING 1698
SWIDTH 480 0
DWIDTH 10 0
BBX 9 10 0 -1
BITMAP
0700
0D80
4D80
C780
C180
FF80
7F00
0000
0300
0300
ENDCHAR
STARTCHAR uni06A3
ENCODING 1699
SWIDTH 480 0
DWIDTH 10 0
BBX 9 13 0 -1
BITMAP
0600
0600
0000
0700
0D80
4D80
C780
C180
FF80
7F00
0000
1800
1800
ENDCHAR
STARTCHAR afii57505
ENCODING 1700
SWIDTH 480 0
DWIDTH 10 0
BBX 9 13 0 2
BITMAP
0600
0600
0000
0D80
0D80
0000
0700
0D80
4D80
C780
C180
FF80
7F00
ENDCHAR
STARTCHAR uni06A5
ENCODING 1701
SWIDTH 480 0
DWIDTH 10 0
BBX 10 13 0 -4
BITMAP
0700
0D80
4D80
C780
C180
FF80
7F00
0000
06C0
06C0
0000
0300
0300
ENDCHAR
STARTCHAR uni06A6
ENCODING 1702
SWIDTH 480 0
DWIDTH 10 0
BBX 9 13 0 2
BITMAP
0D80
0D80
0000
0D80
0D80
0000
0700
0D80
4D80
C780
C180
FF80
7F00
ENDCHAR
STARTCHAR uni06A7
ENCODING 1703
SWIDTH 480 0
DWIDTH 10 0
BBX 9 13 0 -2
BITMAP
0600
0600
0000
0600
0F00
0980
C980
CF80
C780
C180
E300
7E00
3C00
ENDCHAR
STARTCHAR uni06A8
ENCODING 1704
SWIDTH 480 0
DWIDTH 10 0
BBX 9 16 0 -2
BITMAP
0C00
0C00
0000
1B00
1B00
0000
0600
0F00
0980
C980
CF80
C780
C180
E300
7E00
3C00
ENDCHAR
STARTCHAR uni06A9
ENCODING 1705
SWIDTH 480 0
DWIDTH 10 0
BBX 10 9 0 2
BITMAP
00C0
01C0
0380
0700
0300
0180
C180
FF80
7F00
ENDCHAR
STARTCHAR uni06AA
ENCODING 1706
SWIDTH 480 0
DWIDTH 10 0
BBX 10 8 0 2
BITMAP
0E00
3800
6000
7F80
3FC0
8040
FFC0
7F80
ENDCHAR
STARTCHAR uni06AB
ENCODING 1707
SWIDTH 480 0
DWIDTH 10 0
BBX 10 10 0 2
BITMAP
00C0
0180
0380
0740
0E80
0600
0300
C300
FF00
7E00
ENDCHAR
STARTCHAR uni06AC
ENCODING 1708
SWIDTH 480 0
DWIDTH 10 0
BBX 8 13 1 2
BITMAP
0C
0C
00
03
13
33
63
33
63
03
C3
FF
7E
ENDCHAR
STARTCHAR uni06AD
ENCODING 1709
SWIDTH 480 0
DWIDTH 10 0
BBX 8 14 1 2
BITMAP
60
60
00
D8
DB
13
33
63
33
63
03
C3
FF
7E
ENDCHAR
STARTCHAR uni06AE
ENCODING 1710
SWIDTH 480 0
DWIDTH 10 0
BBX 8 16 1 -4
BITMAP
03
13
33
63
33
63
03
C3
FF
7E
00
36
36
00
18
18
ENDCHAR
STARTCHAR afii57509
ENCODING 1711
SWIDTH 480 0
DWIDTH 10 0
BBX 10 11 0 2
BITMAP
0080
0100
02C0
05C0
0B80
0700
0300
0180
C180
FF80
7F00
ENDCHAR
STARTCHAR uni06B0
ENCODING 1712
SWIDTH 480 0
DWIDTH 10 0
BBX 10 11 0 2
BITMAP
0100
02C0
0580
0B80
1740
0E80
0600
0300
C300
FF00
7E00
ENDCHAR
STARTCHAR uni06B1
ENCODING 1713
SWIDTH 480 0
DWIDTH 10 0
BBX 10 14 0 2
BITMAP
0D80
0D80
0000
0080
0100
02C0
05C0
0B80
0700
0300
0180
C180
FF80
7F00
ENDCHAR
STARTCHAR uni06B2
ENCODING 1714
SWIDTH 480 0
DWIDTH 10 0
BBX 10 14 0 -1
BITMAP
0080
0100
02C0
05C0
0B80
0700
0300
0180
C180
FF80
7F00
0000
3600
3600
ENDCHAR
STARTCHAR uni06B3
ENCODING 1715
SWIDTH 480 0
DWIDTH 10 0
BBX 10 17 0 -4
BITMAP
0080
0100
02C0
05C0
0B80
0700
0300
0180
C180
FF80
7F00
0000
0C00
0C00
0000
0C00
0C00
ENDCHAR
STARTCHAR uni06B4
ENCODING 1716
SWIDTH 480 0
DWIDTH 10 0
BBX 10 14 0 2
BITMAP
3000
3000
0000
6C80
6D00
02C0
05C0
0B80
0700
0300
0180
C180
FF80
7F00
ENDCHAR
STARTCHAR uni06B5
ENCODING 1717
SWIDTH 480 0
DWIDTH 10 0
BBX 8 17 1 -1
BITMAP
05
05
02
02
00
03
03
03
03
03
03
C3
C3
C3
E7
7E
3C
ENDCHAR
STARTCHAR uni06B6
ENCODING 1718
SWIDTH 480 0
DWIDTH 10 0
BBX 8 16 1 -1
BITMAP
06
06
00
03
03
03
03
03
03
03
C3
C3
C3
E7
7E
3C
ENDCHAR
STARTCHAR uni06B7
ENCODING 1719
SWIDTH 480 0
DWIDTH 10 0
BBX 8 17 1 -1
BITMAP
18
18
00
36
36
00
03
03
03
03
03
C3
C3
C3
E7
7E
3C
ENDCHAR
STARTCHAR uni06B8
ENCODING 1720
SWIDTH 480 0
DWIDTH 10 0
BBX 8 18 1 -4
BITMAP
03
03
03
03
03
03
03
03
C3
C3
C3
E7
7E
3C
36
36
18
18
ENDCHAR
STARTCHAR uni06B9
ENCODING 1721
SWIDTH 480 0
DWIDTH 10 0
BBX 9 12 0 -4
BITMAP
1800
1980
C180
C180
C180
C180
E380
7F00
3E00
0000
0600
0600
ENDCHAR
STARTCHAR afii57514
ENCODING 1722
SWIDTH 480 0
DWIDTH 10 0
BBX 9 8 0 -2
BITMAP
0180
C180
C180
C180
C180
E380
7F00
3E00
ENDCHAR
STARTCHAR uni06BB
ENCODING 1723
SWIDTH 480 0
DWIDTH 10 0
BBX 9 14 0 -2
BITMAP
2000
2000
2C00
3400
7800
0000
0180
C180
C180
C180
C180
E380
7F00
3E00
ENDCHAR
STARTCHAR uni06BC
ENCODING 1724
SWIDTH 480 0
DWIDTH 10 0
BBX 9 11 0 -4
BITMAP
1800
1980
C180
C180
C180
C180
E380
7F00
3E00
0A00
0400
ENDCHAR
STARTCHAR uni06BD
ENCODING 1725
SWIDTH 480 0
DWIDTH 10 0
BBX 9 13 0 -2
BITMAP
1800
1800
0000
3600
3600
0180
C180
C180
C180
C180
E380
7F00
3E00
ENDCHAR
STARTCHAR uni06BE
ENCODING 1726
SWIDTH 480 0
DWIDTH 10 0
BBX 9 7 0 2
BITMAP
0C00
1E00
3300
3780
3C80
FF80
6700
ENDCHAR
STARTCHAR uni06BF
ENCODING 1727
SWIDTH 480 0
DWIDTH 10 0
BBX 9 15 0 -4
BITMAP
0C00
0C00
0000
3800
7F80
4F80
1800
3000
7B00
DB00
C000
CC00
EC00
7F80
3F80
ENDCHAR
STARTCHAR uni06C0
ENCODING 1728
SWIDTH 480 0
DWIDTH 10 0
BBX 6 12 2 1
BITMAP
70
C0
70
C0
00
70
F8
DC
CC
CC
FC
78
ENDCHAR
STARTCHAR uni06C1
ENCODING 1729
SWIDTH 480 0
DWIDTH 10 0
BBX 7 4 3 2
BITMAP
60
F0
9E
8E
ENDCHAR
STARTCHAR uni06C2
ENCODING 1730
SWIDTH 480 0
DWIDTH 10 0
BBX 7 9 3 2
BITMAP
70
C0
70
C0
00
60
F0
9E
8E
ENDCHAR
STARTCHAR uni06C3
ENCODING 1731
SWIDTH 480 0
DWIDTH 10 0
BBX 7 8 3 2
BITMAP
D8
D8
00
00
60
F0
9E
8E
ENDCHAR
STARTCHAR uni06C4
ENCODING 1732
SWIDTH 480 0
DWIDTH 10 0
BBX 8 11 0 -4
BITMAP
1C
3E
33
1F
0F
23
57
2E
3C
F8
E0
ENDCHAR
STARTCHAR uni06C5
ENCODING 1733
SWIDTH 480 0
DWIDTH 10 0
BBX 8 11 0 -4
BITMAP
1C
3E
33
3F
1F
03
3F
0E
3C
F8
E0
ENDCHAR
STARTCHAR uni06C6
ENCODING 1734
SWIDTH 480 0
DWIDTH 10 0
BBX 8 16 0 -4
BITMAP
14
14
08
08
00
1C
3E
33
3F
1F
03
07
0E
3C
F8
E0
ENDCHAR
STARTCHAR uni06C7
ENCODING 1735
SWIDTH 480 0
DWIDTH 10 0
BBX 8 17 0 -4
BITMAP
1C
14
1C
08
30
00
1C
3E
33
3F
1F
03
07
0E
3C
F8
E0
ENDCHAR
STARTCHAR uni06C8
ENCODING 1736
SWIDTH 480 0
DWIDTH 10 0
BBX 8 16 0 -4
BITMAP
18
18
18
18
00
1C
3E
33
3F
1F
03
07
0E
3C
F8
E0
ENDCHAR
STARTCHAR uni06C9
ENCODING 1737
SWIDTH 480 0
DWIDTH 10 0
BBX 8 16 0 -4
BITMAP
08
1C
36
22
00
1C
3E
33
3F
1F
03
07
0E
3C
F8
E0
ENDCHAR
STARTCHAR uni06CA
ENCODING 1738
SWIDTH 480 0
DWIDTH 10 0
BBX 8 14 0 -4
BITMAP
36
36
00
1C
3E
33
3F
1F
03
07
0E
3C
F8
E0
ENDCHAR
STARTCHAR uni06CB
ENCODING 1739
SWIDTH 480 0
DWIDTH 10 0
BBX 8 17 0 -4
BITMAP
18
18
00
36
36
00
1C
3E
33
3F
1F
03
07
0E
3C
F8
E0
ENDCHAR
STARTCHAR uni06CC
ENCODING 1740
SWIDTH 480 0
DWIDTH 10 0
BBX 10 9 0 -1
BITMAP
01C0
03C0
0600
C780
C3C0
C0C0
E0C0
7F80
3F00
ENDCHAR
STARTCHAR uni06CD
ENCODING 1741
SWIDTH 480 0
DWIDTH 10 0
BBX 10 9 0 -1
BITMAP
01C0
03C0
3600
F780
A3C0
20C0
30C0
3F80
1F00
ENDCHAR
STARTCHAR uni06CE
ENCODING 1742
SWIDTH 480 0
DWIDTH 10 0
BBX 10 12 0 -1
BITMAP
2800
3800
1000
11C0
03C0
0600
C780
C3C0
C0C0
E0C0
7F80
3F00
ENDCHAR
STARTCHAR uni06CF
ENCODING 1743
SWIDTH 480 0
DWIDTH 10 0
BBX 8 14 0 -4
BITMAP
18
18
00
1C
3E
33
3F
1F
03
07
0E
3C
F8
E0
ENDCHAR
STARTCHAR uni06D0
ENCODING 1744
SWIDTH 480 0
DWIDTH 10 0
BBX 10 14 0 -4
BITMAP
01C0
03C0
0600
C780
C3C0
C0C0
E0C0
7F80
3F00
0C00
0C00
0000
0C00
0C00
ENDCHAR
STARTCHAR uni06D1
ENCODING 1745
SWIDTH 480 0
DWIDTH 10 0
BBX 10 14 0 -4
BITMAP
01C0
03C0
0600
C780
C3C0
C0C0
E0C0
7F80
3F00
3600
3600
0000
1800
1800
ENDCHAR
STARTCHAR afii57519
ENCODING 1746
SWIDTH 480 0
DWIDTH 10 0
BBX 10 6 0 0
BITMAP
1800
1800
6800
C000
FFC0
FFC0
ENDCHAR
STARTCHAR uni06D3
ENCODING 1747
SWIDTH 480 0
DWIDTH 10 0
BBX 10 10 0 0
BITMAP
7000
C000
7000
C000
1800
1800
6800
C000
FFC0
FFC0
ENDCHAR
STARTCHAR uni06D4
ENCODING 1748
SWIDTH 480 0
DWIDTH 10 0
BBX 6 2 2 4
BITMAP
7C
F8
ENDCHAR
STARTCHAR afii57534
ENCODING 1749
SWIDTH 480 0
DWIDTH 10 0
BBX 6 7 2 2
BITMAP
70
F8
DC
CC
CC
FC
78
ENDCHAR
STARTCHAR uni06D6
ENCODING 1750
SWIDTH 480 0
DWIDTH 10 0
BBX 7 6 0 10
BITMAP
20
26
3A
7E
80
FC
ENDCHAR
STARTCHAR uni06D7
ENCODING 1751
SWIDTH 480 0
DWIDTH 10 0
BBX 7 6 0 10
BITMAP
2A
24
2A
7E
80
FC
ENDCHAR
STARTCHAR uni06D8
ENCODING 1752
SWIDTH 480 0
DWIDTH 10 0
BBX 6 5 0 11
BITMAP
18
3C
24
7C
CC
ENDCHAR
STARTCHAR uni06D9
ENCODING 1753
SWIDTH 480 0
DWIDTH 10 0
BBX 4 5 0 11
BITMAP
90
50
50
30
E0
ENDCHAR
STARTCHAR uni06DA
ENCODING 1754
SWIDTH 480 0
DWIDTH 10 0
BBX 5 7 0 9
BITMAP
60
90
60
80
A0
88
70
ENDCHAR
STARTCHAR uni06DB
ENCODING 1755
SWIDTH 480 0
DWIDTH 10 0
BBX 3 3 1 12
BITMAP
40
00
A0
ENDCHAR
STARTCHAR uni06DC
ENCODING 1756
SWIDTH 480 0
DWIDTH 10 0
BBX 7 4 0 12
BITMAP
2A
BC
A0
E0
ENDCHAR
STARTCHAR uni06DD
ENCODING 1757
SWIDTH 480 0
DWIDTH 10 0
BBX 10 13 0 -2
BITMAP
1E00
6180
BF40
4080
8040
8040
8040
8040
8040
4080
BF40
6180
1E00
ENDCHAR
STARTCHAR uni06DE
ENCODING 1758
SWIDTH 480 0
DWIDTH 10 0
BBX 9 9 0 0
BITMAP
0800
7700
6300
4900
9480
4900
6300
7700
0800
ENDCHAR
STARTCHAR uni06DF
ENCODING 1759
SWIDTH 480 0
DWIDTH 10 0
BBX 3 3 3 12
BITMAP
40
E0
40
ENDCHAR
STARTCHAR uni06E0
ENCODING 1760
SWIDTH 480 0
DWIDTH 10 0
BBX 3 3 3 12
BITMAP
E0
E0
E0
ENDCHAR
STARTCHAR uni06E1
ENCODING 1761
SWIDTH 480 0
DWIDTH 10 0
BBX 6 4 0 12
BITMAP
30
48
1C
E0
ENDCHAR
STARTCHAR uni06E2
ENCODING 1762
SWIDTH 480 0
DWIDTH 10 0
BBX 4 7 0 9
BITMAP
20
50
70
80
80
80
80
ENDCHAR
STARTCHAR uni06E3
ENCODING 1763
SWIDTH 480 0
DWIDTH 10 0
BBX 7 4 1 -4
BITMAP
2A
BC
A0
E0
ENDCHAR
STARTCHAR uni06E4
ENCODING 1764
SWIDTH 480 0
DWIDTH 10 0
BBX 6 3 0 12
BITMAP
84
F8
80
ENDCHAR
STARTCHAR uni06E5
ENCODING 1765
SWIDTH 480 0
DWIDTH 10 0
BBX 3 6 4 3
BITMAP
40
A0
E0
20
60
C0
ENDCHAR
STARTCHAR uni06E6
ENCODING 1766
SWIDTH 480 0
DWIDTH 10 0
BBX 7 4 0 3
BITMAP
10
68
80
7E
ENDCHAR
STARTCHAR uni06E7
ENCODING 1767
SWIDTH 480 0
DWIDTH 10 0
BBX 7 4 1 11
BITMAP
10
68
80
7E
ENDCHAR
STARTCHAR uni06E8
ENCODING 1768
SWIDTH 480 0
DWIDTH 10 0
BBX 4 5 1 11
BITMAP
40
10
90
90
60
ENDCHAR
STARTCHAR uni06E9
ENCODING 1769
SWIDTH 480 0
DWIDTH 10 0
BBX 9 15 0 0
BITMAP
0800
1400
2A00
5500
A280
5500
2A00
2A00
2A00
2A00
2A00
2A00
2A00
4100
FF80
ENDCHAR
STARTCHAR uni06EA
ENCODING 1770
SWIDTH 480 0
DWIDTH 10 0
BBX 5 5 2 -3
BITMAP
20
50
88
50
20
ENDCHAR
STARTCHAR uni06EB
ENCODING 1771
SWIDTH 480 0
DWIDTH 10 0
BBX 5 5 2 11
BITMAP
20
50
88
50
20
ENDCHAR
STARTCHAR uni06EC
ENCODING 1772
SWIDTH 480 0
DWIDTH 10 0
BBX 3 5 4 8
BITMAP
40
E0
E0
E0
40
ENDCHAR
STARTCHAR uni06ED
ENCODING 1773
SWIDTH 480 0
DWIDTH 10 0
BBX 4 7 1 -4
BITMAP
20
50
70
80
80
80
80
ENDCHAR
STARTCHAR uni06EE
ENCODING 1774
SWIDTH 480 0
DWIDTH 10 0
BBX 6 12 2 2
BITMAP
20
70
D8
88
00
30
38
1C
0C
0C
FC
F8
ENDCHAR
STARTCHAR uni06EF
ENCODING 1775
SWIDTH 480 0
DWIDTH 10 0
BBX 8 14 0 -3
BITMAP
04
0E
1B
11
00
06
07
03
03
07
0E
3C
F8
E0
ENDCHAR
STARTCHAR uni06F0
ENCODING 1776
SWIDTH 480 0
DWIDTH 10 0
BBX 4 4 2 3
BITMAP
60
F0
F0
60
ENDCHAR
STARTCHAR uni06F1
ENCODING 1777
SWIDTH 480 0
DWIDTH 10 0
BBX 4 12 1 1
BITMAP
C0
C0
E0
60
60
30
30
30
30
30
30
30
ENDCHAR
STARTCHAR uni06F2
ENCODING 1778
SWIDTH 480 0
DWIDTH 10 0
BBX 8 12 1 1
BITMAP
C3
C3
E3
7F
7E
30
30
30
30
30
30
30
ENDCHAR
STARTCHAR uni06F3
ENCODING 1779
SWIDTH 480 0
DWIDTH 10 0
BBX 9 12 1 1
BITMAP
CD80
CD80
ED80
7F80
7F00
3000
3000
3000
3000
3000
3000
3000
ENDCHAR
STARTCHAR uni06F4
ENCODING 1780
SWIDTH 480 0
DWIDTH 10 0
BBX 8 13 1 1
BITMAP
07
0F
CC
EC
7F
3F
30
30
30
30
30
30
30
ENDCHAR
STARTCHAR uni06F5
ENCODING 1781
SWIDTH 480 0
DWIDTH 10 0
BBX 8 12 1 1
BITMAP
30
18
3C
6C
66
C6
C3
C3
DB
DB
FF
76
ENDCHAR
STARTCHAR uni06F6
ENCODING 1782
SWIDTH 480 0
DWIDTH 10 0
BBX 8 12 1 1
BITMAP
1C
3E
70
60
63
3F
1E
1C
38
70
E0
C0
ENDCHAR
STARTCHAR uni06F7
ENCODING 1783
SWIDTH 480 0
DWIDTH 10 0
BBX 8 12 1 1
BITMAP
C3
C3
E7
66
66
66
3C
3C
3C
18
18
18
ENDCHAR
STARTCHAR uni06F8
ENCODING 1784
SWIDTH 480 0
DWIDTH 10 0
BBX 8 12 1 1
BITMAP
18
18
18
3C
3C
3C
66
66
66
E7
C3
C3
ENDCHAR
STARTCHAR uni06F9
ENCODING 1785
SWIDTH 480 0
DWIDTH 10 0
BBX 7 12 2 1
BITMAP
78
CC
CC
CC
FC
7C
0C
0C
0C
0E
0E
06
ENDCHAR
STARTCHAR uni06FA
ENCODING 1786
SWIDTH 480 0
DWIDTH 10 0
BBX 10 14 0 -2
BITMAP
0300
0300
0000
06C0
06C0
0000
0940
0D40
8FC0
8780
8600
CCC0
FCC0
7800
ENDCHAR
STARTCHAR uni06FB
ENCODING 1787
SWIDTH 480 0
DWIDTH 10 0
BBX 10 12 0 -2
BITMAP
0180
0180
0000
0180
0BC0
0E40
8FC0
8780
8400
CD80
FD80
7800
ENDCHAR
STARTCHAR uni06FC
ENCODING 1788
SWIDTH 480 0
DWIDTH 10 0
BBX 8 15 1 -4
BITMAP
30
30
00
38
78
60
6C
38
70
EC
CC
C0
E0
7F
3E
ENDCHAR
STARTCHAR uni06FD
ENCODING 1789
SWIDTH 480 0
DWIDTH 10 0
BBX 6 11 2 -3
BITMAP
38
78
60
7C
FC
E0
00
28
28
28
28
ENDCHAR
ENDFONT
